<svg width="162" height="132" viewBox="0 0 162 132" fill="none" xmlns="http://www.w3.org/2000/svg">
<rect width="162" height="132" rx="8" fill="white"/>
<path d="M69 29.4875H66.2877C64.4721 29.4875 63 30.9433 63 32.7388C63 34.5343 64.4721 35.99 66.2877 35.99" stroke="#FE666F" stroke-width="1.6" stroke-linecap="round" stroke-linejoin="round"/>
<path fill-rule="evenodd" clip-rule="evenodd" d="M98.9994 52.2463H91.6021C89.7865 52.2463 88.3145 50.7906 88.3145 48.9951C88.3145 47.1996 89.7865 45.7439 91.6021 45.7439H98.9994V52.2463Z" stroke="#FE666F" stroke-width="1.6" stroke-linecap="round" stroke-linejoin="round"/>
<path d="M69.3155 29.3793C69.3155 23.5391 74.1574 18.7764 80.1655 18.7764C86.1736 18.7764 91.0155 23.5391 91.0155 29.3793C91.0155 31.8713 90.1366 34.1627 88.6615 35.9746H71.6695C70.1945 34.1627 69.3155 31.8713 69.3155 29.3793Z" stroke="#FE666F" stroke-width="1.55283"/>
<path d="M80.926 32.1688C79.7439 32.1688 78.7529 31.5992 78.3495 30.1427H81.4286V29.1333H78.1866C78.1725 28.953 78.1654 28.7584 78.1654 28.5565C78.1654 28.369 78.1725 28.196 78.1866 28.0229H81.4286V26.9991H78.3495C78.7388 25.5282 79.7368 24.973 80.926 24.973C81.917 24.973 82.7098 25.4777 83.1912 26.4006L84.7484 25.384C83.9202 24.1078 82.5612 23.2642 80.9331 23.2642C78.76 23.2642 77.0045 24.5043 76.502 26.9991H75.4473V28.0229H76.3675C76.3604 28.196 76.3533 28.3762 76.3533 28.5565C76.3533 28.7511 76.3604 28.9458 76.3745 29.1333H75.4473V30.1427H76.502C77.0187 32.6302 78.7671 33.8848 80.9331 33.8848C82.5612 33.8848 83.9202 33.0268 84.7484 31.7434L83.1912 30.734C82.7169 31.6136 81.9383 32.1688 80.926 32.1688Z" fill="#FE666F"/>
<path d="M96.0584 45.7431V35.9902H66.4693C64.6537 35.9902 63.1816 34.5345 63.1816 32.739V57.1232C63.1816 59.8168 65.3893 62 68.1131 62H96.0584V52.2464" stroke="#FE666F" stroke-width="1.6" stroke-linecap="round" stroke-linejoin="round"/>
<path d="M17.553 89.176C16.721 89.176 15.9477 89.032 15.233 88.744C14.529 88.4453 13.905 88.0347 13.361 87.512C12.8277 86.9787 12.4117 86.3653 12.113 85.672C11.825 84.968 11.681 84.2107 11.681 83.4C11.681 82.5893 11.825 81.8373 12.113 81.144C12.4117 80.44 12.8277 79.8267 13.361 79.304C13.905 78.7707 14.5343 78.36 15.249 78.072C15.9637 77.7733 16.7317 77.624 17.553 77.624C18.1397 77.624 18.7103 77.704 19.265 77.864C19.8303 78.0133 20.3477 78.232 20.817 78.52C21.297 78.808 21.713 79.1547 22.065 79.56L20.945 80.712C20.529 80.2107 20.0223 79.832 19.425 79.576C18.8277 79.3093 18.2037 79.176 17.553 79.176C16.9557 79.176 16.401 79.2827 15.889 79.496C15.3877 79.7093 14.9503 80.008 14.577 80.392C14.2037 80.7653 13.9103 81.208 13.697 81.72C13.4943 82.232 13.393 82.792 13.393 83.4C13.393 83.9973 13.4943 84.552 13.697 85.064C13.9103 85.576 14.209 86.024 14.593 86.408C14.977 86.792 15.425 87.0907 15.937 87.304C16.449 87.5173 17.0037 87.624 17.601 87.624C18.2517 87.624 18.865 87.496 19.441 87.24C20.0277 86.9733 20.5237 86.6 20.929 86.12L22.033 87.24C21.6597 87.6347 21.233 87.9813 20.753 88.28C20.2837 88.568 19.7717 88.792 19.217 88.952C18.673 89.1013 18.1183 89.176 17.553 89.176ZM26.1023 89.16C25.4729 89.16 24.9183 89.0267 24.4383 88.76C23.9583 88.4933 23.5849 88.12 23.3183 87.64C23.0516 87.1493 22.9183 86.5893 22.9183 85.96V80.856H24.5023V85.688C24.5023 86.328 24.6836 86.8347 25.0463 87.208C25.4196 87.5813 25.9156 87.768 26.5343 87.768C26.9716 87.768 27.3609 87.6773 27.7023 87.496C28.0436 87.304 28.3209 87.0373 28.5343 86.696V80.856H30.1343V89H28.5343V88.168C27.9049 88.8293 27.0943 89.16 26.1023 89.16ZM35.6324 89.144C34.8324 89.144 34.107 88.9573 33.4564 88.584C32.8164 88.2107 32.3044 87.704 31.9204 87.064C31.547 86.424 31.3604 85.7093 31.3604 84.92C31.3604 84.1413 31.5417 83.4373 31.9044 82.808C32.267 82.168 32.7577 81.6613 33.3764 81.288C33.995 80.904 34.683 80.712 35.4404 80.712C36.1977 80.712 36.8697 80.904 37.4564 81.288C38.043 81.6613 38.507 82.1733 38.8484 82.824C39.2004 83.464 39.3764 84.1893 39.3764 85V85.448H32.9604C33.0457 85.896 33.211 86.296 33.4564 86.648C33.7124 87 34.0324 87.2773 34.4164 87.48C34.811 87.6827 35.2377 87.784 35.6964 87.784C36.091 87.784 36.4697 87.7253 36.8324 87.608C37.2057 87.48 37.515 87.2987 37.7604 87.064L38.7844 88.072C38.3044 88.4347 37.8084 88.7067 37.2964 88.888C36.795 89.0587 36.2404 89.144 35.6324 89.144ZM32.9764 84.248H37.7924C37.7284 83.8213 37.579 83.448 37.3444 83.128C37.1204 82.7973 36.8377 82.5413 36.4964 82.36C36.1657 82.168 35.803 82.072 35.4084 82.072C35.003 82.072 34.6297 82.1627 34.2884 82.344C33.947 82.5253 33.659 82.7813 33.4244 83.112C33.2004 83.432 33.051 83.8107 32.9764 84.248ZM40.6003 89V80.856H42.2003V81.688C42.8296 81.0267 43.6456 80.696 44.6483 80.696C45.2776 80.696 45.8269 80.8293 46.2963 81.096C46.7763 81.3627 47.1496 81.736 47.4163 82.216C47.6936 82.696 47.8323 83.2507 47.8323 83.88V89H46.2323V84.152C46.2323 83.512 46.0509 83.0107 45.6883 82.648C45.3363 82.2747 44.8403 82.088 44.2003 82.088C43.7736 82.088 43.3896 82.1787 43.0483 82.36C42.7069 82.5413 42.4243 82.8027 42.2003 83.144V89H40.6003ZM52.632 89.144C51.8427 89.144 51.24 88.9627 50.824 88.6C50.408 88.2267 50.2 87.688 50.2 86.984V82.2H48.472V80.856H50.2V78.776L51.784 78.392V80.856H54.184V82.2H51.784V86.616C51.784 87.032 51.8747 87.3307 52.056 87.512C52.248 87.6827 52.5573 87.768 52.984 87.768C53.208 87.768 53.4053 87.752 53.576 87.72C53.7573 87.688 53.9493 87.64 54.152 87.576V88.92C53.9387 88.9947 53.688 89.048 53.4 89.08C53.1227 89.1227 52.8667 89.144 52.632 89.144ZM57.6388 89.144C57.0521 89.144 56.5348 89.0427 56.0868 88.84C55.6388 88.6267 55.2868 88.3333 55.0308 87.96C54.7748 87.5867 54.6468 87.1547 54.6468 86.664C54.6468 85.896 54.9401 85.2933 55.5268 84.856C56.1134 84.408 56.9188 84.184 57.9428 84.184C58.7428 84.184 59.4841 84.3387 60.1668 84.648V83.784C60.1668 83.1973 59.9961 82.76 59.6548 82.472C59.3241 82.184 58.8334 82.04 58.1828 82.04C57.8094 82.04 57.4201 82.0987 57.0148 82.216C56.6094 82.3227 56.1561 82.4933 55.6548 82.728L55.0628 81.528C55.6814 81.24 56.2574 81.032 56.7908 80.904C57.3241 80.7653 57.8628 80.696 58.4068 80.696C59.4628 80.696 60.2788 80.9467 60.8548 81.448C61.4414 81.9493 61.7348 82.664 61.7348 83.592V89H60.1668V88.296C59.8041 88.584 59.4148 88.7973 58.9988 88.936C58.5828 89.0747 58.1294 89.144 57.6388 89.144ZM56.1828 86.632C56.1828 87.0267 56.3481 87.3467 56.6788 87.592C57.0201 87.8373 57.4628 87.96 58.0068 87.96C58.4334 87.96 58.8228 87.896 59.1748 87.768C59.5374 87.64 59.8681 87.4427 60.1668 87.176V85.8C59.8574 85.6187 59.5321 85.4907 59.1908 85.416C58.8601 85.3307 58.4868 85.288 58.0708 85.288C57.4841 85.288 57.0201 85.4107 56.6788 85.656C56.3481 85.8907 56.1828 86.216 56.1828 86.632ZM66.3221 89V80.856H67.9221V81.896C68.1781 81.512 68.4928 81.2133 68.8661 81C69.2501 80.776 69.6821 80.664 70.1621 80.664C70.4928 80.6747 70.7648 80.7227 70.9781 80.808V82.248C70.8288 82.184 70.6741 82.1413 70.5141 82.12C70.3541 82.088 70.1941 82.072 70.0341 82.072C69.5648 82.072 69.1488 82.2 68.7861 82.456C68.4235 82.7013 68.1355 83.064 67.9221 83.544V89H66.3221ZM75.3949 89.144C74.5949 89.144 73.8695 88.9573 73.2189 88.584C72.5789 88.2107 72.0669 87.704 71.6829 87.064C71.3095 86.424 71.1229 85.7093 71.1229 84.92C71.1229 84.1413 71.3042 83.4373 71.6669 82.808C72.0295 82.168 72.5202 81.6613 73.1389 81.288C73.7575 80.904 74.4455 80.712 75.2029 80.712C75.9602 80.712 76.6322 80.904 77.2189 81.288C77.8055 81.6613 78.2695 82.1733 78.6109 82.824C78.9629 83.464 79.1389 84.1893 79.1389 85V85.448H72.7229C72.8082 85.896 72.9735 86.296 73.2189 86.648C73.4749 87 73.7949 87.2773 74.1789 87.48C74.5735 87.6827 75.0002 87.784 75.4589 87.784C75.8535 87.784 76.2322 87.7253 76.5949 87.608C76.9682 87.48 77.2775 87.2987 77.5229 87.064L78.5469 88.072C78.0669 88.4347 77.5709 88.7067 77.0589 88.888C76.5575 89.0587 76.0029 89.144 75.3949 89.144ZM72.7389 84.248H77.5549C77.4909 83.8213 77.3415 83.448 77.1069 83.128C76.8829 82.7973 76.6002 82.5413 76.2589 82.36C75.9282 82.168 75.5655 82.072 75.1709 82.072C74.7655 82.072 74.3922 82.1627 74.0509 82.344C73.7095 82.5253 73.4215 82.7813 73.1869 83.112C72.9629 83.432 72.8135 83.8107 72.7389 84.248ZM80.3628 89V80.856H81.9628V81.64C82.5708 81.0107 83.3334 80.696 84.2508 80.696C84.8054 80.696 85.2961 80.8187 85.7228 81.064C86.1601 81.3093 86.5068 81.64 86.7628 82.056C87.1041 81.608 87.5041 81.272 87.9628 81.048C88.4214 80.8133 88.9388 80.696 89.5148 80.696C90.1228 80.696 90.6508 80.8293 91.0988 81.096C91.5574 81.3627 91.9148 81.736 92.1708 82.216C92.4374 82.696 92.5708 83.2507 92.5708 83.88V89H90.9708V84.152C90.9708 83.512 90.8001 83.0107 90.4588 82.648C90.1281 82.2747 89.6748 82.088 89.0988 82.088C88.7041 82.088 88.3468 82.1787 88.0268 82.36C87.7068 82.5413 87.4294 82.8187 87.1948 83.192C87.2161 83.2987 87.2321 83.4107 87.2428 83.528C87.2534 83.6453 87.2588 83.7627 87.2588 83.88V89H85.6748V84.152C85.6748 83.512 85.5041 83.0107 85.1628 82.648C84.8321 82.2747 84.3788 82.088 83.8028 82.088C83.4188 82.088 83.0721 82.1733 82.7628 82.344C82.4534 82.504 82.1868 82.7493 81.9628 83.08V89H80.3628ZM97.1835 89.16C96.5542 89.16 95.9995 89.0267 95.5195 88.76C95.0395 88.4933 94.6662 88.12 94.3995 87.64C94.1328 87.1493 93.9995 86.5893 93.9995 85.96V80.856H95.5835V85.688C95.5835 86.328 95.7648 86.8347 96.1275 87.208C96.5008 87.5813 96.9968 87.768 97.6155 87.768C98.0528 87.768 98.4422 87.6773 98.7835 87.496C99.1248 87.304 99.4022 87.0373 99.6155 86.696V80.856H101.216V89H99.6155V88.168C98.9862 88.8293 98.1755 89.16 97.1835 89.16ZM102.81 89V80.856H104.41V81.688C105.039 81.0267 105.855 80.696 106.858 80.696C107.487 80.696 108.036 80.8293 108.506 81.096C108.986 81.3627 109.359 81.736 109.626 82.216C109.903 82.696 110.042 83.2507 110.042 83.88V89H108.442V84.152C108.442 83.512 108.26 83.0107 107.898 82.648C107.546 82.2747 107.05 82.088 106.41 82.088C105.983 82.088 105.599 82.1787 105.258 82.36C104.916 82.5413 104.634 82.8027 104.41 83.144V89H102.81ZM115.492 89.144C114.692 89.144 113.966 88.9573 113.316 88.584C112.676 88.2107 112.164 87.704 111.78 87.064C111.406 86.424 111.22 85.7093 111.22 84.92C111.22 84.1413 111.401 83.4373 111.764 82.808C112.126 82.168 112.617 81.6613 113.236 81.288C113.854 80.904 114.542 80.712 115.3 80.712C116.057 80.712 116.729 80.904 117.316 81.288C117.902 81.6613 118.366 82.1733 118.708 82.824C119.06 83.464 119.236 84.1893 119.236 85V85.448H112.82C112.905 85.896 113.07 86.296 113.316 86.648C113.572 87 113.892 87.2773 114.276 87.48C114.67 87.6827 115.097 87.784 115.556 87.784C115.95 87.784 116.329 87.7253 116.692 87.608C117.065 87.48 117.374 87.2987 117.62 87.064L118.644 88.072C118.164 88.4347 117.668 88.7067 117.156 88.888C116.654 89.0587 116.1 89.144 115.492 89.144ZM112.836 84.248H117.652C117.588 83.8213 117.438 83.448 117.204 83.128C116.98 82.7973 116.697 82.5413 116.356 82.36C116.025 82.168 115.662 82.072 115.268 82.072C114.862 82.072 114.489 82.1627 114.148 82.344C113.806 82.5253 113.518 82.7813 113.284 83.112C113.06 83.432 112.91 83.8107 112.836 84.248ZM120.46 89V80.856H122.06V81.896C122.316 81.512 122.63 81.2133 123.004 81C123.388 80.776 123.82 80.664 124.3 80.664C124.63 80.6747 124.902 80.7227 125.116 80.808V82.248C124.966 82.184 124.812 82.1413 124.652 82.12C124.492 82.088 124.332 82.072 124.172 82.072C123.702 82.072 123.286 82.2 122.924 82.456C122.561 82.7013 122.273 83.064 122.06 83.544V89H120.46ZM128.345 89.144C127.758 89.144 127.241 89.0427 126.793 88.84C126.345 88.6267 125.993 88.3333 125.737 87.96C125.481 87.5867 125.353 87.1547 125.353 86.664C125.353 85.896 125.646 85.2933 126.233 84.856C126.82 84.408 127.625 84.184 128.649 84.184C129.449 84.184 130.19 84.3387 130.873 84.648V83.784C130.873 83.1973 130.702 82.76 130.361 82.472C130.03 82.184 129.54 82.04 128.889 82.04C128.516 82.04 128.126 82.0987 127.721 82.216C127.316 82.3227 126.862 82.4933 126.361 82.728L125.769 81.528C126.388 81.24 126.964 81.032 127.497 80.904C128.03 80.7653 128.569 80.696 129.113 80.696C130.169 80.696 130.985 80.9467 131.561 81.448C132.148 81.9493 132.441 82.664 132.441 83.592V89H130.873V88.296C130.51 88.584 130.121 88.7973 129.705 88.936C129.289 89.0747 128.836 89.144 128.345 89.144ZM126.889 86.632C126.889 87.0267 127.054 87.3467 127.385 87.592C127.726 87.8373 128.169 87.96 128.713 87.96C129.14 87.96 129.529 87.896 129.881 87.768C130.244 87.64 130.574 87.4427 130.873 87.176V85.8C130.564 85.6187 130.238 85.4907 129.897 85.416C129.566 85.3307 129.193 85.288 128.777 85.288C128.19 85.288 127.726 85.4107 127.385 85.656C127.054 85.8907 126.889 86.216 126.889 86.632ZM137.729 89.128C136.971 89.128 136.278 88.9413 135.649 88.568C135.019 88.1947 134.523 87.6933 134.161 87.064C133.798 86.424 133.617 85.7093 133.617 84.92C133.617 84.1307 133.798 83.4213 134.161 82.792C134.534 82.1627 135.035 81.6613 135.665 81.288C136.294 80.9147 136.993 80.728 137.761 80.728C138.209 80.728 138.641 80.7973 139.057 80.936C139.473 81.0747 139.857 81.2773 140.209 81.544V77.8L141.809 77.496V89H140.225V88.216C139.531 88.824 138.699 89.128 137.729 89.128ZM137.937 87.736C138.406 87.736 138.833 87.6507 139.217 87.48C139.611 87.3093 139.942 87.064 140.209 86.744V83.08C139.942 82.7813 139.611 82.5467 139.217 82.376C138.833 82.1947 138.406 82.104 137.937 82.104C137.425 82.104 136.961 82.2267 136.545 82.472C136.129 82.7173 135.798 83.0533 135.553 83.48C135.307 83.896 135.185 84.3707 135.185 84.904C135.185 85.4373 135.307 85.9173 135.553 86.344C135.798 86.7707 136.129 87.112 136.545 87.368C136.961 87.6133 137.425 87.736 137.937 87.736ZM145.979 89.144C145.393 89.144 144.875 89.0427 144.427 88.84C143.979 88.6267 143.627 88.3333 143.371 87.96C143.115 87.5867 142.987 87.1547 142.987 86.664C142.987 85.896 143.281 85.2933 143.867 84.856C144.454 84.408 145.259 84.184 146.283 84.184C147.083 84.184 147.825 84.3387 148.507 84.648V83.784C148.507 83.1973 148.337 82.76 147.995 82.472C147.665 82.184 147.174 82.04 146.523 82.04C146.15 82.04 145.761 82.0987 145.355 82.216C144.95 82.3227 144.497 82.4933 143.995 82.728L143.403 81.528C144.022 81.24 144.598 81.032 145.131 80.904C145.665 80.7653 146.203 80.696 146.747 80.696C147.803 80.696 148.619 80.9467 149.195 81.448C149.782 81.9493 150.075 82.664 150.075 83.592V89H148.507V88.296C148.145 88.584 147.755 88.7973 147.339 88.936C146.923 89.0747 146.47 89.144 145.979 89.144ZM144.523 86.632C144.523 87.0267 144.689 87.3467 145.019 87.592C145.361 87.8373 145.803 87.96 146.347 87.96C146.774 87.96 147.163 87.896 147.515 87.768C147.878 87.64 148.209 87.4427 148.507 87.176V85.8C148.198 85.6187 147.873 85.4907 147.531 85.416C147.201 85.3307 146.827 85.288 146.411 85.288C145.825 85.288 145.361 85.4107 145.019 85.656C144.689 85.8907 144.523 86.216 144.523 86.632Z" fill="#243A68"/>
<path d="M30.645 111V101.2H32.157L35.503 108.158L38.835 101.2H40.347V111H39.325V102.432L35.489 110.3L31.653 102.446V111H30.645ZM44.0778 111.126C43.5645 111.126 43.1118 111.037 42.7198 110.86C42.3371 110.683 42.0338 110.435 41.8098 110.118C41.5951 109.801 41.4878 109.432 41.4878 109.012C41.4878 108.349 41.7398 107.827 42.2438 107.444C42.7478 107.061 43.4291 106.87 44.2878 106.87C45.0438 106.87 45.7298 107.029 46.3458 107.346V106.422C46.3458 105.862 46.1871 105.442 45.8698 105.162C45.5525 104.873 45.0905 104.728 44.4838 104.728C44.1385 104.728 43.7885 104.779 43.4338 104.882C43.0885 104.975 42.7058 105.129 42.2858 105.344L41.8938 104.546C42.3978 104.303 42.8645 104.126 43.2938 104.014C43.7231 103.902 44.1525 103.846 44.5818 103.846C45.4685 103.846 46.1498 104.056 46.6258 104.476C47.1111 104.896 47.3538 105.498 47.3538 106.282V111H46.3458V110.314C46.0285 110.585 45.6785 110.79 45.2958 110.93C44.9225 111.061 44.5165 111.126 44.0778 111.126ZM42.4818 108.984C42.4818 109.376 42.6451 109.698 42.9718 109.95C43.3078 110.193 43.7371 110.314 44.2598 110.314C44.6798 110.314 45.0625 110.249 45.4078 110.118C45.7531 109.987 46.0658 109.782 46.3458 109.502V108.186C46.0565 107.99 45.7485 107.85 45.4218 107.766C45.0951 107.673 44.7265 107.626 44.3158 107.626C43.7558 107.626 43.3078 107.752 42.9718 108.004C42.6451 108.247 42.4818 108.573 42.4818 108.984ZM43.5738 102.6L44.8898 100.976H46.2198L44.4838 102.6H43.5738ZM51.0245 111.14C50.4459 111.14 49.8999 111.047 49.3865 110.86C48.8825 110.664 48.4439 110.393 48.0705 110.048L48.7005 109.376C49.0272 109.675 49.3865 109.908 49.7785 110.076C50.1705 110.235 50.5719 110.314 50.9825 110.314C51.5425 110.314 51.9999 110.197 52.3545 109.964C52.7092 109.731 52.8865 109.427 52.8865 109.054C52.8865 108.746 52.7792 108.508 52.5645 108.34C52.3592 108.163 52.0325 108.041 51.5845 107.976L50.3665 107.808C49.6665 107.705 49.1439 107.495 48.7985 107.178C48.4625 106.861 48.2945 106.431 48.2945 105.89C48.2945 105.498 48.4065 105.148 48.6305 104.84C48.8545 104.532 49.1625 104.289 49.5545 104.112C49.9559 103.935 50.4132 103.846 50.9265 103.846C51.4399 103.846 51.9205 103.921 52.3685 104.07C52.8165 104.219 53.2552 104.453 53.6845 104.77L53.1385 105.47C52.7465 105.199 52.3639 105.003 51.9905 104.882C51.6265 104.751 51.2532 104.686 50.8705 104.686C50.3852 104.686 49.9932 104.793 49.6945 105.008C49.3959 105.223 49.2465 105.503 49.2465 105.848C49.2465 106.165 49.3492 106.408 49.5545 106.576C49.7599 106.735 50.0912 106.847 50.5485 106.912L51.7665 107.08C52.4665 107.173 52.9892 107.379 53.3345 107.696C53.6892 108.013 53.8665 108.447 53.8665 108.998C53.8665 109.399 53.7405 109.763 53.4885 110.09C53.2365 110.417 52.8959 110.673 52.4665 110.86C52.0465 111.047 51.5659 111.14 51.0245 111.14ZM57.4404 113.856V103.986H58.4624V104.742C59.0691 104.163 59.8251 103.874 60.7304 103.874C61.3931 103.874 61.9904 104.037 62.5224 104.364C63.0544 104.681 63.4744 105.111 63.7824 105.652C64.0997 106.193 64.2584 106.805 64.2584 107.486C64.2584 108.167 64.0997 108.783 63.7824 109.334C63.4744 109.875 63.0544 110.309 62.5224 110.636C61.9904 110.953 61.3884 111.112 60.7164 111.112C60.3057 111.112 59.9091 111.042 59.5264 110.902C59.1437 110.762 58.7937 110.561 58.4764 110.3V113.856H57.4404ZM60.6324 110.202C61.1271 110.202 61.5704 110.085 61.9624 109.852C62.3544 109.609 62.6624 109.287 62.8864 108.886C63.1197 108.475 63.2364 108.013 63.2364 107.5C63.2364 106.987 63.1197 106.525 62.8864 106.114C62.6624 105.703 62.3544 105.381 61.9624 105.148C61.5704 104.905 61.1271 104.784 60.6324 104.784C60.1937 104.784 59.7831 104.873 59.4004 105.05C59.0271 105.218 58.7191 105.456 58.4764 105.764V109.236C58.7191 109.535 59.0317 109.773 59.4144 109.95C59.7971 110.118 60.2031 110.202 60.6324 110.202ZM68.6602 111.14C67.9975 111.14 67.3909 110.981 66.8402 110.664C66.2989 110.337 65.8695 109.899 65.5522 109.348C65.2349 108.797 65.0762 108.181 65.0762 107.5C65.0762 106.819 65.2349 106.203 65.5522 105.652C65.8695 105.101 66.2989 104.667 66.8402 104.35C67.3909 104.023 67.9975 103.86 68.6602 103.86C69.3322 103.86 69.9389 104.023 70.4802 104.35C71.0215 104.667 71.4509 105.101 71.7682 105.652C72.0855 106.203 72.2442 106.819 72.2442 107.5C72.2442 108.181 72.0855 108.797 71.7682 109.348C71.4509 109.899 71.0215 110.337 70.4802 110.664C69.9389 110.981 69.3322 111.14 68.6602 111.14ZM68.6602 110.216C69.1362 110.216 69.5655 110.095 69.9482 109.852C70.3402 109.609 70.6482 109.283 70.8722 108.872C71.1055 108.461 71.2222 108.004 71.2222 107.5C71.2222 106.987 71.1055 106.529 70.8722 106.128C70.6482 105.717 70.3402 105.391 69.9482 105.148C69.5655 104.905 69.1362 104.784 68.6602 104.784C68.1842 104.784 67.7502 104.905 67.3582 105.148C66.9755 105.391 66.6675 105.717 66.4342 106.128C66.2102 106.529 66.0982 106.987 66.0982 107.5C66.0982 108.004 66.2102 108.461 66.4342 108.872C66.6675 109.283 66.9755 109.609 67.3582 109.852C67.7502 110.095 68.1842 110.216 68.6602 110.216ZM73.3834 111V103.986H74.4194V104.98C74.634 104.616 74.9047 104.336 75.2314 104.14C75.5674 103.935 75.95 103.832 76.3794 103.832C76.622 103.832 76.8414 103.865 77.0374 103.93V104.882C76.916 104.835 76.7947 104.803 76.6734 104.784C76.552 104.765 76.4307 104.756 76.3094 104.756C75.88 104.756 75.502 104.882 75.1754 105.134C74.858 105.377 74.606 105.731 74.4194 106.198V111H73.3834ZM83.389 111.14C82.7824 111.14 82.3157 110.995 81.989 110.706C81.6624 110.417 81.499 109.997 81.499 109.446V104.868H79.987V103.986H81.499V102.208L82.521 101.942V103.986H84.635V104.868H82.521V109.18C82.521 109.553 82.605 109.824 82.773 109.992C82.941 110.151 83.2164 110.23 83.599 110.23C83.795 110.23 83.9677 110.216 84.117 110.188C84.2757 110.16 84.4437 110.113 84.621 110.048V110.958C84.4437 111.023 84.243 111.07 84.019 111.098C83.8044 111.126 83.5944 111.14 83.389 111.14ZM88.1323 111.14C87.6003 111.14 87.129 111.028 86.7183 110.804C86.3076 110.571 85.9856 110.253 85.7523 109.852C85.5283 109.441 85.4163 108.965 85.4163 108.424V103.986H86.4383V108.214C86.4383 108.839 86.6156 109.334 86.9703 109.698C87.325 110.053 87.801 110.23 88.3983 110.23C88.8183 110.23 89.1916 110.137 89.5183 109.95C89.8543 109.754 90.125 109.483 90.3303 109.138V103.986H91.3663V111H90.3303V110.188C89.7796 110.823 89.047 111.14 88.1323 111.14ZM98.7417 111.112C98.0884 111.112 97.491 110.953 96.9497 110.636C96.4177 110.309 95.993 109.875 95.6757 109.334C95.3677 108.783 95.2137 108.167 95.2137 107.486C95.2137 106.805 95.3677 106.193 95.6757 105.652C95.993 105.111 96.4177 104.681 96.9497 104.364C97.491 104.037 98.093 103.874 98.7557 103.874C99.1664 103.874 99.563 103.944 99.9457 104.084C100.328 104.215 100.678 104.411 100.996 104.672V101.2L102.032 100.962V111H101.01V110.258C100.394 110.827 99.6377 111.112 98.7417 111.112ZM98.8397 110.202C99.2784 110.202 99.6844 110.118 100.058 109.95C100.44 109.773 100.753 109.53 100.996 109.222V105.75C100.753 105.451 100.44 105.218 100.058 105.05C99.6844 104.873 99.2784 104.784 98.8397 104.784C98.3544 104.784 97.911 104.901 97.5097 105.134C97.1177 105.367 96.805 105.689 96.5717 106.1C96.3477 106.501 96.2357 106.959 96.2357 107.472C96.2357 107.985 96.3477 108.447 96.5717 108.858C96.805 109.269 97.1177 109.595 97.5097 109.838C97.911 110.081 98.3544 110.202 98.8397 110.202ZM103.494 111V103.986H104.53V111H103.494ZM104.012 102.642C103.825 102.642 103.662 102.572 103.522 102.432C103.382 102.292 103.312 102.129 103.312 101.942C103.312 101.746 103.382 101.583 103.522 101.452C103.662 101.312 103.825 101.242 104.012 101.242C104.208 101.242 104.371 101.312 104.502 101.452C104.642 101.583 104.712 101.746 104.712 101.942C104.712 102.129 104.642 102.292 104.502 102.432C104.371 102.572 104.208 102.642 104.012 102.642ZM105.996 111V103.986H107.032V104.812C107.583 104.168 108.32 103.846 109.244 103.846C109.776 103.846 110.243 103.963 110.644 104.196C111.055 104.42 111.372 104.737 111.596 105.148C111.83 105.549 111.946 106.021 111.946 106.562V111H110.924V106.772C110.924 106.147 110.747 105.657 110.392 105.302C110.047 104.938 109.571 104.756 108.964 104.756C108.544 104.756 108.171 104.849 107.844 105.036C107.518 105.223 107.247 105.489 107.032 105.834V111H105.996ZM116.67 111.126C115.998 111.126 115.387 110.967 114.836 110.65C114.295 110.323 113.861 109.885 113.534 109.334C113.217 108.783 113.058 108.167 113.058 107.486C113.058 106.814 113.212 106.207 113.52 105.666C113.828 105.115 114.243 104.681 114.766 104.364C115.289 104.037 115.872 103.874 116.516 103.874C117.141 103.874 117.701 104.037 118.196 104.364C118.7 104.681 119.097 105.115 119.386 105.666C119.685 106.207 119.834 106.814 119.834 107.486V107.808H114.08C114.136 108.265 114.281 108.676 114.514 109.04C114.757 109.404 115.069 109.693 115.452 109.908C115.835 110.113 116.255 110.216 116.712 110.216C117.076 110.216 117.431 110.16 117.776 110.048C118.121 109.936 118.411 109.777 118.644 109.572L119.288 110.258C118.896 110.547 118.485 110.767 118.056 110.916C117.636 111.056 117.174 111.126 116.67 111.126ZM114.108 106.982H118.798C118.742 106.562 118.602 106.189 118.378 105.862C118.163 105.526 117.893 105.265 117.566 105.078C117.239 104.882 116.88 104.784 116.488 104.784C116.087 104.784 115.718 104.877 115.382 105.064C115.046 105.251 114.766 105.512 114.542 105.848C114.318 106.175 114.173 106.553 114.108 106.982ZM120.982 111V103.986H122.018V104.98C122.233 104.616 122.504 104.336 122.83 104.14C123.166 103.935 123.549 103.832 123.978 103.832C124.221 103.832 124.44 103.865 124.636 103.93V104.882C124.515 104.835 124.394 104.803 124.272 104.784C124.151 104.765 124.03 104.756 123.908 104.756C123.479 104.756 123.101 104.882 122.774 105.134C122.457 105.377 122.205 105.731 122.018 106.198V111H120.982ZM128.292 111.14C127.629 111.14 127.023 110.981 126.472 110.664C125.931 110.337 125.501 109.899 125.184 109.348C124.867 108.797 124.708 108.181 124.708 107.5C124.708 106.819 124.867 106.203 125.184 105.652C125.501 105.101 125.931 104.667 126.472 104.35C127.023 104.023 127.629 103.86 128.292 103.86C128.964 103.86 129.571 104.023 130.112 104.35C130.653 104.667 131.083 105.101 131.4 105.652C131.717 106.203 131.876 106.819 131.876 107.5C131.876 108.181 131.717 108.797 131.4 109.348C131.083 109.899 130.653 110.337 130.112 110.664C129.571 110.981 128.964 111.14 128.292 111.14ZM128.292 110.216C128.768 110.216 129.197 110.095 129.58 109.852C129.972 109.609 130.28 109.283 130.504 108.872C130.737 108.461 130.854 108.004 130.854 107.5C130.854 106.987 130.737 106.529 130.504 106.128C130.28 105.717 129.972 105.391 129.58 105.148C129.197 104.905 128.768 104.784 128.292 104.784C127.816 104.784 127.382 104.905 126.99 105.148C126.607 105.391 126.299 105.717 126.066 106.128C125.842 106.529 125.73 106.987 125.73 107.5C125.73 108.004 125.842 108.461 126.066 108.872C126.299 109.283 126.607 109.609 126.99 109.852C127.382 110.095 127.816 110.216 128.292 110.216Z" fill="#243A68"/>
</svg>
