<svg width="163" height="132" viewBox="0 0 163 132" fill="none" xmlns="http://www.w3.org/2000/svg">
<rect x="0.599609" width="162" height="132" rx="8" fill="white"/>
<path d="M75.9524 36.1103C74.7325 36.1103 73.7099 35.4974 73.2936 33.9304H76.471V32.8443H73.1256C73.111 32.6504 73.1037 32.441 73.1037 32.2237C73.1037 32.022 73.111 31.8359 73.1256 31.6497H76.471V30.5481H73.2936C73.6953 28.9655 74.7252 28.3682 75.9524 28.3682C76.975 28.3682 77.793 28.9112 78.2897 29.9042L79.8967 28.8104C79.0421 27.4373 77.6397 26.5297 75.9597 26.5297C73.7172 26.5297 71.9058 27.864 71.3872 30.5481H70.2988V31.6497H71.2484C71.2411 31.8359 71.2338 32.0298 71.2338 32.2237C71.2338 32.4332 71.2411 32.6426 71.2557 32.8443H70.2988V33.9304H71.3872C71.9204 36.6068 73.7245 37.9566 75.9597 37.9566C77.6397 37.9566 79.0421 37.0334 79.8967 35.6526L78.2897 34.5665C77.8003 35.513 76.9969 36.1103 75.9524 36.1103Z" fill="#FE666F"/>
<path d="M87.0942 32.2431C87.0942 25.4814 81.7229 20 75.0969 20C68.471 20 63.0996 25.4814 63.0996 32.2431C63.0996 39.0049 68.471 44.4863 75.0969 44.4863C75.7782 44.4863 76.4462 44.4283 77.0965 44.317" stroke="#FE666F" stroke-width="1.6"/>
<path d="M87.8952 21.6324C93.9546 21.6324 98.8783 26.5338 99.0887 32.6562L97.3187 30.8523C96.9939 30.5218 96.4669 30.5218 96.1413 30.8523C95.8166 31.1837 95.8166 31.72 96.1413 32.0522L99.2966 35.2664C99.4646 35.4378 99.6861 35.517 99.9077 35.5104C100.127 35.5161 100.348 35.4378 100.516 35.2672L103.654 32.0693C103.977 31.7404 103.977 31.2057 103.654 30.876C103.331 30.5471 102.806 30.5471 102.483 30.876L100.693 32.7002C100.505 25.6555 94.8536 20 87.8952 20C87.4521 20 87.0938 20.3648 87.0938 20.8162C87.0938 21.2668 87.4521 21.6324 87.8952 21.6324Z" fill="#FE666F"/>
<path d="M63.9073 47.341C64.1177 53.4633 69.0414 58.3647 75.1008 58.3647C75.5439 58.3647 75.9023 58.7295 75.9023 59.1809C75.9023 59.6314 75.5439 59.9971 75.1008 59.9971C68.1416 59.9971 62.4909 54.3416 62.3029 47.2969L60.5129 49.1211C60.1898 49.45 59.6651 49.45 59.342 49.1211C59.0188 48.7914 59.0188 48.2567 59.342 47.9278L62.4805 44.7291C62.6476 44.5585 62.8692 44.4801 63.0883 44.4867C63.3099 44.4801 63.5314 44.5593 63.6994 44.7307L66.8547 47.945C67.1794 48.2772 67.1794 48.8134 66.8547 49.1448C66.5291 49.4753 66.0021 49.4753 65.6773 49.1448L63.9073 47.341Z" fill="#FE666F"/>
<path d="M81.3509 46.3583H103.433C103.681 46.3583 103.913 46.194 103.998 45.933C104.082 45.6719 103.994 45.3929 103.798 45.2328L92.7572 36.2357C92.6564 36.1533 92.5299 36.1039 92.3922 36.1039C92.2546 36.1039 92.1281 36.1533 92.0269 36.2357L80.9861 45.2328C80.7894 45.3928 80.7015 45.6718 80.786 45.933C80.8712 46.194 81.1028 46.3583 81.3509 46.3583ZM92.3922 38.0606L100.754 44.8881H84.0216L92.3922 38.0606Z" fill="#FE666F"/>
<path d="M86.1721 48.0158C86.1721 47.5587 85.9268 47.1852 85.6272 47.1852H83.5159C83.2162 47.1852 82.9707 47.5586 82.9707 48.0158C82.9707 48.4724 83.2161 48.8464 83.5159 48.8464V55.4912H83.1018C83.0297 55.4912 82.9707 55.5806 82.9707 55.6902V56.0886C82.9707 56.1983 83.0296 56.2881 83.1018 56.2881H86.0414C86.1133 56.2881 86.1721 56.1983 86.1721 56.0886V55.6902C86.1721 55.5804 86.1132 55.4912 86.0414 55.4912H85.6272V48.8464C85.9268 48.8464 86.1721 48.4724 86.1721 48.0158Z" fill="#FE666F"/>
<path d="M90.922 55.4912C90.8498 55.4912 90.791 55.5806 90.791 55.6902V56.0886C90.791 56.1983 90.8498 56.2881 90.922 56.2881H93.8616C93.9336 56.2881 93.9925 56.1983 93.9925 56.0886V55.6902C93.9924 55.5804 93.9335 55.4912 93.8615 55.4912H93.4475V48.8464C93.7471 48.8464 93.9924 48.4724 93.9924 48.0158C93.9924 47.5587 93.7471 47.1852 93.4475 47.1852H91.336C91.0362 47.1852 90.791 47.5586 90.791 48.0158C90.791 48.4724 91.0362 48.8464 91.336 48.8464V55.4912H90.922Z" fill="#FE666F"/>
<path d="M101.813 48.1604C101.813 47.7032 101.567 47.3297 101.268 47.3297H99.1563C98.8567 47.3297 98.6113 47.7031 98.6113 48.1604C98.6113 48.6169 98.8567 48.9909 99.1563 48.9909V55.6357H98.742C98.6704 55.6357 98.6113 55.7251 98.6113 55.8347V56.2331C98.6113 56.3429 98.6704 56.4326 98.742 56.4326H101.682C101.754 56.4326 101.813 56.3429 101.813 56.2331V55.8347C101.813 55.725 101.754 55.6357 101.682 55.6357H101.268V48.9909C101.567 48.9909 101.813 48.6169 101.813 48.1604Z" fill="#FE666F"/>
<path d="M103.985 58.6822C103.91 58.6023 103.81 58.5618 103.71 58.5618H102.149V57.5347C102.149 57.4292 102.111 57.324 102.034 57.244C101.958 57.1635 101.858 57.1237 101.758 57.1237H83.0255C82.9256 57.1237 82.8256 57.1633 82.7494 57.244C82.6734 57.324 82.6351 57.4292 82.6351 57.5347V58.5618H81.0739C80.9738 58.5618 80.874 58.6021 80.7979 58.6822C80.7216 58.7627 80.6836 58.8678 80.6836 58.9729V60.0001H104.1V58.9729C104.1 58.8678 104.062 58.7627 103.985 58.6822Z" fill="#FE666F"/>
<path d="M48.5062 87.496H50.8102C51.3969 87.496 51.9409 87.3947 52.4422 87.192C52.9436 86.9787 53.3809 86.6907 53.7542 86.328C54.1382 85.9547 54.4316 85.5227 54.6342 85.032C54.8476 84.5307 54.9542 83.9867 54.9542 83.4C54.9542 82.824 54.8476 82.2853 54.6342 81.784C54.4316 81.2827 54.1382 80.8507 53.7542 80.488C53.3809 80.1147 52.9436 79.8267 52.4422 79.624C51.9409 79.4107 51.3969 79.304 50.8102 79.304H48.5062V87.496ZM46.8262 89V77.8H50.7782C51.6209 77.8 52.3996 77.944 53.1142 78.232C53.8289 78.5093 54.4529 78.8987 54.9862 79.4C55.5196 79.9013 55.9356 80.4933 56.2342 81.176C56.5329 81.8587 56.6822 82.6 56.6822 83.4C56.6822 84.2107 56.5329 84.9573 56.2342 85.64C55.9462 86.312 55.5356 86.8987 55.0022 87.4C54.4689 87.9013 53.8396 88.296 53.1142 88.584C52.3996 88.8613 51.6209 89 50.7782 89H46.8262ZM61.8632 89.144C61.0632 89.144 60.3379 88.9573 59.6872 88.584C59.0472 88.2107 58.5352 87.704 58.1512 87.064C57.7779 86.424 57.5912 85.7093 57.5912 84.92C57.5912 84.1413 57.7726 83.4373 58.1352 82.808C58.4979 82.168 58.9886 81.6613 59.6072 81.288C60.2259 80.904 60.9139 80.712 61.6712 80.712C62.4286 80.712 63.1006 80.904 63.6872 81.288C64.2739 81.6613 64.7379 82.1733 65.0792 82.824C65.4312 83.464 65.6072 84.1893 65.6072 85V85.448H59.1912C59.2766 85.896 59.4419 86.296 59.6872 86.648C59.9432 87 60.2632 87.2773 60.6472 87.48C61.0419 87.6827 61.4686 87.784 61.9272 87.784C62.3219 87.784 62.7006 87.7253 63.0632 87.608C63.4366 87.48 63.7459 87.2987 63.9912 87.064L65.0152 88.072C64.5352 88.4347 64.0392 88.7067 63.5272 88.888C63.0259 89.0587 62.4712 89.144 61.8632 89.144ZM59.2072 84.248H64.0232C63.9592 83.8213 63.8099 83.448 63.5752 83.128C63.3512 82.7973 63.0686 82.5413 62.7272 82.36C62.3966 82.168 62.0339 82.072 61.6392 82.072C61.2339 82.072 60.8606 82.1627 60.5192 82.344C60.1779 82.5253 59.8899 82.7813 59.6552 83.112C59.4312 83.432 59.2819 83.8107 59.2072 84.248ZM66.8311 92.264V80.856H68.4151V81.64C69.0978 81.032 69.9298 80.728 70.9111 80.728C71.6791 80.728 72.3724 80.9147 72.9911 81.288C73.6204 81.6613 74.1164 82.1627 74.4791 82.792C74.8418 83.4213 75.0231 84.1307 75.0231 84.92C75.0231 85.7093 74.8364 86.424 74.4631 87.064C74.1004 87.6933 73.6044 88.1947 72.9751 88.568C72.3564 88.9413 71.6578 89.128 70.8791 89.128C70.4311 89.128 69.9991 89.0587 69.5831 88.92C69.1671 88.7707 68.7831 88.5627 68.4311 88.296V92.264H66.8311ZM70.7031 87.736C71.2258 87.736 71.6898 87.6133 72.0951 87.368C72.5111 87.1227 72.8418 86.792 73.0871 86.376C73.3324 85.9493 73.4551 85.4693 73.4551 84.936C73.4551 84.4027 73.3324 83.9227 73.0871 83.496C72.8418 83.0693 72.5111 82.7333 72.0951 82.488C71.6898 82.2427 71.2258 82.12 70.7031 82.12C70.2444 82.12 69.8178 82.2053 69.4231 82.376C69.0284 82.5467 68.6978 82.7867 68.4311 83.096V86.776C68.6978 87.0747 69.0284 87.3093 69.4231 87.48C69.8284 87.6507 70.2551 87.736 70.7031 87.736ZM80.1219 89.16C79.3325 89.16 78.6125 88.9733 77.9619 88.6C77.3219 88.2267 76.8152 87.72 76.4419 87.08C76.0685 86.44 75.8819 85.7253 75.8819 84.936C75.8819 84.1467 76.0685 83.432 76.4419 82.792C76.8152 82.152 77.3219 81.6453 77.9619 81.272C78.6125 80.888 79.3325 80.696 80.1219 80.696C80.9219 80.696 81.6419 80.888 82.2819 81.272C82.9219 81.6453 83.4285 82.152 83.8019 82.792C84.1752 83.432 84.3619 84.1467 84.3619 84.936C84.3619 85.7253 84.1752 86.44 83.8019 87.08C83.4285 87.72 82.9219 88.2267 82.2819 88.6C81.6419 88.9733 80.9219 89.16 80.1219 89.16ZM80.1219 87.752C80.6232 87.752 81.0765 87.6293 81.4819 87.384C81.8872 87.128 82.2072 86.7867 82.4419 86.36C82.6765 85.9333 82.7939 85.4533 82.7939 84.92C82.7939 84.3973 82.6712 83.928 82.4259 83.512C82.1912 83.0853 81.8712 82.744 81.4659 82.488C81.0712 82.232 80.6232 82.104 80.1219 82.104C79.6205 82.104 79.1672 82.232 78.7619 82.488C78.3672 82.744 78.0472 83.0853 77.8019 83.512C77.5672 83.928 77.4499 84.3973 77.4499 84.92C77.4499 85.4533 77.5672 85.9333 77.8019 86.36C78.0365 86.7867 78.3565 87.128 78.7619 87.384C79.1672 87.6293 79.6205 87.752 80.1219 87.752ZM78.9859 79.352L80.4579 77.4H82.3779L80.3299 79.352H78.9859ZM88.3749 89.16C87.6709 89.16 87.0095 89.0587 86.3909 88.856C85.7829 88.6427 85.2549 88.344 84.8069 87.96L85.6869 86.904C86.1029 87.2347 86.5295 87.4907 86.9669 87.672C87.4149 87.8427 87.8682 87.928 88.3269 87.928C88.9029 87.928 89.3722 87.816 89.7349 87.592C90.0975 87.368 90.2789 87.0747 90.2789 86.712C90.2789 86.4133 90.1722 86.1787 89.9589 86.008C89.7455 85.8373 89.4149 85.72 88.9669 85.656L87.4949 85.448C86.6842 85.3307 86.0762 85.08 85.6709 84.696C85.2655 84.312 85.0629 83.8 85.0629 83.16C85.0629 82.6693 85.1962 82.2427 85.4629 81.88C85.7295 81.5067 86.1029 81.2187 86.5829 81.016C87.0629 80.8027 87.6229 80.696 88.2629 80.696C88.8495 80.696 89.4149 80.7813 89.9589 80.952C90.5029 81.1227 91.0255 81.3893 91.5269 81.752L90.7109 82.808C90.2629 82.5093 89.8255 82.2907 89.3989 82.152C88.9829 82.0133 88.5615 81.944 88.1349 81.944C87.6442 81.944 87.2495 82.0507 86.9509 82.264C86.6522 82.4667 86.5029 82.7333 86.5029 83.064C86.5029 83.3627 86.6042 83.5973 86.8069 83.768C87.0202 83.928 87.3669 84.04 87.8469 84.104L89.3189 84.312C90.1295 84.4293 90.7429 84.68 91.1589 85.064C91.5749 85.4373 91.7829 85.944 91.7829 86.584C91.7829 87.0747 91.6335 87.5173 91.3349 87.912C91.0362 88.296 90.6309 88.6 90.1189 88.824C89.6069 89.048 89.0255 89.16 88.3749 89.16ZM92.7124 89V80.856H94.3124V89H92.7124ZM93.5124 79.544C93.2457 79.544 93.0164 79.448 92.8244 79.256C92.6324 79.0533 92.5364 78.8187 92.5364 78.552C92.5364 78.2747 92.6324 78.0453 92.8244 77.864C93.0164 77.672 93.2457 77.576 93.5124 77.576C93.7897 77.576 94.0244 77.672 94.2164 77.864C94.4084 78.0453 94.5044 78.2747 94.5044 78.552C94.5044 78.8187 94.4084 79.0533 94.2164 79.256C94.0244 79.448 93.7897 79.544 93.5124 79.544ZM99.3847 89.144C98.5954 89.144 97.9927 88.9627 97.5767 88.6C97.1607 88.2267 96.9527 87.688 96.9527 86.984V82.2H95.2247V80.856H96.9527V78.776L98.5367 78.392V80.856H100.937V82.2H98.5367V86.616C98.5367 87.032 98.6274 87.3307 98.8087 87.512C99.0007 87.6827 99.3101 87.768 99.7367 87.768C99.9607 87.768 100.158 87.752 100.329 87.72C100.51 87.688 100.702 87.64 100.905 87.576V88.92C100.691 88.9947 100.441 89.048 100.153 89.08C99.8754 89.1227 99.6194 89.144 99.3847 89.144ZM105.562 89.16C104.773 89.16 104.053 88.9733 103.402 88.6C102.762 88.2267 102.256 87.72 101.882 87.08C101.509 86.44 101.322 85.7253 101.322 84.936C101.322 84.1467 101.509 83.432 101.882 82.792C102.256 82.152 102.762 81.6453 103.402 81.272C104.053 80.888 104.773 80.696 105.562 80.696C106.362 80.696 107.082 80.888 107.722 81.272C108.362 81.6453 108.869 82.152 109.242 82.792C109.616 83.432 109.802 84.1467 109.802 84.936C109.802 85.7253 109.616 86.44 109.242 87.08C108.869 87.72 108.362 88.2267 107.722 88.6C107.082 88.9733 106.362 89.16 105.562 89.16ZM105.562 87.752C106.064 87.752 106.517 87.6293 106.922 87.384C107.328 87.128 107.648 86.7867 107.882 86.36C108.117 85.9333 108.234 85.4533 108.234 84.92C108.234 84.3973 108.112 83.928 107.866 83.512C107.632 83.0853 107.312 82.744 106.906 82.488C106.512 82.232 106.064 82.104 105.562 82.104C105.061 82.104 104.608 82.232 104.202 82.488C103.808 82.744 103.488 83.0853 103.242 83.512C103.008 83.928 102.89 84.3973 102.89 84.92C102.89 85.4533 103.008 85.9333 103.242 86.36C103.477 86.7867 103.797 87.128 104.202 87.384C104.608 87.6293 105.061 87.752 105.562 87.752ZM113.815 89.16C113.111 89.16 112.45 89.0587 111.831 88.856C111.223 88.6427 110.695 88.344 110.247 87.96L111.127 86.904C111.543 87.2347 111.97 87.4907 112.407 87.672C112.855 87.8427 113.309 87.928 113.767 87.928C114.343 87.928 114.813 87.816 115.175 87.592C115.538 87.368 115.719 87.0747 115.719 86.712C115.719 86.4133 115.613 86.1787 115.399 86.008C115.186 85.8373 114.855 85.72 114.407 85.656L112.935 85.448C112.125 85.3307 111.517 85.08 111.111 84.696C110.706 84.312 110.503 83.8 110.503 83.16C110.503 82.6693 110.637 82.2427 110.903 81.88C111.17 81.5067 111.543 81.2187 112.023 81.016C112.503 80.8027 113.063 80.696 113.703 80.696C114.29 80.696 114.855 80.7813 115.399 80.952C115.943 81.1227 116.466 81.3893 116.967 81.752L116.151 82.808C115.703 82.5093 115.266 82.2907 114.839 82.152C114.423 82.0133 114.002 81.944 113.575 81.944C113.085 81.944 112.69 82.0507 112.391 82.264C112.093 82.4667 111.943 82.7333 111.943 83.064C111.943 83.3627 112.045 83.5973 112.247 83.768C112.461 83.928 112.807 84.04 113.287 84.104L114.759 84.312C115.57 84.4293 116.183 84.68 116.599 85.064C117.015 85.4373 117.223 85.944 117.223 86.584C117.223 87.0747 117.074 87.5173 116.775 87.912C116.477 88.296 116.071 88.6 115.559 88.824C115.047 89.048 114.466 89.16 113.815 89.16Z" fill="#243A68"/>
<path d="M26.949 111.154C26.2396 111.154 25.577 111.028 24.961 110.776C24.345 110.515 23.8036 110.155 23.337 109.698C22.8703 109.231 22.5063 108.695 22.245 108.088C21.993 107.472 21.867 106.809 21.867 106.1C21.867 105.391 21.993 104.733 22.245 104.126C22.5063 103.51 22.8703 102.973 23.337 102.516C23.8036 102.049 24.345 101.69 24.961 101.438C25.577 101.177 26.2396 101.046 26.949 101.046C27.4623 101.046 27.9523 101.111 28.419 101.242C28.895 101.363 29.3336 101.545 29.735 101.788C30.1456 102.021 30.5096 102.311 30.827 102.656L30.113 103.412C29.7303 102.973 29.259 102.637 28.699 102.404C28.139 102.161 27.5556 102.04 26.949 102.04C26.3796 102.04 25.8523 102.143 25.367 102.348C24.8816 102.553 24.457 102.843 24.093 103.216C23.7383 103.58 23.4583 104.009 23.253 104.504C23.057 104.989 22.959 105.521 22.959 106.1C22.959 106.669 23.057 107.201 23.253 107.696C23.4583 108.191 23.743 108.625 24.107 108.998C24.471 109.362 24.8956 109.647 25.381 109.852C25.8756 110.057 26.4076 110.16 26.977 110.16C27.5836 110.16 28.1623 110.043 28.713 109.81C29.2636 109.567 29.7256 109.236 30.099 108.816L30.799 109.544C30.4723 109.88 30.1036 110.169 29.693 110.412C29.2916 110.655 28.8576 110.841 28.391 110.972C27.9243 111.093 27.4436 111.154 26.949 111.154ZM34.9934 111.14C34.3307 111.14 33.7241 110.981 33.1734 110.664C32.6321 110.337 32.2027 109.899 31.8854 109.348C31.5681 108.797 31.4094 108.181 31.4094 107.5C31.4094 106.819 31.5681 106.203 31.8854 105.652C32.2027 105.101 32.6321 104.667 33.1734 104.35C33.7241 104.023 34.3307 103.86 34.9934 103.86C35.6654 103.86 36.2721 104.023 36.8134 104.35C37.3547 104.667 37.7841 105.101 38.1014 105.652C38.4187 106.203 38.5774 106.819 38.5774 107.5C38.5774 108.181 38.4187 108.797 38.1014 109.348C37.7841 109.899 37.3547 110.337 36.8134 110.664C36.2721 110.981 35.6654 111.14 34.9934 111.14ZM34.9934 110.216C35.4694 110.216 35.8987 110.095 36.2814 109.852C36.6734 109.609 36.9814 109.283 37.2054 108.872C37.4387 108.461 37.5554 108.004 37.5554 107.5C37.5554 106.987 37.4387 106.529 37.2054 106.128C36.9814 105.717 36.6734 105.391 36.2814 105.148C35.8987 104.905 35.4694 104.784 34.9934 104.784C34.5174 104.784 34.0834 104.905 33.6914 105.148C33.3087 105.391 33.0007 105.717 32.7674 106.128C32.5434 106.529 32.4314 106.987 32.4314 107.5C32.4314 108.004 32.5434 108.461 32.7674 108.872C33.0007 109.283 33.3087 109.609 33.6914 109.852C34.0834 110.095 34.5174 110.216 34.9934 110.216ZM39.7166 111V103.986H40.7526V104.812C41.3032 104.168 42.0406 103.846 42.9646 103.846C43.4966 103.846 43.9632 103.963 44.3646 104.196C44.7752 104.42 45.0926 104.737 45.3166 105.148C45.5499 105.549 45.6666 106.021 45.6666 106.562V111H44.6446V106.772C44.6446 106.147 44.4672 105.657 44.1126 105.302C43.7672 104.938 43.2912 104.756 42.6846 104.756C42.2646 104.756 41.8912 104.849 41.5646 105.036C41.2379 105.223 40.9672 105.489 40.7526 105.834V111H39.7166ZM52.02 111.126C51.5066 111.126 51.054 111.037 50.662 110.86C50.2793 110.683 49.976 110.435 49.752 110.118C49.5373 109.801 49.43 109.432 49.43 109.012C49.43 108.349 49.682 107.827 50.186 107.444C50.69 107.061 51.3713 106.87 52.23 106.87C52.986 106.87 53.672 107.029 54.288 107.346V106.422C54.288 105.862 54.1293 105.442 53.812 105.162C53.4946 104.873 53.0326 104.728 52.426 104.728C52.0806 104.728 51.7306 104.779 51.376 104.882C51.0306 104.975 50.648 105.129 50.228 105.344L49.836 104.546C50.34 104.303 50.8066 104.126 51.236 104.014C51.6653 103.902 52.0946 103.846 52.524 103.846C53.4106 103.846 54.092 104.056 54.568 104.476C55.0533 104.896 55.296 105.498 55.296 106.282V111H54.288V110.314C53.9706 110.585 53.6206 110.79 53.238 110.93C52.8646 111.061 52.4586 111.126 52.02 111.126ZM50.424 108.984C50.424 109.376 50.5873 109.698 50.914 109.95C51.25 110.193 51.6793 110.314 52.202 110.314C52.622 110.314 53.0046 110.249 53.35 110.118C53.6953 109.987 54.008 109.782 54.288 109.502V108.186C53.9986 107.99 53.6906 107.85 53.364 107.766C53.0373 107.673 52.6686 107.626 52.258 107.626C51.698 107.626 51.25 107.752 50.914 108.004C50.5873 108.247 50.424 108.573 50.424 108.984ZM56.7267 111V101.2L57.7627 100.962V111H56.7267ZM61.9875 111.14C61.3808 111.14 60.9141 110.995 60.5875 110.706C60.2608 110.417 60.0975 109.997 60.0975 109.446V104.868H58.5855V103.986H60.0975V102.208L61.1195 101.942V103.986H63.2335V104.868H61.1195V109.18C61.1195 109.553 61.2035 109.824 61.3715 109.992C61.5395 110.151 61.8148 110.23 62.1975 110.23C62.3935 110.23 62.5661 110.216 62.7155 110.188C62.8741 110.16 63.0421 110.113 63.2195 110.048V110.958C63.0421 111.023 62.8415 111.07 62.6175 111.098C62.4028 111.126 62.1928 111.14 61.9875 111.14ZM66.2547 111.126C65.7414 111.126 65.2887 111.037 64.8967 110.86C64.5141 110.683 64.2107 110.435 63.9867 110.118C63.7721 109.801 63.6647 109.432 63.6647 109.012C63.6647 108.349 63.9167 107.827 64.4207 107.444C64.9247 107.061 65.6061 106.87 66.4647 106.87C67.2207 106.87 67.9067 107.029 68.5227 107.346V106.422C68.5227 105.862 68.3641 105.442 68.0467 105.162C67.7294 104.873 67.2674 104.728 66.6607 104.728C66.3154 104.728 65.9654 104.779 65.6107 104.882C65.2654 104.975 64.8827 105.129 64.4627 105.344L64.0707 104.546C64.5747 104.303 65.0414 104.126 65.4707 104.014C65.9001 103.902 66.3294 103.846 66.7587 103.846C67.6454 103.846 68.3267 104.056 68.8027 104.476C69.2881 104.896 69.5307 105.498 69.5307 106.282V111H68.5227V110.314C68.2054 110.585 67.8554 110.79 67.4727 110.93C67.0994 111.061 66.6934 111.126 66.2547 111.126ZM64.6587 108.984C64.6587 109.376 64.8221 109.698 65.1487 109.95C65.4847 110.193 65.9141 110.314 66.4367 110.314C66.8567 110.314 67.2394 110.249 67.5847 110.118C67.9301 109.987 68.2427 109.782 68.5227 109.502V108.186C68.2334 107.99 67.9254 107.85 67.5987 107.766C67.2721 107.673 66.9034 107.626 66.4927 107.626C65.9327 107.626 65.4847 107.752 65.1487 108.004C64.8221 108.247 64.6587 108.573 64.6587 108.984ZM73.6693 111V103.986H74.7053V104.98C74.92 104.616 75.1906 104.336 75.5173 104.14C75.8533 103.935 76.236 103.832 76.6653 103.832C76.908 103.832 77.1273 103.865 77.3233 103.93V104.882C77.202 104.835 77.0806 104.803 76.9593 104.784C76.838 104.765 76.7166 104.756 76.5953 104.756C76.166 104.756 75.788 104.882 75.4613 105.134C75.144 105.377 74.892 105.731 74.7053 106.198V111H73.6693ZM81.007 111.126C80.335 111.126 79.7236 110.967 79.173 110.65C78.6316 110.323 78.1976 109.885 77.871 109.334C77.5536 108.783 77.395 108.167 77.395 107.486C77.395 106.814 77.549 106.207 77.857 105.666C78.165 105.115 78.5803 104.681 79.103 104.364C79.6256 104.037 80.209 103.874 80.853 103.874C81.4783 103.874 82.0383 104.037 82.533 104.364C83.037 104.681 83.4336 105.115 83.723 105.666C84.0216 106.207 84.171 106.814 84.171 107.486V107.808H78.417C78.473 108.265 78.6176 108.676 78.851 109.04C79.0936 109.404 79.4063 109.693 79.789 109.908C80.1716 110.113 80.5916 110.216 81.049 110.216C81.413 110.216 81.7676 110.16 82.113 110.048C82.4583 109.936 82.7476 109.777 82.981 109.572L83.625 110.258C83.233 110.547 82.8223 110.767 82.393 110.916C81.973 111.056 81.511 111.126 81.007 111.126ZM78.445 106.982H83.135C83.079 106.562 82.939 106.189 82.715 105.862C82.5003 105.526 82.2296 105.265 81.903 105.078C81.5763 104.882 81.217 104.784 80.825 104.784C80.4236 104.784 80.055 104.877 79.719 105.064C79.383 105.251 79.103 105.512 78.879 105.848C78.655 106.175 78.5103 106.553 78.445 106.982ZM85.3193 111V103.986H86.3553V104.812C86.906 104.168 87.6433 103.846 88.5673 103.846C89.0993 103.846 89.566 103.963 89.9673 104.196C90.378 104.42 90.6953 104.737 90.9193 105.148C91.1526 105.549 91.2693 106.021 91.2693 106.562V111H90.2473V106.772C90.2473 106.147 90.07 105.657 89.7153 105.302C89.37 104.938 88.894 104.756 88.2873 104.756C87.8673 104.756 87.494 104.849 87.1673 105.036C86.8406 105.223 86.57 105.489 86.3553 105.834V111H85.3193ZM95.2558 111.14C94.6492 111.14 94.1825 110.995 93.8558 110.706C93.5292 110.417 93.3658 109.997 93.3658 109.446V104.868H91.8538V103.986H93.3658V102.208L94.3878 101.942V103.986H96.5018V104.868H94.3878V109.18C94.3878 109.553 94.4718 109.824 94.6398 109.992C94.8078 110.151 95.0832 110.23 95.4658 110.23C95.6618 110.23 95.8345 110.216 95.9838 110.188C96.1425 110.16 96.3105 110.113 96.4878 110.048V110.958C96.3105 111.023 96.1098 111.07 95.8858 111.098C95.6712 111.126 95.4612 111.14 95.2558 111.14ZM99.5231 111.126C99.0098 111.126 98.5571 111.037 98.1651 110.86C97.7824 110.683 97.4791 110.435 97.2551 110.118C97.0404 109.801 96.9331 109.432 96.9331 109.012C96.9331 108.349 97.1851 107.827 97.6891 107.444C98.1931 107.061 98.8744 106.87 99.7331 106.87C100.489 106.87 101.175 107.029 101.791 107.346V106.422C101.791 105.862 101.632 105.442 101.315 105.162C100.998 104.873 100.536 104.728 99.9291 104.728C99.5838 104.728 99.2338 104.779 98.8791 104.882C98.5338 104.975 98.1511 105.129 97.7311 105.344L97.3391 104.546C97.8431 104.303 98.3098 104.126 98.7391 104.014C99.1684 103.902 99.5978 103.846 100.027 103.846C100.914 103.846 101.595 104.056 102.071 104.476C102.556 104.896 102.799 105.498 102.799 106.282V111H101.791V110.314C101.474 110.585 101.124 110.79 100.741 110.93C100.368 111.061 99.9618 111.126 99.5231 111.126ZM97.9271 108.984C97.9271 109.376 98.0904 109.698 98.4171 109.95C98.7531 110.193 99.1824 110.314 99.7051 110.314C100.125 110.314 100.508 110.249 100.853 110.118C101.198 109.987 101.511 109.782 101.791 109.502V108.186C101.502 107.99 101.194 107.85 100.867 107.766C100.54 107.673 100.172 107.626 99.7611 107.626C99.2011 107.626 98.7531 107.752 98.4171 108.004C98.0904 108.247 97.9271 108.573 97.9271 108.984ZM104.23 111V101.2L105.266 100.962V104.728C105.863 104.159 106.615 103.874 107.52 103.874C108.183 103.874 108.78 104.037 109.312 104.364C109.844 104.681 110.264 105.111 110.572 105.652C110.889 106.193 111.048 106.805 111.048 107.486C111.048 108.167 110.889 108.783 110.572 109.334C110.264 109.875 109.844 110.309 109.312 110.636C108.78 110.953 108.178 111.112 107.506 111.112C107.095 111.112 106.694 111.042 106.302 110.902C105.919 110.762 105.569 110.561 105.252 110.3V111H104.23ZM107.422 110.202C107.917 110.202 108.36 110.085 108.752 109.852C109.144 109.609 109.452 109.287 109.676 108.886C109.909 108.475 110.026 108.013 110.026 107.5C110.026 106.987 109.909 106.525 109.676 106.114C109.452 105.703 109.144 105.381 108.752 105.148C108.36 104.905 107.917 104.784 107.422 104.784C106.983 104.784 106.573 104.873 106.19 105.05C105.817 105.218 105.509 105.456 105.266 105.764V109.236C105.509 109.535 105.821 109.773 106.204 109.95C106.587 110.118 106.993 110.202 107.422 110.202ZM112.188 111V103.986H113.224V111H112.188ZM112.706 102.642C112.519 102.642 112.356 102.572 112.216 102.432C112.076 102.292 112.006 102.129 112.006 101.942C112.006 101.746 112.076 101.583 112.216 101.452C112.356 101.312 112.519 101.242 112.706 101.242C112.902 101.242 113.065 101.312 113.196 101.452C113.336 101.583 113.406 101.746 113.406 101.942C113.406 102.129 113.336 102.292 113.196 102.432C113.065 102.572 112.902 102.642 112.706 102.642ZM114.69 111V101.2L115.726 100.962V111H114.69ZM117.193 111V103.986H118.229V111H117.193ZM117.711 102.642C117.524 102.642 117.361 102.572 117.221 102.432C117.081 102.292 117.011 102.129 117.011 101.942C117.011 101.746 117.081 101.583 117.221 101.452C117.361 101.312 117.524 101.242 117.711 101.242C117.907 101.242 118.07 101.312 118.201 101.452C118.341 101.583 118.411 101.746 118.411 101.942C118.411 102.129 118.341 102.292 118.201 102.432C118.07 102.572 117.907 102.642 117.711 102.642ZM122.902 111.112C122.249 111.112 121.651 110.953 121.11 110.636C120.578 110.309 120.153 109.875 119.836 109.334C119.528 108.783 119.374 108.167 119.374 107.486C119.374 106.805 119.528 106.193 119.836 105.652C120.153 105.111 120.578 104.681 121.11 104.364C121.651 104.037 122.253 103.874 122.916 103.874C123.327 103.874 123.723 103.944 124.106 104.084C124.489 104.215 124.839 104.411 125.156 104.672V101.2L126.192 100.962V111H125.17V110.258C124.554 110.827 123.798 111.112 122.902 111.112ZM123 110.202C123.439 110.202 123.845 110.118 124.218 109.95C124.601 109.773 124.913 109.53 125.156 109.222V105.75C124.913 105.451 124.601 105.218 124.218 105.05C123.845 104.873 123.439 104.784 123 104.784C122.515 104.784 122.071 104.901 121.67 105.134C121.278 105.367 120.965 105.689 120.732 106.1C120.508 106.501 120.396 106.959 120.396 107.472C120.396 107.985 120.508 108.447 120.732 108.858C120.965 109.269 121.278 109.595 121.67 109.838C122.071 110.081 122.515 110.202 123 110.202ZM129.866 111.126C129.352 111.126 128.9 111.037 128.508 110.86C128.125 110.683 127.822 110.435 127.598 110.118C127.383 109.801 127.276 109.432 127.276 109.012C127.276 108.349 127.528 107.827 128.032 107.444C128.536 107.061 129.217 106.87 130.076 106.87C130.832 106.87 131.518 107.029 132.134 107.346V106.422C132.134 105.862 131.975 105.442 131.658 105.162C131.34 104.873 130.878 104.728 130.272 104.728C129.926 104.728 129.576 104.779 129.222 104.882C128.876 104.975 128.494 105.129 128.074 105.344L127.682 104.546C128.186 104.303 128.652 104.126 129.082 104.014C129.511 103.902 129.94 103.846 130.37 103.846C131.256 103.846 131.938 104.056 132.414 104.476C132.899 104.896 133.142 105.498 133.142 106.282V111H132.134V110.314C131.816 110.585 131.466 110.79 131.084 110.93C130.71 111.061 130.304 111.126 129.866 111.126ZM128.27 108.984C128.27 109.376 128.433 109.698 128.76 109.95C129.096 110.193 129.525 110.314 130.048 110.314C130.468 110.314 130.85 110.249 131.196 110.118C131.541 109.987 131.854 109.782 132.134 109.502V108.186C131.844 107.99 131.536 107.85 131.21 107.766C130.883 107.673 130.514 107.626 130.104 107.626C129.544 107.626 129.096 107.752 128.76 108.004C128.433 108.247 128.27 108.573 128.27 108.984ZM137.778 111.112C137.125 111.112 136.528 110.953 135.986 110.636C135.454 110.309 135.03 109.875 134.712 109.334C134.404 108.783 134.25 108.167 134.25 107.486C134.25 106.805 134.404 106.193 134.712 105.652C135.03 105.111 135.454 104.681 135.986 104.364C136.528 104.037 137.13 103.874 137.792 103.874C138.203 103.874 138.6 103.944 138.982 104.084C139.365 104.215 139.715 104.411 140.032 104.672V101.2L141.068 100.962V111H140.046V110.258C139.43 110.827 138.674 111.112 137.778 111.112ZM137.876 110.202C138.315 110.202 138.721 110.118 139.094 109.95C139.477 109.773 139.79 109.53 140.032 109.222V105.75C139.79 105.451 139.477 105.218 139.094 105.05C138.721 104.873 138.315 104.784 137.876 104.784C137.391 104.784 136.948 104.901 136.546 105.134C136.154 105.367 135.842 105.689 135.608 106.1C135.384 106.501 135.272 106.959 135.272 107.472C135.272 107.985 135.384 108.447 135.608 108.858C135.842 109.269 136.154 109.595 136.546 109.838C136.948 110.081 137.391 110.202 137.876 110.202Z" fill="#243A68"/>
</svg>
