<svg width="163" height="132" viewBox="0 0 163 132" fill="none" xmlns="http://www.w3.org/2000/svg">
<rect x="0.400391" width="162" height="132" rx="8" fill="white"/>
<path fill-rule="evenodd" clip-rule="evenodd" d="M90.7405 54.6997H90.7277C98.7199 54.021 104.4 47.7944 104.4 39.4186C104.4 31.0402 98.7199 24.8149 90.7251 24.1362L90.7392 20.9026C90.7392 19.3049 89.4677 18 87.9109 18H69.2299C67.6732 18 66.4004 19.3049 66.4004 20.9026V58.0961C66.4004 59.6924 67.6732 61 69.2299 61H87.9122C89.469 61 90.7405 59.6924 90.7405 58.0961V54.6997ZM75.581 20.795C75.3917 20.795 75.2382 20.6388 75.2382 20.4445C75.2382 20.2502 75.3917 20.0926 75.581 20.0913H81.5573C81.7492 20.0913 81.9014 20.2489 81.9014 20.4445C81.9014 20.6401 81.7466 20.795 81.5573 20.795H75.581ZM79.9852 58.096C79.9852 57.2926 79.3507 56.6467 78.5691 56.6467C77.7901 56.6467 77.1569 57.2926 77.1569 58.096C77.1569 58.8969 77.7901 59.548 78.5691 59.548C79.3507 59.548 79.9852 58.8969 79.9852 58.096ZM89.4485 26.0395C95.9275 26.0395 102.479 30.8404 102.479 39.4173C102.479 47.9942 95.9709 52.7964 89.4421 52.7964C82.9605 52.7964 76.4233 47.2444 76.4092 39.4173C76.4091 39.3392 76.4149 39.2592 76.4206 39.1806C76.4215 39.168 76.4224 39.1554 76.4233 39.1429H78.6132L75.5334 35.0962L72.1493 39.1455H74.503C74.5022 39.1567 74.5014 39.168 74.5006 39.1793C74.4948 39.2579 74.4889 39.3381 74.4889 39.4173C74.4889 46.666 79.2884 54.1069 88.7603 54.7299L88.768 55.389V55.624H68.369V22.604H88.7334C88.7334 22.604 88.7424 24.1357 88.7334 24.1357C88.7334 24.1357 87.9855 24.2757 87.345 24.5672C87.634 25.1284 88.7334 26.0776 88.7334 26.0776C88.8071 26.0733 88.8785 26.0681 88.9491 26.063C89.1137 26.0511 89.2739 26.0395 89.4485 26.0395Z" fill="#FE666F"/>
<path fill-rule="evenodd" clip-rule="evenodd" d="M95.9725 43.5023C97.5208 43.5023 98.419 42.3291 98.419 39.9297C98.419 37.5256 97.5255 36.362 95.9725 36.362C94.4102 36.362 93.5215 37.5256 93.5215 39.9297C93.5215 42.3291 94.4149 43.5023 95.9725 43.5023ZM86.9868 41.0933C86.9868 42.5695 86.0279 43.5071 84.6058 43.5071C83.2914 43.5071 82.1875 42.6849 82.1875 41.3145C82.1875 41.2039 82.1969 41.0885 82.2156 40.9683L83.5534 40.9058C83.5347 41.0212 83.5206 41.1222 83.5206 41.2135C83.5206 41.9348 84.0305 42.2377 84.5778 42.2377C85.2748 42.2377 85.6396 41.7953 85.6396 41.1462C85.6396 40.4875 85.2841 40.0499 84.1708 40.0499H82.398L82.6787 36.4582H86.6687V37.6939H83.8902L83.8013 38.9008H84.3907C86.1495 38.9008 86.9868 39.6701 86.9868 41.0933ZM92.7075 41.0933C92.7075 42.5695 91.7486 43.5071 90.3266 43.5071C89.0122 43.5071 87.9083 42.6849 87.9083 41.3145C87.9083 41.2039 87.9176 41.0885 87.9363 40.9683L89.2741 40.9058C89.2554 41.0212 89.2414 41.1222 89.2414 41.2135C89.2414 41.9348 89.7513 42.2377 90.2985 42.2377C90.9955 42.2377 91.3604 41.7953 91.3604 41.1462C91.3604 40.4875 91.0049 40.0499 89.8916 40.0499H88.1188L88.3994 36.4582H92.3895V37.6939H89.6109L89.5221 38.9008H90.1114C91.8702 38.9008 92.7075 39.6701 92.7075 41.0933ZM94.8686 39.9297C94.8686 41.5501 95.2849 42.2521 95.9725 42.2521C96.6508 42.2521 97.0718 41.5501 97.0718 39.9297C97.0718 38.2949 96.6368 37.6073 95.9725 37.6073C95.2943 37.6073 94.8686 38.2949 94.8686 39.9297Z" fill="#FE666F"/>
<path d="M49.0005 89V77.8H57.2885V79.272H50.6805V82.712H55.0325V84.136H50.6805V89H49.0005ZM58.196 89V80.856H59.796V89H58.196ZM58.996 79.544C58.7293 79.544 58.5 79.448 58.308 79.256C58.116 79.0533 58.02 78.8187 58.02 78.552C58.02 78.2747 58.116 78.0453 58.308 77.864C58.5 77.672 58.7293 77.576 58.996 77.576C59.2733 77.576 59.508 77.672 59.7 77.864C59.892 78.0453 59.988 78.2747 59.988 78.552C59.988 78.8187 59.892 79.0533 59.7 79.256C59.508 79.448 59.2733 79.544 58.996 79.544ZM61.3803 89V80.856H62.9803V81.688C63.6097 81.0267 64.4257 80.696 65.4283 80.696C66.0577 80.696 66.607 80.8293 67.0763 81.096C67.5563 81.3627 67.9297 81.736 68.1963 82.216C68.4737 82.696 68.6123 83.2507 68.6123 83.88V89H67.0123V84.152C67.0123 83.512 66.831 83.0107 66.4683 82.648C66.1163 82.2747 65.6203 82.088 64.9803 82.088C64.5537 82.088 64.1697 82.1787 63.8283 82.36C63.487 82.5413 63.2043 82.8027 62.9803 83.144V89H61.3803ZM75.7425 89.176C74.9105 89.176 74.1371 89.032 73.4225 88.744C72.7185 88.4453 72.0945 88.0347 71.5505 87.512C71.0171 86.9787 70.6011 86.3653 70.3025 85.672C70.0145 84.968 69.8705 84.2107 69.8705 83.4C69.8705 82.5893 70.0145 81.8373 70.3025 81.144C70.6011 80.44 71.0171 79.8267 71.5505 79.304C72.0945 78.7707 72.7238 78.36 73.4385 78.072C74.1531 77.7733 74.9211 77.624 75.7425 77.624C76.3291 77.624 76.8998 77.704 77.4545 77.864C78.0198 78.0133 78.5371 78.232 79.0065 78.52C79.4865 78.808 79.9025 79.1547 80.2545 79.56L79.1345 80.712C78.7185 80.2107 78.2118 79.832 77.6145 79.576C77.0171 79.3093 76.3931 79.176 75.7425 79.176C75.1451 79.176 74.5905 79.2827 74.0785 79.496C73.5771 79.7093 73.1398 80.008 72.7665 80.392C72.3931 80.7653 72.0998 81.208 71.8865 81.72C71.6838 82.232 71.5825 82.792 71.5825 83.4C71.5825 83.9973 71.6838 84.552 71.8865 85.064C72.0998 85.576 72.3985 86.024 72.7825 86.408C73.1665 86.792 73.6145 87.0907 74.1265 87.304C74.6385 87.5173 75.1931 87.624 75.7905 87.624C76.4411 87.624 77.0545 87.496 77.6305 87.24C78.2171 86.9733 78.7131 86.6 79.1185 86.12L80.2225 87.24C79.8491 87.6347 79.4225 87.9813 78.9425 88.28C78.4731 88.568 77.9611 88.792 77.4065 88.952C76.8625 89.1013 76.3078 89.176 75.7425 89.176ZM85.0117 89.16C84.2224 89.16 83.5024 88.9733 82.8517 88.6C82.2117 88.2267 81.705 87.72 81.3317 87.08C80.9584 86.44 80.7717 85.7253 80.7717 84.936C80.7717 84.1467 80.9584 83.432 81.3317 82.792C81.705 82.152 82.2117 81.6453 82.8517 81.272C83.5024 80.888 84.2224 80.696 85.0117 80.696C85.8117 80.696 86.5317 80.888 87.1717 81.272C87.8117 81.6453 88.3184 82.152 88.6917 82.792C89.065 83.432 89.2517 84.1467 89.2517 84.936C89.2517 85.7253 89.065 86.44 88.6917 87.08C88.3184 87.72 87.8117 88.2267 87.1717 88.6C86.5317 88.9733 85.8117 89.16 85.0117 89.16ZM85.0117 87.752C85.513 87.752 85.9664 87.6293 86.3717 87.384C86.777 87.128 87.097 86.7867 87.3317 86.36C87.5664 85.9333 87.6837 85.4533 87.6837 84.92C87.6837 84.3973 87.561 83.928 87.3157 83.512C87.081 83.0853 86.761 82.744 86.3557 82.488C85.961 82.232 85.513 82.104 85.0117 82.104C84.5104 82.104 84.057 82.232 83.6517 82.488C83.257 82.744 82.937 83.0853 82.6917 83.512C82.457 83.928 82.3397 84.3973 82.3397 84.92C82.3397 85.4533 82.457 85.9333 82.6917 86.36C82.9264 86.7867 83.2464 87.128 83.6517 87.384C84.057 87.6293 84.5104 87.752 85.0117 87.752ZM93.1188 89.144C92.5322 89.144 92.0148 89.0427 91.5668 88.84C91.1188 88.6267 90.7668 88.3333 90.5108 87.96C90.2548 87.5867 90.1268 87.1547 90.1268 86.664C90.1268 85.896 90.4202 85.2933 91.0068 84.856C91.5935 84.408 92.3988 84.184 93.4228 84.184C94.2228 84.184 94.9642 84.3387 95.6468 84.648V83.784C95.6468 83.1973 95.4762 82.76 95.1348 82.472C94.8042 82.184 94.3135 82.04 93.6628 82.04C93.2895 82.04 92.9002 82.0987 92.4948 82.216C92.0895 82.3227 91.6362 82.4933 91.1348 82.728L90.5428 81.528C91.1615 81.24 91.7375 81.032 92.2708 80.904C92.8042 80.7653 93.3428 80.696 93.8868 80.696C94.9428 80.696 95.7588 80.9467 96.3348 81.448C96.9215 81.9493 97.2148 82.664 97.2148 83.592V89H95.6468V88.296C95.2842 88.584 94.8948 88.7973 94.4788 88.936C94.0628 89.0747 93.6095 89.144 93.1188 89.144ZM91.6628 86.632C91.6628 87.0267 91.8282 87.3467 92.1588 87.592C92.5002 87.8373 92.9428 87.96 93.4868 87.96C93.9135 87.96 94.3028 87.896 94.6548 87.768C95.0175 87.64 95.3482 87.4427 95.6468 87.176V85.8C95.3375 85.6187 95.0122 85.4907 94.6708 85.416C94.3402 85.3307 93.9668 85.288 93.5508 85.288C92.9642 85.288 92.5002 85.4107 92.1588 85.656C91.8282 85.8907 91.6628 86.216 91.6628 86.632ZM102.582 89.144C101.804 89.144 101.094 88.9573 100.454 88.584C99.8145 88.2107 99.3078 87.704 98.9345 87.064C98.5718 86.424 98.3905 85.7093 98.3905 84.92C98.3905 84.1307 98.5771 83.4213 98.9505 82.792C99.3238 82.152 99.8251 81.6453 100.454 81.272C101.094 80.888 101.804 80.696 102.582 80.696C103.201 80.696 103.793 80.8133 104.358 81.048C104.934 81.2827 105.43 81.6133 105.846 82.04L104.854 83.144C104.545 82.8027 104.198 82.5467 103.814 82.376C103.43 82.2053 103.03 82.12 102.614 82.12C102.124 82.12 101.676 82.2427 101.27 82.488C100.876 82.7333 100.561 83.0693 100.326 83.496C100.092 83.9227 99.9745 84.3973 99.9745 84.92C99.9745 85.4427 100.092 85.9173 100.326 86.344C100.561 86.7707 100.881 87.112 101.286 87.368C101.692 87.6133 102.145 87.736 102.646 87.736C103.062 87.736 103.452 87.656 103.814 87.496C104.177 87.3253 104.518 87.08 104.838 86.76L105.814 87.784C105.388 88.2213 104.892 88.5573 104.326 88.792C103.772 89.0267 103.19 89.144 102.582 89.144ZM106.802 89V77.8L108.402 77.448V81.688C109.032 81.0267 109.848 80.696 110.85 80.696C111.48 80.696 112.029 80.8293 112.498 81.096C112.978 81.3627 113.352 81.736 113.618 82.216C113.896 82.696 114.034 83.2507 114.034 83.88V89H112.434V84.152C112.434 83.512 112.253 83.0107 111.89 82.648C111.528 82.2747 111.032 82.088 110.402 82.088C109.976 82.088 109.592 82.1787 109.25 82.36C108.909 82.5413 108.626 82.8027 108.402 83.144V89H106.802Z" fill="#243A68"/>
<path d="M18.5618 111V101.2H22.8178C23.4618 101.2 24.0171 101.317 24.4838 101.55C24.9598 101.783 25.3285 102.115 25.5898 102.544C25.8511 102.964 25.9818 103.459 25.9818 104.028C25.9818 104.597 25.8511 105.097 25.5898 105.526C25.3285 105.946 24.9598 106.277 24.4838 106.52C24.0078 106.753 23.4525 106.87 22.8178 106.87H19.6398V111H18.5618ZM19.6398 105.932H22.7338C23.3965 105.932 23.9238 105.764 24.3158 105.428C24.7078 105.083 24.9038 104.621 24.9038 104.042C24.9038 103.463 24.7078 103.006 24.3158 102.67C23.9238 102.334 23.3965 102.166 22.7338 102.166H19.6398V105.932ZM27.0619 111V103.986H28.0979V104.98C28.3125 104.616 28.5832 104.336 28.9099 104.14C29.2459 103.935 29.6285 103.832 30.0579 103.832C30.3005 103.832 30.5199 103.865 30.7159 103.93V104.882C30.5945 104.835 30.4732 104.803 30.3519 104.784C30.2305 104.765 30.1092 104.756 29.9879 104.756C29.5585 104.756 29.1805 104.882 28.8539 105.134C28.5365 105.377 28.2845 105.731 28.0979 106.198V111H27.0619ZM34.3715 111.14C33.7089 111.14 33.1022 110.981 32.5515 110.664C32.0102 110.337 31.5809 109.899 31.2635 109.348C30.9462 108.797 30.7875 108.181 30.7875 107.5C30.7875 106.819 30.9462 106.203 31.2635 105.652C31.5809 105.101 32.0102 104.667 32.5515 104.35C33.1022 104.023 33.7089 103.86 34.3715 103.86C35.0435 103.86 35.6502 104.023 36.1915 104.35C36.7329 104.667 37.1622 105.101 37.4795 105.652C37.7969 106.203 37.9555 106.819 37.9555 107.5C37.9555 108.181 37.7969 108.797 37.4795 109.348C37.1622 109.899 36.7329 110.337 36.1915 110.664C35.6502 110.981 35.0435 111.14 34.3715 111.14ZM34.3715 110.216C34.8475 110.216 35.2769 110.095 35.6595 109.852C36.0515 109.609 36.3595 109.283 36.5835 108.872C36.8169 108.461 36.9335 108.004 36.9335 107.5C36.9335 106.987 36.8169 106.529 36.5835 106.128C36.3595 105.717 36.0515 105.391 35.6595 105.148C35.2769 104.905 34.8475 104.784 34.3715 104.784C33.8955 104.784 33.4615 104.905 33.0695 105.148C32.6869 105.391 32.3789 105.717 32.1455 106.128C31.9215 106.529 31.8095 106.987 31.8095 107.5C31.8095 108.004 31.9215 108.461 32.1455 108.872C32.3789 109.283 32.6869 109.609 33.0695 109.852C33.4615 110.095 33.8955 110.216 34.3715 110.216ZM42.5107 113.996C42.0254 113.996 41.5447 113.931 41.0687 113.8C40.5927 113.679 40.1587 113.501 39.7667 113.268L40.2147 112.456C40.6347 112.68 41.022 112.843 41.3767 112.946C41.7407 113.049 42.1047 113.1 42.4687 113.1C43.1314 113.1 43.6354 112.941 43.9807 112.624C44.326 112.307 44.4987 111.84 44.4987 111.224V110.244C43.8547 110.785 43.1127 111.056 42.2727 111.056C41.6287 111.056 41.0407 110.897 40.5087 110.58C39.9767 110.263 39.552 109.833 39.2347 109.292C38.9267 108.741 38.7727 108.13 38.7727 107.458C38.7727 106.786 38.9267 106.179 39.2347 105.638C39.552 105.087 39.9767 104.653 40.5087 104.336C41.0407 104.019 41.638 103.86 42.3007 103.86C42.702 103.86 43.0894 103.93 43.4627 104.07C43.8454 104.21 44.1954 104.415 44.5127 104.686V103.986H45.5347V111.21C45.5347 112.106 45.2734 112.792 44.7507 113.268C44.228 113.753 43.4814 113.996 42.5107 113.996ZM42.3567 110.146C42.8047 110.146 43.2154 110.062 43.5887 109.894C43.962 109.726 44.2654 109.488 44.4987 109.18V105.736C44.2654 105.437 43.9574 105.204 43.5747 105.036C43.2014 104.868 42.7954 104.784 42.3567 104.784C41.8714 104.784 41.4327 104.901 41.0407 105.134C40.658 105.367 40.3547 105.689 40.1307 106.1C39.9067 106.501 39.7947 106.954 39.7947 107.458C39.7947 107.962 39.9067 108.419 40.1307 108.83C40.364 109.231 40.672 109.553 41.0547 109.796C41.4467 110.029 41.8807 110.146 42.3567 110.146ZM46.9978 111V103.986H48.0338V104.98C48.2485 104.616 48.5192 104.336 48.8458 104.14C49.1818 103.935 49.5645 103.832 49.9938 103.832C50.2365 103.832 50.4558 103.865 50.6518 103.93V104.882C50.5305 104.835 50.4092 104.803 50.2878 104.784C50.1665 104.765 50.0452 104.756 49.9238 104.756C49.4945 104.756 49.1165 104.882 48.7898 105.134C48.4725 105.377 48.2205 105.731 48.0338 106.198V111H46.9978ZM53.3942 111.126C52.8809 111.126 52.4282 111.037 52.0362 110.86C51.6535 110.683 51.3502 110.435 51.1262 110.118C50.9115 109.801 50.8042 109.432 50.8042 109.012C50.8042 108.349 51.0562 107.827 51.5602 107.444C52.0642 107.061 52.7455 106.87 53.6042 106.87C54.3602 106.87 55.0462 107.029 55.6622 107.346V106.422C55.6622 105.862 55.5035 105.442 55.1862 105.162C54.8689 104.873 54.4069 104.728 53.8002 104.728C53.4549 104.728 53.1049 104.779 52.7502 104.882C52.4049 104.975 52.0222 105.129 51.6022 105.344L51.2102 104.546C51.7142 104.303 52.1809 104.126 52.6102 104.014C53.0395 103.902 53.4689 103.846 53.8982 103.846C54.7849 103.846 55.4662 104.056 55.9422 104.476C56.4275 104.896 56.6702 105.498 56.6702 106.282V111H55.6622V110.314C55.3449 110.585 54.9949 110.79 54.6122 110.93C54.2389 111.061 53.8329 111.126 53.3942 111.126ZM51.7982 108.984C51.7982 109.376 51.9615 109.698 52.2882 109.95C52.6242 110.193 53.0535 110.314 53.5762 110.314C53.9962 110.314 54.3789 110.249 54.7242 110.118C55.0695 109.987 55.3822 109.782 55.6622 109.502V108.186C55.3729 107.99 55.0649 107.85 54.7382 107.766C54.4115 107.673 54.0429 107.626 53.6322 107.626C53.0722 107.626 52.6242 107.752 52.2882 108.004C51.9615 108.247 51.7982 108.573 51.7982 108.984ZM58.1009 111V103.986H59.1369V104.756C59.6689 104.149 60.3549 103.846 61.1949 103.846C61.6896 103.846 62.1283 103.963 62.5109 104.196C62.8936 104.42 63.1923 104.728 63.4069 105.12C63.6963 104.691 64.0416 104.373 64.4429 104.168C64.8443 103.953 65.3016 103.846 65.8149 103.846C66.3283 103.846 66.7763 103.963 67.1589 104.196C67.5416 104.42 67.8403 104.737 68.0549 105.148C68.2789 105.549 68.3909 106.021 68.3909 106.562V111H67.3689V106.772C67.3689 106.147 67.2056 105.657 66.8789 105.302C66.5523 104.938 66.1089 104.756 65.5489 104.756C65.1663 104.756 64.8163 104.854 64.4989 105.05C64.1816 105.237 63.9109 105.521 63.6869 105.904C63.7056 106.007 63.7196 106.114 63.7289 106.226C63.7476 106.329 63.7569 106.441 63.7569 106.562V111H62.7349V106.772C62.7349 106.147 62.5716 105.657 62.2449 105.302C61.9183 104.938 61.4796 104.756 60.9289 104.756C60.5556 104.756 60.2149 104.845 59.9069 105.022C59.6083 105.19 59.3516 105.442 59.1369 105.778V111H58.1009ZM72.0442 111.126C71.5309 111.126 71.0782 111.037 70.6862 110.86C70.3035 110.683 70.0002 110.435 69.7762 110.118C69.5615 109.801 69.4542 109.432 69.4542 109.012C69.4542 108.349 69.7062 107.827 70.2102 107.444C70.7142 107.061 71.3955 106.87 72.2542 106.87C73.0102 106.87 73.6962 107.029 74.3122 107.346V106.422C74.3122 105.862 74.1535 105.442 73.8362 105.162C73.5189 104.873 73.0569 104.728 72.4502 104.728C72.1049 104.728 71.7549 104.779 71.4002 104.882C71.0549 104.975 70.6722 105.129 70.2522 105.344L69.8602 104.546C70.3642 104.303 70.8309 104.126 71.2602 104.014C71.6895 103.902 72.1189 103.846 72.5482 103.846C73.4349 103.846 74.1162 104.056 74.5922 104.476C75.0775 104.896 75.3202 105.498 75.3202 106.282V111H74.3122V110.314C73.9949 110.585 73.6449 110.79 73.2622 110.93C72.8889 111.061 72.4829 111.126 72.0442 111.126ZM70.4482 108.984C70.4482 109.376 70.6115 109.698 70.9382 109.95C71.2742 110.193 71.7035 110.314 72.2262 110.314C72.6462 110.314 73.0289 110.249 73.3742 110.118C73.7195 109.987 74.0322 109.782 74.3122 109.502V108.186C74.0229 107.99 73.7149 107.85 73.3882 107.766C73.0615 107.673 72.6929 107.626 72.2822 107.626C71.7222 107.626 71.2742 107.752 70.9382 108.004C70.6115 108.247 70.4482 108.573 70.4482 108.984ZM82.6648 111.112C82.0114 111.112 81.4141 110.953 80.8728 110.636C80.3408 110.309 79.9161 109.875 79.5988 109.334C79.2908 108.783 79.1368 108.167 79.1368 107.486C79.1368 106.805 79.2908 106.193 79.5988 105.652C79.9161 105.111 80.3408 104.681 80.8728 104.364C81.4141 104.037 82.0161 103.874 82.6788 103.874C83.0894 103.874 83.4861 103.944 83.8688 104.084C84.2514 104.215 84.6014 104.411 84.9188 104.672V101.2L85.9548 100.962V111H84.9328V110.258C84.3168 110.827 83.5608 111.112 82.6648 111.112ZM82.7628 110.202C83.2014 110.202 83.6074 110.118 83.9808 109.95C84.3634 109.773 84.6761 109.53 84.9188 109.222V105.75C84.6761 105.451 84.3634 105.218 83.9808 105.05C83.6074 104.873 83.2014 104.784 82.7628 104.784C82.2774 104.784 81.8341 104.901 81.4328 105.134C81.0408 105.367 80.7281 105.689 80.4948 106.1C80.2708 106.501 80.1588 106.959 80.1588 107.472C80.1588 107.985 80.2708 108.447 80.4948 108.858C80.7281 109.269 81.0408 109.595 81.4328 109.838C81.8341 110.081 82.2774 110.202 82.7628 110.202ZM90.7066 111.126C90.0346 111.126 89.4232 110.967 88.8726 110.65C88.3312 110.323 87.8972 109.885 87.5706 109.334C87.2532 108.783 87.0946 108.167 87.0946 107.486C87.0946 106.814 87.2486 106.207 87.5566 105.666C87.8646 105.115 88.2799 104.681 88.8026 104.364C89.3252 104.037 89.9086 103.874 90.5526 103.874C91.1779 103.874 91.7379 104.037 92.2326 104.364C92.7366 104.681 93.1332 105.115 93.4226 105.666C93.7212 106.207 93.8706 106.814 93.8706 107.486V107.808H88.1166C88.1726 108.265 88.3172 108.676 88.5506 109.04C88.7932 109.404 89.1059 109.693 89.4886 109.908C89.8712 110.113 90.2912 110.216 90.7486 110.216C91.1126 110.216 91.4672 110.16 91.8126 110.048C92.1579 109.936 92.4472 109.777 92.6806 109.572L93.3246 110.258C92.9326 110.547 92.5219 110.767 92.0926 110.916C91.6726 111.056 91.2106 111.126 90.7066 111.126ZM88.1446 106.982H92.8346C92.7786 106.562 92.6386 106.189 92.4146 105.862C92.1999 105.526 91.9292 105.265 91.6026 105.078C91.2759 104.882 90.9166 104.784 90.5246 104.784C90.1232 104.784 89.7546 104.877 89.4186 105.064C89.0826 105.251 88.8026 105.512 88.5786 105.848C88.3546 106.175 88.2099 106.553 88.1446 106.982ZM98.7347 111V104.868H97.0827V103.986H98.7347V102.656C98.7347 101.965 98.9214 101.438 99.2947 101.074C99.6681 100.71 100.205 100.528 100.905 100.528C101.091 100.528 101.259 100.537 101.409 100.556C101.558 100.575 101.703 100.607 101.843 100.654V101.578C101.684 101.531 101.539 101.499 101.409 101.48C101.278 101.452 101.133 101.438 100.975 101.438C100.564 101.438 100.256 101.541 100.051 101.746C99.8547 101.942 99.7567 102.255 99.7567 102.684V103.986H101.843V104.868H99.7567V111H98.7347ZM102.663 111V103.986H103.699V111H102.663ZM103.181 102.642C102.994 102.642 102.831 102.572 102.691 102.432C102.551 102.292 102.481 102.129 102.481 101.942C102.481 101.746 102.551 101.583 102.691 101.452C102.831 101.312 102.994 101.242 103.181 101.242C103.377 101.242 103.54 101.312 103.671 101.452C103.811 101.583 103.881 101.746 103.881 101.942C103.881 102.129 103.811 102.292 103.671 102.432C103.54 102.572 103.377 102.642 103.181 102.642ZM105.166 111V103.986H106.202V104.812C106.752 104.168 107.49 103.846 108.414 103.846C108.946 103.846 109.412 103.963 109.814 104.196C110.224 104.42 110.542 104.737 110.766 105.148C110.999 105.549 111.116 106.021 111.116 106.562V111H110.094V106.772C110.094 106.147 109.916 105.657 109.562 105.302C109.216 104.938 108.74 104.756 108.134 104.756C107.714 104.756 107.34 104.849 107.014 105.036C106.687 105.223 106.416 105.489 106.202 105.834V111H105.166ZM114.761 111.126C114.248 111.126 113.795 111.037 113.403 110.86C113.021 110.683 112.717 110.435 112.493 110.118C112.279 109.801 112.171 109.432 112.171 109.012C112.171 108.349 112.423 107.827 112.927 107.444C113.431 107.061 114.113 106.87 114.971 106.87C115.727 106.87 116.413 107.029 117.029 107.346V106.422C117.029 105.862 116.871 105.442 116.553 105.162C116.236 104.873 115.774 104.728 115.167 104.728C114.822 104.728 114.472 104.779 114.117 104.882C113.772 104.975 113.389 105.129 112.969 105.344L112.577 104.546C113.081 104.303 113.548 104.126 113.977 104.014C114.407 103.902 114.836 103.846 115.265 103.846C116.152 103.846 116.833 104.056 117.309 104.476C117.795 104.896 118.037 105.498 118.037 106.282V111H117.029V110.314C116.712 110.585 116.362 110.79 115.979 110.93C115.606 111.061 115.2 111.126 114.761 111.126ZM113.165 108.984C113.165 109.376 113.329 109.698 113.655 109.95C113.991 110.193 114.421 110.314 114.943 110.314C115.363 110.314 115.746 110.249 116.091 110.118C116.437 109.987 116.749 109.782 117.029 109.502V108.186C116.74 107.99 116.432 107.85 116.105 107.766C115.779 107.673 115.41 107.626 114.999 107.626C114.439 107.626 113.991 107.752 113.655 108.004C113.329 108.247 113.165 108.573 113.165 108.984ZM119.468 111V103.986H120.504V104.812C121.055 104.168 121.792 103.846 122.716 103.846C123.248 103.846 123.715 103.963 124.116 104.196C124.527 104.42 124.844 104.737 125.068 105.148C125.301 105.549 125.418 106.021 125.418 106.562V111H124.396V106.772C124.396 106.147 124.219 105.657 123.864 105.302C123.519 104.938 123.043 104.756 122.436 104.756C122.016 104.756 121.643 104.849 121.316 105.036C120.989 105.223 120.719 105.489 120.504 105.834V111H119.468ZM126.404 111V110.188L130.632 104.91H126.446V103.986H131.892V104.784L127.65 110.076H131.934V111H126.404ZM135.244 111.126C134.731 111.126 134.278 111.037 133.886 110.86C133.504 110.683 133.2 110.435 132.976 110.118C132.762 109.801 132.654 109.432 132.654 109.012C132.654 108.349 132.906 107.827 133.41 107.444C133.914 107.061 134.596 106.87 135.454 106.87C136.21 106.87 136.896 107.029 137.512 107.346V106.422C137.512 105.862 137.354 105.442 137.036 105.162C136.719 104.873 136.257 104.728 135.65 104.728C135.305 104.728 134.955 104.779 134.6 104.882C134.255 104.975 133.872 105.129 133.452 105.344L133.06 104.546C133.564 104.303 134.031 104.126 134.46 104.014C134.89 103.902 135.319 103.846 135.748 103.846C136.635 103.846 137.316 104.056 137.792 104.476C138.278 104.896 138.52 105.498 138.52 106.282V111H137.512V110.314C137.195 110.585 136.845 110.79 136.462 110.93C136.089 111.061 135.683 111.126 135.244 111.126ZM133.648 108.984C133.648 109.376 133.812 109.698 134.138 109.95C134.474 110.193 134.904 110.314 135.426 110.314C135.846 110.314 136.229 110.249 136.574 110.118C136.92 109.987 137.232 109.782 137.512 109.502V108.186C137.223 107.99 136.915 107.85 136.588 107.766C136.262 107.673 135.893 107.626 135.482 107.626C134.922 107.626 134.474 107.752 134.138 108.004C133.812 108.247 133.648 108.573 133.648 108.984ZM142.191 111.14C141.612 111.14 141.066 111.047 140.553 110.86C140.049 110.664 139.61 110.393 139.237 110.048L139.867 109.376C140.194 109.675 140.553 109.908 140.945 110.076C141.337 110.235 141.738 110.314 142.149 110.314C142.709 110.314 143.166 110.197 143.521 109.964C143.876 109.731 144.053 109.427 144.053 109.054C144.053 108.746 143.946 108.508 143.731 108.34C143.526 108.163 143.199 108.041 142.751 107.976L141.533 107.808C140.833 107.705 140.31 107.495 139.965 107.178C139.629 106.861 139.461 106.431 139.461 105.89C139.461 105.498 139.573 105.148 139.797 104.84C140.021 104.532 140.329 104.289 140.721 104.112C141.122 103.935 141.58 103.846 142.093 103.846C142.606 103.846 143.087 103.921 143.535 104.07C143.983 104.219 144.422 104.453 144.851 104.77L144.305 105.47C143.913 105.199 143.53 105.003 143.157 104.882C142.793 104.751 142.42 104.686 142.037 104.686C141.552 104.686 141.16 104.793 140.861 105.008C140.562 105.223 140.413 105.503 140.413 105.848C140.413 106.165 140.516 106.408 140.721 106.576C140.926 106.735 141.258 106.847 141.715 106.912L142.933 107.08C143.633 107.173 144.156 107.379 144.501 107.696C144.856 108.013 145.033 108.447 145.033 108.998C145.033 109.399 144.907 109.763 144.655 110.09C144.403 110.417 144.062 110.673 143.633 110.86C143.213 111.047 142.732 111.14 142.191 111.14Z" fill="#243A68"/>
</svg>
