<svg width="162" height="152" viewBox="0 0 162 152" fill="none" xmlns="http://www.w3.org/2000/svg">
<rect width="162" height="152" rx="8" fill="white"/>
<path d="M66 44.0058H68C71.1635 43.9364 74.1573 45.4374 76 48.0169H82C85.1872 48.305 87.7128 50.8376 88 54.0335H74" stroke="#FE666F" stroke-width="1.8" stroke-linecap="round" stroke-linejoin="round"/>
<path d="M86.2 50.0223H96C98.6607 49.8954 101.094 51.5217 102 54.0334L80.8 61.7548C79.1456 62.1397 77.4184 62.0704 75.8 61.5543L66 56.9415" stroke="#FE666F" stroke-width="1.8" stroke-linecap="round" stroke-linejoin="round"/>
<path d="M66 42H60V58.0445H66V42Z" stroke="#FE666F" stroke-width="1.8" stroke-linecap="square" stroke-linejoin="round"/>
<path d="M74.3633 28.4825V41.3571M97.6361 46V28.4825" stroke="#FE666F" stroke-width="1.82" stroke-linecap="round" stroke-linejoin="round"/>
<path d="M74 28V21H78V25.1417" stroke="#FE666F" stroke-width="1.82" stroke-linecap="round" stroke-linejoin="round"/>
<path d="M70 31.7L86.0001 20L102 31.7" stroke="#FE666F" stroke-width="1.82" stroke-linecap="round" stroke-linejoin="round"/>
<path d="M86.6912 39.5611C85.4203 39.5611 84.3548 38.9175 83.921 37.2719H87.2315V36.1314H83.746C83.7308 35.9277 83.7232 35.7077 83.7232 35.4796C83.7232 35.2678 83.7308 35.0723 83.746 34.8768H87.2315V33.72H83.921C84.3396 32.058 85.4127 31.4308 86.6912 31.4308C87.7566 31.4308 88.609 32.001 89.1265 33.0438L90.8008 31.8951C89.9104 30.4532 88.4492 29.5 86.6988 29.5C84.3624 29.5 82.4751 30.9012 81.9347 33.72H80.8008V34.8768H81.7901C81.7825 35.0723 81.7749 35.276 81.7749 35.4796C81.7749 35.6996 81.7825 35.9196 81.7977 36.1314H80.8008V37.2719H81.9347C82.4903 40.0825 84.37 41.5 86.6988 41.5C88.4492 41.5 89.9104 40.5306 90.8008 39.0804L89.1265 37.9399C88.6166 38.9338 87.7795 39.5611 86.6912 39.5611Z" fill="#FE666F"/>
<path d="M46.5626 89V77.8H48.2426V82.6H54.1946V77.8H55.8746V89H54.1946V84.12H48.2426V89H46.5626ZM57.6643 89V80.856H59.2643V89H57.6643ZM58.4643 79.544C58.1976 79.544 57.9683 79.448 57.7763 79.256C57.5843 79.0533 57.4883 78.8187 57.4883 78.552C57.4883 78.2747 57.5843 78.0453 57.7763 77.864C57.9683 77.672 58.1976 77.576 58.4643 77.576C58.7416 77.576 58.9763 77.672 59.1683 77.864C59.3603 78.0453 59.4563 78.2747 59.4563 78.552C59.4563 78.8187 59.3603 79.0533 59.1683 79.256C58.9763 79.448 58.7416 79.544 58.4643 79.544ZM60.8487 92.264V80.856H62.4327V81.64C63.1154 81.032 63.9474 80.728 64.9287 80.728C65.6967 80.728 66.39 80.9147 67.0087 81.288C67.638 81.6613 68.134 82.1627 68.4967 82.792C68.8594 83.4213 69.0407 84.1307 69.0407 84.92C69.0407 85.7093 68.854 86.424 68.4807 87.064C68.118 87.6933 67.622 88.1947 66.9927 88.568C66.374 88.9413 65.6754 89.128 64.8967 89.128C64.4487 89.128 64.0167 89.0587 63.6007 88.92C63.1847 88.7707 62.8007 88.5627 62.4487 88.296V92.264H60.8487ZM64.7207 87.736C65.2434 87.736 65.7074 87.6133 66.1127 87.368C66.5287 87.1227 66.8594 86.792 67.1047 86.376C67.35 85.9493 67.4727 85.4693 67.4727 84.936C67.4727 84.4027 67.35 83.9227 67.1047 83.496C66.8594 83.0693 66.5287 82.7333 66.1127 82.488C65.7074 82.2427 65.2434 82.12 64.7207 82.12C64.262 82.12 63.8354 82.2053 63.4407 82.376C63.046 82.5467 62.7154 82.7867 62.4487 83.096V86.776C62.7154 87.0747 63.046 87.3093 63.4407 87.48C63.846 87.6507 64.2727 87.736 64.7207 87.736ZM74.1394 89.16C73.3501 89.16 72.6301 88.9733 71.9794 88.6C71.3394 88.2267 70.8328 87.72 70.4594 87.08C70.0861 86.44 69.8994 85.7253 69.8994 84.936C69.8994 84.1467 70.0861 83.432 70.4594 82.792C70.8328 82.152 71.3394 81.6453 71.9794 81.272C72.6301 80.888 73.3501 80.696 74.1394 80.696C74.9394 80.696 75.6594 80.888 76.2994 81.272C76.9394 81.6453 77.4461 82.152 77.8194 82.792C78.1928 83.432 78.3794 84.1467 78.3794 84.936C78.3794 85.7253 78.1928 86.44 77.8194 87.08C77.4461 87.72 76.9394 88.2267 76.2994 88.6C75.6594 88.9733 74.9394 89.16 74.1394 89.16ZM74.1394 87.752C74.6408 87.752 75.0941 87.6293 75.4994 87.384C75.9048 87.128 76.2248 86.7867 76.4594 86.36C76.6941 85.9333 76.8114 85.4533 76.8114 84.92C76.8114 84.3973 76.6888 83.928 76.4434 83.512C76.2088 83.0853 75.8888 82.744 75.4834 82.488C75.0888 82.232 74.6408 82.104 74.1394 82.104C73.6381 82.104 73.1848 82.232 72.7794 82.488C72.3848 82.744 72.0648 83.0853 71.8194 83.512C71.5848 83.928 71.4674 84.3973 71.4674 84.92C71.4674 85.4533 71.5848 85.9333 71.8194 86.36C72.0541 86.7867 72.3741 87.128 72.7794 87.384C73.1848 87.6293 73.6381 87.752 74.1394 87.752ZM82.6117 89.144C81.8224 89.144 81.2197 88.9627 80.8037 88.6C80.3877 88.2267 80.1797 87.688 80.1797 86.984V82.2H78.4517V80.856H80.1797V78.776L81.7637 78.392V80.856H84.1637V82.2H81.7637V86.616C81.7637 87.032 81.8544 87.3307 82.0357 87.512C82.2277 87.6827 82.537 87.768 82.9637 87.768C83.1877 87.768 83.385 87.752 83.5557 87.72C83.737 87.688 83.929 87.64 84.1317 87.576V88.92C83.9184 88.9947 83.6677 89.048 83.3797 89.08C83.1024 89.1227 82.8464 89.144 82.6117 89.144ZM88.8214 89.144C88.0214 89.144 87.2961 88.9573 86.6454 88.584C86.0054 88.2107 85.4934 87.704 85.1094 87.064C84.7361 86.424 84.5494 85.7093 84.5494 84.92C84.5494 84.1413 84.7308 83.4373 85.0934 82.808C85.4561 82.168 85.9468 81.6613 86.5654 81.288C87.1841 80.904 87.8721 80.712 88.6294 80.712C89.3868 80.712 90.0588 80.904 90.6454 81.288C91.2321 81.6613 91.6961 82.1733 92.0374 82.824C92.3894 83.464 92.5654 84.1893 92.5654 85V85.448H86.1494C86.2348 85.896 86.4001 86.296 86.6454 86.648C86.9014 87 87.2214 87.2773 87.6054 87.48C88.0001 87.6827 88.4268 87.784 88.8854 87.784C89.2801 87.784 89.6588 87.7253 90.0214 87.608C90.3948 87.48 90.7041 87.2987 90.9494 87.064L91.9734 88.072C91.4934 88.4347 90.9974 88.7067 90.4854 88.888C89.9841 89.0587 89.4294 89.144 88.8214 89.144ZM86.1654 84.248H90.9814C90.9174 83.8213 90.7681 83.448 90.5334 83.128C90.3094 82.7973 90.0268 82.5413 89.6854 82.36C89.3548 82.168 88.9921 82.072 88.5974 82.072C88.1921 82.072 87.8188 82.1627 87.4774 82.344C87.1361 82.5253 86.8481 82.7813 86.6134 83.112C86.3894 83.432 86.2401 83.8107 86.1654 84.248ZM97.6446 89.144C96.8659 89.144 96.1566 88.9573 95.5166 88.584C94.8766 88.2107 94.3699 87.704 93.9966 87.064C93.6339 86.424 93.4526 85.7093 93.4526 84.92C93.4526 84.1307 93.6392 83.4213 94.0126 82.792C94.3859 82.152 94.8872 81.6453 95.5166 81.272C96.1566 80.888 96.8659 80.696 97.6446 80.696C98.2632 80.696 98.8552 80.8133 99.4206 81.048C99.9966 81.2827 100.493 81.6133 100.909 82.04L99.9166 83.144C99.6072 82.8027 99.2606 82.5467 98.8766 82.376C98.4926 82.2053 98.0926 82.12 97.6766 82.12C97.1859 82.12 96.7379 82.2427 96.3326 82.488C95.9379 82.7333 95.6232 83.0693 95.3886 83.496C95.1539 83.9227 95.0366 84.3973 95.0366 84.92C95.0366 85.4427 95.1539 85.9173 95.3886 86.344C95.6232 86.7707 95.9432 87.112 96.3486 87.368C96.7539 87.6133 97.2072 87.736 97.7086 87.736C98.1246 87.736 98.5139 87.656 98.8766 87.496C99.2392 87.3253 99.5806 87.08 99.9006 86.76L100.877 87.784C100.45 88.2213 99.9539 88.5573 99.3886 88.792C98.8339 89.0267 98.2526 89.144 97.6446 89.144ZM104.44 89.144C103.854 89.144 103.336 89.0427 102.888 88.84C102.44 88.6267 102.088 88.3333 101.832 87.96C101.576 87.5867 101.448 87.1547 101.448 86.664C101.448 85.896 101.742 85.2933 102.328 84.856C102.915 84.408 103.72 84.184 104.744 84.184C105.544 84.184 106.286 84.3387 106.968 84.648V83.784C106.968 83.1973 106.798 82.76 106.456 82.472C106.126 82.184 105.635 82.04 104.984 82.04C104.611 82.04 104.222 82.0987 103.816 82.216C103.411 82.3227 102.958 82.4933 102.456 82.728L101.864 81.528C102.483 81.24 103.059 81.032 103.592 80.904C104.126 80.7653 104.664 80.696 105.208 80.696C106.264 80.696 107.08 80.9467 107.656 81.448C108.243 81.9493 108.536 82.664 108.536 83.592V89H106.968V88.296C106.606 88.584 106.216 88.7973 105.8 88.936C105.384 89.0747 104.931 89.144 104.44 89.144ZM102.984 86.632C102.984 87.0267 103.15 87.3467 103.48 87.592C103.822 87.8373 104.264 87.96 104.808 87.96C105.235 87.96 105.624 87.896 105.976 87.768C106.339 87.64 106.67 87.4427 106.968 87.176V85.8C106.659 85.6187 106.334 85.4907 105.992 85.416C105.662 85.3307 105.288 85.288 104.872 85.288C104.286 85.288 103.822 85.4107 103.48 85.656C103.15 85.8907 102.984 86.216 102.984 86.632ZM112.88 89.16C112.176 89.16 111.515 89.0587 110.896 88.856C110.288 88.6427 109.76 88.344 109.312 87.96L110.192 86.904C110.608 87.2347 111.035 87.4907 111.472 87.672C111.92 87.8427 112.373 87.928 112.832 87.928C113.408 87.928 113.877 87.816 114.24 87.592C114.603 87.368 114.784 87.0747 114.784 86.712C114.784 86.4133 114.677 86.1787 114.464 86.008C114.251 85.8373 113.92 85.72 113.472 85.656L112 85.448C111.189 85.3307 110.581 85.08 110.176 84.696C109.771 84.312 109.568 83.8 109.568 83.16C109.568 82.6693 109.701 82.2427 109.968 81.88C110.235 81.5067 110.608 81.2187 111.088 81.016C111.568 80.8027 112.128 80.696 112.768 80.696C113.355 80.696 113.92 80.7813 114.464 80.952C115.008 81.1227 115.531 81.3893 116.032 81.752L115.216 82.808C114.768 82.5093 114.331 82.2907 113.904 82.152C113.488 82.0133 113.067 81.944 112.64 81.944C112.149 81.944 111.755 82.0507 111.456 82.264C111.157 82.4667 111.008 82.7333 111.008 83.064C111.008 83.3627 111.109 83.5973 111.312 83.768C111.525 83.928 111.872 84.04 112.352 84.104L113.824 84.312C114.635 84.4293 115.248 84.68 115.664 85.064C116.08 85.4373 116.288 85.944 116.288 86.584C116.288 87.0747 116.139 87.5173 115.84 87.912C115.541 88.296 115.136 88.6 114.624 88.824C114.112 89.048 113.531 89.16 112.88 89.16Z" fill="#243A68"/>
<path d="M17.2309 111V101.2H24.2449V102.152H18.3089V105.582H22.1869V106.52H18.3089V110.048H24.3009V111H17.2309ZM25.3619 111V103.986H26.3979V104.812C26.9486 104.168 27.6859 103.846 28.6099 103.846C29.1419 103.846 29.6086 103.963 30.0099 104.196C30.4206 104.42 30.7379 104.737 30.9619 105.148C31.1952 105.549 31.3119 106.021 31.3119 106.562V111H30.2899V106.772C30.2899 106.147 30.1126 105.657 29.7579 105.302C29.4126 104.938 28.9366 104.756 28.3299 104.756C27.9099 104.756 27.5366 104.849 27.2099 105.036C26.8832 105.223 26.6126 105.489 26.3979 105.834V111H25.3619ZM35.9935 111.126C35.3308 111.126 34.7288 110.967 34.1875 110.65C33.6461 110.323 33.2168 109.885 32.8995 109.334C32.5821 108.783 32.4235 108.167 32.4235 107.486C32.4235 106.805 32.5821 106.193 32.8995 105.652C33.2168 105.101 33.6461 104.663 34.1875 104.336C34.7288 104.009 35.3308 103.846 35.9935 103.846C36.5068 103.846 37.0015 103.944 37.4775 104.14C37.9535 104.327 38.3735 104.597 38.7375 104.952L38.0795 105.708C37.7995 105.409 37.4775 105.185 37.1135 105.036C36.7588 104.877 36.3901 104.798 36.0075 104.798C35.5315 104.798 35.0975 104.919 34.7055 105.162C34.3228 105.395 34.0148 105.717 33.7815 106.128C33.5575 106.529 33.4455 106.982 33.4455 107.486C33.4455 107.99 33.5575 108.447 33.7815 108.858C34.0148 109.269 34.3275 109.595 34.7195 109.838C35.1115 110.071 35.5455 110.188 36.0215 110.188C36.4041 110.188 36.7635 110.113 37.0995 109.964C37.4448 109.815 37.7668 109.595 38.0655 109.306L38.7095 110.006C38.3361 110.361 37.9161 110.636 37.4495 110.832C36.9828 111.028 36.4975 111.126 35.9935 111.126ZM42.3112 111.14C41.7792 111.14 41.3079 111.028 40.8972 110.804C40.4865 110.571 40.1645 110.253 39.9312 109.852C39.7072 109.441 39.5952 108.965 39.5952 108.424V103.986H40.6172V108.214C40.6172 108.839 40.7945 109.334 41.1492 109.698C41.5039 110.053 41.9799 110.23 42.5772 110.23C42.9972 110.23 43.3705 110.137 43.6972 109.95C44.0332 109.754 44.3039 109.483 44.5092 109.138V103.986H45.5452V111H44.5092V110.188C43.9585 110.823 43.2259 111.14 42.3112 111.14ZM50.2968 111.126C49.6248 111.126 49.0135 110.967 48.4628 110.65C47.9215 110.323 47.4875 109.885 47.1608 109.334C46.8435 108.783 46.6848 108.167 46.6848 107.486C46.6848 106.814 46.8388 106.207 47.1468 105.666C47.4548 105.115 47.8701 104.681 48.3928 104.364C48.9155 104.037 49.4988 103.874 50.1428 103.874C50.7681 103.874 51.3281 104.037 51.8228 104.364C52.3268 104.681 52.7235 105.115 53.0128 105.666C53.3115 106.207 53.4608 106.814 53.4608 107.486V107.808H47.7068C47.7628 108.265 47.9075 108.676 48.1408 109.04C48.3835 109.404 48.6961 109.693 49.0788 109.908C49.4615 110.113 49.8815 110.216 50.3388 110.216C50.7028 110.216 51.0575 110.16 51.4028 110.048C51.7481 109.936 52.0375 109.777 52.2708 109.572L52.9148 110.258C52.5228 110.547 52.1121 110.767 51.6828 110.916C51.2628 111.056 50.8008 111.126 50.2968 111.126ZM47.7348 106.982H52.4248C52.3688 106.562 52.2288 106.189 52.0048 105.862C51.7901 105.526 51.5195 105.265 51.1928 105.078C50.8661 104.882 50.5068 104.784 50.1148 104.784C49.7135 104.784 49.3448 104.877 49.0088 105.064C48.6728 105.251 48.3928 105.512 48.1688 105.848C47.9448 106.175 47.8001 106.553 47.7348 106.982ZM54.6091 111V103.986H55.6452V104.812C56.1958 104.168 56.9332 103.846 57.8572 103.846C58.3892 103.846 58.8558 103.963 59.2572 104.196C59.6678 104.42 59.9852 104.737 60.2092 105.148C60.4425 105.549 60.5592 106.021 60.5592 106.562V111H59.5372V106.772C59.5372 106.147 59.3598 105.657 59.0052 105.302C58.6598 104.938 58.1838 104.756 57.5772 104.756C57.1572 104.756 56.7838 104.849 56.4572 105.036C56.1305 105.223 55.8598 105.489 55.6452 105.834V111H54.6091ZM64.5457 111.14C63.939 111.14 63.4723 110.995 63.1457 110.706C62.819 110.417 62.6557 109.997 62.6557 109.446V104.868H61.1437V103.986H62.6557V102.208L63.6777 101.942V103.986H65.7917V104.868H63.6777V109.18C63.6777 109.553 63.7617 109.824 63.9297 109.992C64.0977 110.151 64.373 110.23 64.7557 110.23C64.9517 110.23 65.1243 110.216 65.2737 110.188C65.4323 110.16 65.6003 110.113 65.7777 110.048V110.958C65.6003 111.023 65.3997 111.07 65.1757 111.098C64.961 111.126 64.751 111.14 64.5457 111.14ZM66.6009 111V103.986H67.6369V104.98C67.8516 104.616 68.1223 104.336 68.4489 104.14C68.7849 103.935 69.1676 103.832 69.5969 103.832C69.8396 103.832 70.0589 103.865 70.2549 103.93V104.882C70.1336 104.835 70.0123 104.803 69.8909 104.784C69.7696 104.765 69.6483 104.756 69.5269 104.756C69.0976 104.756 68.7196 104.882 68.3929 105.134C68.0756 105.377 67.8236 105.731 67.6369 106.198V111H66.6009ZM72.9973 111.126C72.484 111.126 72.0313 111.037 71.6393 110.86C71.2567 110.683 70.9533 110.435 70.7293 110.118C70.5147 109.801 70.4073 109.432 70.4073 109.012C70.4073 108.349 70.6593 107.827 71.1633 107.444C71.6673 107.061 72.3487 106.87 73.2073 106.87C73.9633 106.87 74.6493 107.029 75.2653 107.346V106.422C75.2653 105.862 75.1067 105.442 74.7893 105.162C74.472 104.873 74.01 104.728 73.4033 104.728C73.058 104.728 72.708 104.779 72.3533 104.882C72.008 104.975 71.6253 105.129 71.2053 105.344L70.8133 104.546C71.3173 104.303 71.784 104.126 72.2133 104.014C72.6427 103.902 73.072 103.846 73.5013 103.846C74.388 103.846 75.0693 104.056 75.5453 104.476C76.0307 104.896 76.2733 105.498 76.2733 106.282V111H75.2653V110.314C74.948 110.585 74.598 110.79 74.2153 110.93C73.842 111.061 73.436 111.126 72.9973 111.126ZM71.4013 108.984C71.4013 109.376 71.5647 109.698 71.8913 109.95C72.2273 110.193 72.6567 110.314 73.1793 110.314C73.5993 110.314 73.982 110.249 74.3273 110.118C74.6727 109.987 74.9853 109.782 75.2653 109.502V108.186C74.976 107.99 74.668 107.85 74.3413 107.766C74.0147 107.673 73.646 107.626 73.2353 107.626C72.6753 107.626 72.2273 107.752 71.8913 108.004C71.5647 108.247 71.4013 108.573 71.4013 108.984ZM83.1699 111.14C82.5632 111.14 82.0966 110.995 81.7699 110.706C81.4432 110.417 81.2799 109.997 81.2799 109.446V104.868H79.7679V103.986H81.2799V102.208L82.3019 101.942V103.986H84.4159V104.868H82.3019V109.18C82.3019 109.553 82.3859 109.824 82.5539 109.992C82.7219 110.151 82.9972 110.23 83.3799 110.23C83.5759 110.23 83.7486 110.216 83.8979 110.188C84.0566 110.16 84.2246 110.113 84.4019 110.048V110.958C84.2246 111.023 84.0239 111.07 83.7999 111.098C83.5852 111.126 83.3752 111.14 83.1699 111.14ZM87.9132 111.14C87.3812 111.14 86.9098 111.028 86.4992 110.804C86.0885 110.571 85.7665 110.253 85.5332 109.852C85.3092 109.441 85.1972 108.965 85.1972 108.424V103.986H86.2192V108.214C86.2192 108.839 86.3965 109.334 86.7512 109.698C87.1058 110.053 87.5818 110.23 88.1792 110.23C88.5992 110.23 88.9725 110.137 89.2992 109.95C89.6352 109.754 89.9058 109.483 90.1112 109.138V103.986H91.1472V111H90.1112V110.188C89.5605 110.823 88.8278 111.14 87.9132 111.14ZM95.3166 111V101.2L96.3526 100.962V104.812C96.9032 104.168 97.6406 103.846 98.5646 103.846C99.0966 103.846 99.5632 103.963 99.9646 104.196C100.375 104.42 100.693 104.737 100.917 105.148C101.15 105.549 101.267 106.021 101.267 106.562V111H100.245V106.772C100.245 106.147 100.067 105.657 99.7126 105.302C99.3672 104.938 98.8912 104.756 98.2846 104.756C97.8646 104.756 97.4912 104.849 97.1646 105.036C96.8379 105.223 96.5672 105.489 96.3526 105.834V111H95.3166ZM102.7 111V103.986H103.736V111H102.7ZM103.218 102.642C103.032 102.642 102.868 102.572 102.728 102.432C102.588 102.292 102.518 102.129 102.518 101.942C102.518 101.746 102.588 101.583 102.728 101.452C102.868 101.312 103.032 101.242 103.218 101.242C103.414 101.242 103.578 101.312 103.708 101.452C103.848 101.583 103.918 101.746 103.918 101.942C103.918 102.129 103.848 102.292 103.708 102.432C103.578 102.572 103.414 102.642 103.218 102.642ZM105.203 113.856V103.986H106.225V104.742C106.832 104.163 107.588 103.874 108.493 103.874C109.156 103.874 109.753 104.037 110.285 104.364C110.817 104.681 111.237 105.111 111.545 105.652C111.862 106.193 112.021 106.805 112.021 107.486C112.021 108.167 111.862 108.783 111.545 109.334C111.237 109.875 110.817 110.309 110.285 110.636C109.753 110.953 109.151 111.112 108.479 111.112C108.068 111.112 107.672 111.042 107.289 110.902C106.906 110.762 106.556 110.561 106.239 110.3V113.856H105.203ZM108.395 110.202C108.89 110.202 109.333 110.085 109.725 109.852C110.117 109.609 110.425 109.287 110.649 108.886C110.882 108.475 110.999 108.013 110.999 107.5C110.999 106.987 110.882 106.525 110.649 106.114C110.425 105.703 110.117 105.381 109.725 105.148C109.333 104.905 108.89 104.784 108.395 104.784C107.956 104.784 107.546 104.873 107.163 105.05C106.79 105.218 106.482 105.456 106.239 105.764V109.236C106.482 109.535 106.794 109.773 107.177 109.95C107.56 110.118 107.966 110.202 108.395 110.202ZM116.423 111.14C115.76 111.14 115.153 110.981 114.603 110.664C114.061 110.337 113.632 109.899 113.315 109.348C112.997 108.797 112.839 108.181 112.839 107.5C112.839 106.819 112.997 106.203 113.315 105.652C113.632 105.101 114.061 104.667 114.603 104.35C115.153 104.023 115.76 103.86 116.423 103.86C117.095 103.86 117.701 104.023 118.243 104.35C118.784 104.667 119.213 105.101 119.531 105.652C119.848 106.203 120.007 106.819 120.007 107.5C120.007 108.181 119.848 108.797 119.531 109.348C119.213 109.899 118.784 110.337 118.243 110.664C117.701 110.981 117.095 111.14 116.423 111.14ZM116.423 110.216C116.899 110.216 117.328 110.095 117.711 109.852C118.103 109.609 118.411 109.283 118.635 108.872C118.868 108.461 118.985 108.004 118.985 107.5C118.985 106.987 118.868 106.529 118.635 106.128C118.411 105.717 118.103 105.391 117.711 105.148C117.328 104.905 116.899 104.784 116.423 104.784C115.947 104.784 115.513 104.905 115.121 105.148C114.738 105.391 114.43 105.717 114.197 106.128C113.973 106.529 113.861 106.987 113.861 107.5C113.861 108.004 113.973 108.461 114.197 108.872C114.43 109.283 114.738 109.609 115.121 109.852C115.513 110.095 115.947 110.216 116.423 110.216ZM123.412 111.14C122.805 111.14 122.338 110.995 122.012 110.706C121.685 110.417 121.522 109.997 121.522 109.446V104.868H120.01V103.986H121.522V102.208L122.544 101.942V103.986H124.658V104.868H122.544V109.18C122.544 109.553 122.628 109.824 122.796 109.992C122.964 110.151 123.239 110.23 123.622 110.23C123.818 110.23 123.99 110.216 124.14 110.188C124.298 110.16 124.466 110.113 124.644 110.048V110.958C124.466 111.023 124.266 111.07 124.042 111.098C123.827 111.126 123.617 111.14 123.412 111.14ZM128.62 111.126C127.948 111.126 127.337 110.967 126.786 110.65C126.245 110.323 125.811 109.885 125.484 109.334C125.167 108.783 125.008 108.167 125.008 107.486C125.008 106.814 125.162 106.207 125.47 105.666C125.778 105.115 126.194 104.681 126.716 104.364C127.239 104.037 127.822 103.874 128.466 103.874C129.092 103.874 129.652 104.037 130.146 104.364C130.65 104.681 131.047 105.115 131.336 105.666C131.635 106.207 131.784 106.814 131.784 107.486V107.808H126.03C126.086 108.265 126.231 108.676 126.464 109.04C126.707 109.404 127.02 109.693 127.402 109.908C127.785 110.113 128.205 110.216 128.662 110.216C129.026 110.216 129.381 110.16 129.726 110.048C130.072 109.936 130.361 109.777 130.594 109.572L131.238 110.258C130.846 110.547 130.436 110.767 130.006 110.916C129.586 111.056 129.124 111.126 128.62 111.126ZM126.058 106.982H130.748C130.692 106.562 130.552 106.189 130.328 105.862C130.114 105.526 129.843 105.265 129.516 105.078C129.19 104.882 128.83 104.784 128.438 104.784C128.037 104.784 127.668 104.877 127.332 105.064C126.996 105.251 126.716 105.512 126.492 105.848C126.268 106.175 126.124 106.553 126.058 106.982ZM136.181 111.126C135.518 111.126 134.916 110.967 134.375 110.65C133.833 110.323 133.404 109.885 133.087 109.334C132.769 108.783 132.611 108.167 132.611 107.486C132.611 106.805 132.769 106.193 133.087 105.652C133.404 105.101 133.833 104.663 134.375 104.336C134.916 104.009 135.518 103.846 136.181 103.846C136.694 103.846 137.189 103.944 137.665 104.14C138.141 104.327 138.561 104.597 138.925 104.952L138.267 105.708C137.987 105.409 137.665 105.185 137.301 105.036C136.946 104.877 136.577 104.798 136.195 104.798C135.719 104.798 135.285 104.919 134.893 105.162C134.51 105.395 134.202 105.717 133.969 106.128C133.745 106.529 133.633 106.982 133.633 107.486C133.633 107.99 133.745 108.447 133.969 108.858C134.202 109.269 134.515 109.595 134.907 109.838C135.299 110.071 135.733 110.188 136.209 110.188C136.591 110.188 136.951 110.113 137.287 109.964C137.632 109.815 137.954 109.595 138.253 109.306L138.897 110.006C138.523 110.361 138.103 110.636 137.637 110.832C137.17 111.028 136.685 111.126 136.181 111.126ZM142.022 111.126C141.509 111.126 141.056 111.037 140.664 110.86C140.282 110.683 139.978 110.435 139.754 110.118C139.54 109.801 139.432 109.432 139.432 109.012C139.432 108.349 139.684 107.827 140.188 107.444C140.692 107.061 141.374 106.87 142.232 106.87C142.988 106.87 143.674 107.029 144.29 107.346V106.422C144.29 105.862 144.132 105.442 143.814 105.162C143.497 104.873 143.035 104.728 142.428 104.728C142.083 104.728 141.733 104.779 141.378 104.882C141.033 104.975 140.65 105.129 140.23 105.344L139.838 104.546C140.342 104.303 140.809 104.126 141.238 104.014C141.668 103.902 142.097 103.846 142.526 103.846C143.413 103.846 144.094 104.056 144.57 104.476C145.056 104.896 145.298 105.498 145.298 106.282V111H144.29V110.314C143.973 110.585 143.623 110.79 143.24 110.93C142.867 111.061 142.461 111.126 142.022 111.126ZM140.426 108.984C140.426 109.376 140.59 109.698 140.916 109.95C141.252 110.193 141.682 110.314 142.204 110.314C142.624 110.314 143.007 110.249 143.352 110.118C143.698 109.987 144.01 109.782 144.29 109.502V108.186C144.001 107.99 143.693 107.85 143.366 107.766C143.04 107.673 142.671 107.626 142.26 107.626C141.7 107.626 141.252 107.752 140.916 108.004C140.59 108.247 140.426 108.573 140.426 108.984ZM68.0582 131V123.986H69.0942V131H68.0582ZM68.5762 122.642C68.3895 122.642 68.2262 122.572 68.0862 122.432C67.9462 122.292 67.8762 122.129 67.8762 121.942C67.8762 121.746 67.9462 121.583 68.0862 121.452C68.2262 121.312 68.3895 121.242 68.5762 121.242C68.7722 121.242 68.9355 121.312 69.0662 121.452C69.2062 121.583 69.2762 121.746 69.2762 121.942C69.2762 122.129 69.2062 122.292 69.0662 122.432C68.9355 122.572 68.7722 122.642 68.5762 122.642ZM73.7669 131.112C73.1136 131.112 72.5162 130.953 71.9749 130.636C71.4429 130.309 71.0182 129.875 70.7009 129.334C70.3929 128.783 70.2389 128.167 70.2389 127.486C70.2389 126.805 70.3929 126.193 70.7009 125.652C71.0182 125.111 71.4429 124.681 71.9749 124.364C72.5162 124.037 73.1182 123.874 73.7809 123.874C74.1916 123.874 74.5882 123.944 74.9709 124.084C75.3536 124.215 75.7036 124.411 76.0209 124.672V121.2L77.0569 120.962V131H76.0349V130.258C75.4189 130.827 74.6629 131.112 73.7669 131.112ZM73.8649 130.202C74.3036 130.202 74.7096 130.118 75.0829 129.95C75.4656 129.773 75.7782 129.53 76.0209 129.222V125.75C75.7782 125.451 75.4656 125.218 75.0829 125.05C74.7096 124.873 74.3036 124.784 73.8649 124.784C73.3796 124.784 72.9362 124.901 72.5349 125.134C72.1429 125.367 71.8302 125.689 71.5969 126.1C71.3729 126.501 71.2609 126.959 71.2609 127.472C71.2609 127.985 71.3729 128.447 71.5969 128.858C71.8302 129.269 72.1429 129.595 72.5349 129.838C72.9362 130.081 73.3796 130.202 73.8649 130.202ZM81.8087 131.126C81.1367 131.126 80.5254 130.967 79.9747 130.65C79.4334 130.323 78.9994 129.885 78.6727 129.334C78.3554 128.783 78.1967 128.167 78.1967 127.486C78.1967 126.814 78.3507 126.207 78.6587 125.666C78.9667 125.115 79.3821 124.681 79.9047 124.364C80.4274 124.037 81.0107 123.874 81.6547 123.874C82.2801 123.874 82.8401 124.037 83.3347 124.364C83.8387 124.681 84.2354 125.115 84.5247 125.666C84.8234 126.207 84.9727 126.814 84.9727 127.486V127.808H79.2187C79.2747 128.265 79.4194 128.676 79.6527 129.04C79.8954 129.404 80.2081 129.693 80.5907 129.908C80.9734 130.113 81.3934 130.216 81.8507 130.216C82.2147 130.216 82.5694 130.16 82.9147 130.048C83.2601 129.936 83.5494 129.777 83.7827 129.572L84.4267 130.258C84.0347 130.547 83.6241 130.767 83.1947 130.916C82.7747 131.056 82.3127 131.126 81.8087 131.126ZM79.2467 126.982H83.9367C83.8807 126.562 83.7407 126.189 83.5167 125.862C83.3021 125.526 83.0314 125.265 82.7047 125.078C82.3781 124.882 82.0187 124.784 81.6267 124.784C81.2254 124.784 80.8567 124.877 80.5207 125.064C80.1847 125.251 79.9047 125.512 79.6807 125.848C79.4567 126.175 79.3121 126.553 79.2467 126.982ZM88.1963 131.126C87.683 131.126 87.2303 131.037 86.8383 130.86C86.4557 130.683 86.1523 130.435 85.9283 130.118C85.7137 129.801 85.6063 129.432 85.6063 129.012C85.6063 128.349 85.8583 127.827 86.3623 127.444C86.8663 127.061 87.5477 126.87 88.4063 126.87C89.1623 126.87 89.8483 127.029 90.4643 127.346V126.422C90.4643 125.862 90.3057 125.442 89.9883 125.162C89.671 124.873 89.209 124.728 88.6023 124.728C88.257 124.728 87.907 124.779 87.5523 124.882C87.207 124.975 86.8243 125.129 86.4043 125.344L86.0123 124.546C86.5163 124.303 86.983 124.126 87.4123 124.014C87.8417 123.902 88.271 123.846 88.7003 123.846C89.587 123.846 90.2683 124.056 90.7443 124.476C91.2297 124.896 91.4723 125.498 91.4723 126.282V131H90.4643V130.314C90.147 130.585 89.797 130.79 89.4143 130.93C89.041 131.061 88.635 131.126 88.1963 131.126ZM86.6003 128.984C86.6003 129.376 86.7637 129.698 87.0903 129.95C87.4263 130.193 87.8557 130.314 88.3783 130.314C88.7983 130.314 89.181 130.249 89.5263 130.118C89.8717 129.987 90.1843 129.782 90.4643 129.502V128.186C90.175 127.99 89.867 127.85 89.5403 127.766C89.2137 127.673 88.845 127.626 88.4343 127.626C87.8743 127.626 87.4263 127.752 87.0903 128.004C86.7637 128.247 86.6003 128.573 86.6003 128.984ZM92.9031 131V121.2L93.9391 120.962V131H92.9031Z" fill="#243A68"/>
</svg>
