<svg height="103" viewBox="0 0 100 103" width="100" xmlns="http://www.w3.org/2000/svg"><g fill="#fe666f" fill-rule="evenodd"><path d="m87.2816584 0c-4.1204987 0-7.2399058 1.01435823-10.2593508 2.20099399-4.5012369 1.94109254-9.4537734 3.01634197-14.6562154 3.01634197-5.1906817 0-10.1343981-1.07079397-14.6268148-3.00297561-3.0297352-1.19257636-6.1564925-2.21436035-10.2887514-2.21436035-6.8812181 0-12.4599882 5.63466343-12.4599882 12.5866559 0 6.9519925 5.5787701 12.586656 12.4599882 12.586656 4.1322589 0 7.2590162-1.021784 10.2887514-2.2143604 4.4924167-1.9321816 9.4361331-3.0029756 14.6268148-3.0029756 5.202442 0 10.1549785 1.0752494 14.6562154 3.016342 3.019445 1.1866357 6.1388521 2.200994 10.2593508 2.200994 6.8812181 0 12.4599882-5.6346635 12.4599882-12.586656 0-6.95199247-5.5787701-12.5866559-12.4599882-12.5866559"/><path d="m49.9075741 89.8145153c0-6.9519925-5.5773001-12.5866559-12.4585182-12.5866559-6.879748 0-12.4585181 5.6346634-12.4585181 12.5866559s5.5787701 12.5866557 12.4585181 12.5866557c6.8812181 0 12.4585182-5.6346632 12.4585182-12.5866557"/><path d="m62.2911206 38.6139297c-4.1204987 0-7.2399058 1.0143582-10.2608208 2.200994-4.4997669 1.9410925-9.4537735 3.016342-14.6547454 3.016342-5.1906817 0-10.1358682-1.070794-14.6268148-3.0029757-3.0312053-1.1925763-6.1564925-2.2143603-10.2902215-2.2143603-6.88121807 0-12.4585181 5.6346634-12.4585181 12.5866559 0 6.9505074 5.57730003 12.5866559 12.4585181 12.5866559 4.133729 0 7.2590162-1.0232691 10.2902215-2.2158455 4.4909466-1.9321816 9.4361331-3.0014904 14.6268148-3.0014904 5.2009719 0 10.1549785 1.0752494 14.6547454 3.0148568 3.020915 1.1881209 6.1403221 2.200994 10.2608208 2.2024791 6.8812181 0 12.4585181-5.6361485 12.4585181-12.5866559 0-6.9519925-5.5773-12.5866559-12.4585181-12.5866559"/></g></svg>