<svg height="21" viewBox="0 0 21 21" width="21" xmlns="http://www.w3.org/2000/svg" xmlns:xlink="http://www.w3.org/1999/xlink"><defs><path id="a" d="m11.8 7h1.6v1.6h-1.6zm0 4h1.6v6.4h-1.6zm.7-9c-5.79898987 0-10.5 4.70101013-10.5 10.5 0 5.7989899 4.70101013 10.5 10.5 10.5 5.7989899 0 10.5-4.7010101 10.5-10.5 0-2.78477314-1.1062468-5.45548923-3.0753788-7.4246212-1.969132-1.96913198-4.6398481-3.0753788-7.4246212-3.0753788zm-9.28846154 10.5c0-5.12987566 4.15858588-9.28846154 9.28846154-9.28846154 5.1298757 0 9.2884615 4.15858588 9.2884615 9.28846154 0 5.1298757-4.1585858 9.2884615-9.2884615 9.2884615-5.12987566 0-9.28846154-4.1585858-9.28846154-9.2884615z"/><mask id="b" fill="#fff"><use fill="#fff" fill-rule="evenodd" xlink:href="#a"/></mask></defs><g fill="none" fill-rule="evenodd" transform="translate(-2 -2)"><use fill="#4b5d72" fill-rule="nonzero" xlink:href="#a"/><g fill="#1f7cff" fill-rule="evenodd" mask="url(#b)"><path d="m0 0h25v25h-25z"/></g></g></svg>