<svg width="163" height="132" viewBox="0 0 163 132" fill="none" xmlns="http://www.w3.org/2000/svg">
<rect x="0.800781" width="162" height="132" rx="8" fill="white"/>
<path d="M81.8008 23.8V20.2" stroke="#FE666F" stroke-width="1.8" stroke-linecap="round" stroke-linejoin="round"/>
<path d="M92.6008 54.4C92.6008 57.3826 90.1834 59.8 87.2008 59.8V59.8C84.2182 59.8 81.8008 57.3826 81.8008 54.4V45.4" stroke="#FE666F" stroke-width="1.8" stroke-linecap="round" stroke-linejoin="round"/>
<path d="M81.8008 23.8C76.471 26.4523 72.8008 31.8433 72.8008 38.2C72.8008 38.8111 72.8008 39.1 72.8008 40" stroke="#FE666F" stroke-width="1.8" stroke-linecap="round" stroke-linejoin="round"/>
<path d="M81.8008 23.8C87.1306 26.4523 90.8008 31.8433 90.8008 38.2C90.8008 38.8111 90.8008 39.1 90.8008 40" stroke="#FE666F" stroke-width="1.8" stroke-linecap="round" stroke-linejoin="round"/>
<path fill-rule="evenodd" clip-rule="evenodd" d="M99.8008 40C98.8972 30.9037 91.1338 23.8 81.8008 23.8C72.4678 23.8 64.7044 30.9037 63.8008 40H99.8008Z" stroke="#FE666F" stroke-width="1.8" stroke-linecap="round" stroke-linejoin="round"/>
<path d="M81.8008 40V23.8" stroke="#FE666F" stroke-width="1.8" stroke-linecap="round" stroke-linejoin="round"/>
<path d="M57.4178 89.16C56.5218 89.16 55.6578 88.984 54.8258 88.632C53.9938 88.28 53.2578 87.784 52.6178 87.144L53.6418 85.96C54.2498 86.5573 54.8685 87 55.4978 87.288C56.1378 87.576 56.8045 87.72 57.4978 87.72C58.0418 87.72 58.5165 87.6453 58.9218 87.496C59.3378 87.336 59.6578 87.112 59.8818 86.824C60.1058 86.536 60.2178 86.2107 60.2178 85.848C60.2178 85.3467 60.0418 84.9627 59.6898 84.696C59.3378 84.4293 58.7565 84.2267 57.9458 84.088L56.0738 83.784C55.0498 83.6027 54.2818 83.272 53.7698 82.792C53.2685 82.312 53.0178 81.672 53.0178 80.872C53.0178 80.232 53.1885 79.672 53.5298 79.192C53.8712 78.7013 54.3512 78.3227 54.9698 78.056C55.5992 77.7893 56.3245 77.656 57.1458 77.656C57.9565 77.656 58.7512 77.7893 59.5298 78.056C60.3192 78.312 61.0285 78.6853 61.6578 79.176L60.7298 80.456C59.5245 79.5387 58.3032 79.08 57.0658 79.08C56.5752 79.08 56.1485 79.1493 55.7858 79.288C55.4232 79.4267 55.1405 79.624 54.9378 79.88C54.7352 80.1253 54.6338 80.4133 54.6338 80.744C54.6338 81.2027 54.7885 81.5547 55.0978 81.8C55.4072 82.0347 55.9192 82.2053 56.6338 82.312L58.4418 82.616C59.6258 82.808 60.4952 83.1547 61.0498 83.656C61.6045 84.1573 61.8818 84.8453 61.8818 85.72C61.8818 86.4027 61.6952 87.0053 61.3218 87.528C60.9485 88.04 60.4258 88.44 59.7538 88.728C59.0818 89.016 58.3032 89.16 57.4178 89.16ZM67.0066 89.144C66.2066 89.144 65.4813 88.9573 64.8306 88.584C64.1906 88.2107 63.6786 87.704 63.2946 87.064C62.9213 86.424 62.7346 85.7093 62.7346 84.92C62.7346 84.1413 62.9159 83.4373 63.2786 82.808C63.6413 82.168 64.1319 81.6613 64.7506 81.288C65.3693 80.904 66.0573 80.712 66.8146 80.712C67.5719 80.712 68.2439 80.904 68.8306 81.288C69.4173 81.6613 69.8813 82.1733 70.2226 82.824C70.5746 83.464 70.7506 84.1893 70.7506 85V85.448H64.3346C64.4199 85.896 64.5853 86.296 64.8306 86.648C65.0866 87 65.4066 87.2773 65.7906 87.48C66.1853 87.6827 66.6119 87.784 67.0706 87.784C67.4653 87.784 67.8439 87.7253 68.2066 87.608C68.5799 87.48 68.8893 87.2987 69.1346 87.064L70.1586 88.072C69.6786 88.4347 69.1826 88.7067 68.6706 88.888C68.1693 89.0587 67.6146 89.144 67.0066 89.144ZM64.3506 84.248H69.1666C69.1026 83.8213 68.9533 83.448 68.7186 83.128C68.4946 82.7973 68.2119 82.5413 67.8706 82.36C67.5399 82.168 67.1773 82.072 66.7826 82.072C66.3773 82.072 66.0039 82.1627 65.6626 82.344C65.3213 82.5253 65.0333 82.7813 64.7986 83.112C64.5746 83.432 64.4253 83.8107 64.3506 84.248ZM76.0377 92.424C75.4404 92.424 74.8591 92.3547 74.2937 92.216C73.7284 92.0773 73.2164 91.88 72.7577 91.624L73.3657 90.376C73.8457 90.6213 74.2937 90.7973 74.7097 90.904C75.1364 91.0213 75.5631 91.08 75.9897 91.08C76.7044 91.08 77.2431 90.9147 77.6057 90.584C77.9791 90.2533 78.1657 89.768 78.1657 89.128V88.2C77.4511 88.7653 76.6351 89.048 75.7177 89.048C74.9711 89.048 74.2831 88.8667 73.6537 88.504C73.0351 88.1307 72.5444 87.6293 72.1817 87C71.8191 86.36 71.6377 85.656 71.6377 84.888C71.6377 84.1093 71.8191 83.4053 72.1817 82.776C72.5551 82.136 73.0511 81.6347 73.6697 81.272C74.2991 80.8987 75.0031 80.712 75.7817 80.712C76.2191 80.712 76.6404 80.7867 77.0457 80.936C77.4617 81.0747 77.8404 81.2773 78.1817 81.544V80.856H79.7657V89.128C79.7657 90.184 79.4404 90.9947 78.7897 91.56C78.1497 92.136 77.2324 92.424 76.0377 92.424ZM75.9257 87.672C76.3951 87.672 76.8217 87.592 77.2057 87.432C77.5897 87.2613 77.9097 87.0213 78.1657 86.712V83.064C77.9097 82.7653 77.5844 82.5307 77.1897 82.36C76.8057 82.1893 76.3844 82.104 75.9257 82.104C75.4137 82.104 74.9497 82.2267 74.5337 82.472C74.1284 82.7173 73.8031 83.0533 73.5577 83.48C73.3231 83.896 73.2057 84.3653 73.2057 84.888C73.2057 85.4107 73.3231 85.8853 73.5577 86.312C73.8031 86.728 74.1284 87.0587 74.5337 87.304C74.9497 87.5493 75.4137 87.672 75.9257 87.672ZM84.4983 89.16C83.869 89.16 83.3143 89.0267 82.8343 88.76C82.3543 88.4933 81.981 88.12 81.7143 87.64C81.4477 87.1493 81.3143 86.5893 81.3143 85.96V80.856H82.8983V85.688C82.8983 86.328 83.0797 86.8347 83.4423 87.208C83.8157 87.5813 84.3117 87.768 84.9303 87.768C85.3677 87.768 85.757 87.6773 86.0983 87.496C86.4397 87.304 86.717 87.0373 86.9303 86.696V80.856H88.5303V89H86.9303V88.168C86.301 88.8293 85.4903 89.16 84.4983 89.16ZM90.1245 89V80.856H91.7245V81.896C91.9805 81.512 92.2951 81.2133 92.6685 81C93.0525 80.776 93.4845 80.664 93.9645 80.664C94.2951 80.6747 94.5671 80.7227 94.7805 80.808V82.248C94.6311 82.184 94.4765 82.1413 94.3165 82.12C94.1565 82.088 93.9965 82.072 93.8365 82.072C93.3671 82.072 92.9511 82.2 92.5885 82.456C92.2258 82.7013 91.9378 83.064 91.7245 83.544V89H90.1245ZM99.1652 89.16C98.3759 89.16 97.6559 88.9733 97.0052 88.6C96.3652 88.2267 95.8586 87.72 95.4852 87.08C95.1119 86.44 94.9252 85.7253 94.9252 84.936C94.9252 84.1467 95.1119 83.432 95.4852 82.792C95.8586 82.152 96.3652 81.6453 97.0052 81.272C97.6559 80.888 98.3759 80.696 99.1652 80.696C99.9652 80.696 100.685 80.888 101.325 81.272C101.965 81.6453 102.472 82.152 102.845 82.792C103.219 83.432 103.405 84.1467 103.405 84.936C103.405 85.7253 103.219 86.44 102.845 87.08C102.472 87.72 101.965 88.2267 101.325 88.6C100.685 88.9733 99.9652 89.16 99.1652 89.16ZM99.1652 87.752C99.6666 87.752 100.12 87.6293 100.525 87.384C100.931 87.128 101.251 86.7867 101.485 86.36C101.72 85.9333 101.837 85.4533 101.837 84.92C101.837 84.3973 101.715 83.928 101.469 83.512C101.235 83.0853 100.915 82.744 100.509 82.488C100.115 82.232 99.6666 82.104 99.1652 82.104C98.6639 82.104 98.2106 82.232 97.8052 82.488C97.4106 82.744 97.0906 83.0853 96.8452 83.512C96.6106 83.928 96.4932 84.3973 96.4932 84.92C96.4932 85.4533 96.6106 85.9333 96.8452 86.36C97.0799 86.7867 97.3999 87.128 97.8052 87.384C98.2106 87.6293 98.6639 87.752 99.1652 87.752ZM107.418 89.16C106.714 89.16 106.053 89.0587 105.434 88.856C104.826 88.6427 104.298 88.344 103.85 87.96L104.73 86.904C105.146 87.2347 105.573 87.4907 106.01 87.672C106.458 87.8427 106.912 87.928 107.37 87.928C107.946 87.928 108.416 87.816 108.778 87.592C109.141 87.368 109.322 87.0747 109.322 86.712C109.322 86.4133 109.216 86.1787 109.002 86.008C108.789 85.8373 108.458 85.72 108.01 85.656L106.538 85.448C105.728 85.3307 105.12 85.08 104.714 84.696C104.309 84.312 104.106 83.8 104.106 83.16C104.106 82.6693 104.24 82.2427 104.506 81.88C104.773 81.5067 105.146 81.2187 105.626 81.016C106.106 80.8027 106.666 80.696 107.306 80.696C107.893 80.696 108.458 80.7813 109.002 80.952C109.546 81.1227 110.069 81.3893 110.57 81.752L109.754 82.808C109.306 82.5093 108.869 82.2907 108.442 82.152C108.026 82.0133 107.605 81.944 107.178 81.944C106.688 81.944 106.293 82.0507 105.994 82.264C105.696 82.4667 105.546 82.7333 105.546 83.064C105.546 83.3627 105.648 83.5973 105.85 83.768C106.064 83.928 106.41 84.04 106.89 84.104L108.362 84.312C109.173 84.4293 109.786 84.68 110.202 85.064C110.618 85.4373 110.826 85.944 110.826 86.584C110.826 87.0747 110.677 87.5173 110.378 87.912C110.08 88.296 109.674 88.6 109.162 88.824C108.65 89.048 108.069 89.16 107.418 89.16Z" fill="#243A68"/>
<path d="M42.4342 108.97V106.436H40.0962V105.596H42.4342V103.062H43.3022V105.596H45.6402V106.436H43.3022V108.97H42.4342ZM50.6703 111.154C49.9983 111.154 49.3683 111.037 48.7803 110.804C48.2017 110.571 47.6883 110.225 47.2403 109.768L47.9123 109.11C48.323 109.521 48.743 109.819 49.1723 110.006C49.611 110.183 50.1057 110.272 50.6563 110.272C51.1323 110.272 51.5523 110.188 51.9163 110.02C52.2897 109.852 52.579 109.619 52.7843 109.32C52.9897 109.021 53.0923 108.681 53.0923 108.298C53.0923 107.934 52.999 107.612 52.8123 107.332C52.635 107.043 52.3877 106.819 52.0703 106.66C51.753 106.501 51.389 106.422 50.9783 106.422H49.8163V105.554H50.9363C51.4683 105.554 51.8977 105.391 52.2243 105.064C52.5603 104.737 52.7283 104.313 52.7283 103.79C52.7283 103.445 52.635 103.132 52.4483 102.852C52.2617 102.572 52.005 102.353 51.6783 102.194C51.361 102.026 51.0017 101.942 50.6003 101.942C50.0963 101.942 49.6437 102.035 49.2423 102.222C48.8503 102.399 48.449 102.703 48.0383 103.132L47.3663 102.46C47.805 101.993 48.2997 101.643 48.8503 101.41C49.401 101.167 49.989 101.046 50.6143 101.046C51.2117 101.046 51.7437 101.163 52.2103 101.396C52.6863 101.629 53.0597 101.951 53.3303 102.362C53.601 102.763 53.7363 103.221 53.7363 103.734C53.7363 104.247 53.5683 104.709 53.2323 105.12C52.8963 105.521 52.453 105.801 51.9023 105.96C52.565 106.109 53.097 106.399 53.4983 106.828C53.8997 107.257 54.1003 107.757 54.1003 108.326C54.1003 108.867 53.951 109.353 53.6523 109.782C53.363 110.211 52.957 110.547 52.4343 110.79C51.921 111.033 51.333 111.154 50.6703 111.154ZM59.0401 111.154C58.2561 111.154 57.5654 110.939 56.9681 110.51C56.3707 110.081 55.8994 109.488 55.5541 108.732C55.2181 107.967 55.0501 107.089 55.0501 106.1C55.0501 105.111 55.2181 104.238 55.5541 103.482C55.8994 102.717 56.3707 102.119 56.9681 101.69C57.5654 101.261 58.2561 101.046 59.0401 101.046C59.8241 101.046 60.5147 101.261 61.1121 101.69C61.7094 102.119 62.1761 102.717 62.5121 103.482C62.8574 104.238 63.0301 105.111 63.0301 106.1C63.0301 107.089 62.8574 107.967 62.5121 108.732C62.1761 109.488 61.7094 110.081 61.1121 110.51C60.5147 110.939 59.8241 111.154 59.0401 111.154ZM59.0401 110.244C59.6467 110.244 60.1694 110.076 60.6081 109.74C61.0561 109.395 61.4014 108.909 61.6441 108.284C61.8867 107.659 62.0081 106.931 62.0081 106.1C62.0081 105.26 61.8867 104.532 61.6441 103.916C61.4014 103.291 61.0561 102.81 60.6081 102.474C60.1694 102.129 59.6467 101.956 59.0401 101.956C58.4427 101.956 57.9201 102.129 57.4721 102.474C57.0241 102.81 56.6787 103.291 56.4361 103.916C56.1934 104.532 56.0721 105.26 56.0721 106.1C56.0721 106.931 56.1934 107.659 56.4361 108.284C56.6787 108.909 57.0241 109.395 57.4721 109.74C57.9201 110.076 58.4427 110.244 59.0401 110.244ZM70.2554 111.126C69.5834 111.126 68.9721 110.967 68.4214 110.65C67.8801 110.323 67.4461 109.885 67.1194 109.334C66.8021 108.783 66.6434 108.167 66.6434 107.486C66.6434 106.814 66.7974 106.207 67.1054 105.666C67.4134 105.115 67.8287 104.681 68.3514 104.364C68.8741 104.037 69.4574 103.874 70.1014 103.874C70.7267 103.874 71.2867 104.037 71.7814 104.364C72.2854 104.681 72.6821 105.115 72.9714 105.666C73.2701 106.207 73.4194 106.814 73.4194 107.486V107.808H67.6654C67.7214 108.265 67.8661 108.676 68.0994 109.04C68.3421 109.404 68.6547 109.693 69.0374 109.908C69.4201 110.113 69.8401 110.216 70.2974 110.216C70.6614 110.216 71.0161 110.16 71.3614 110.048C71.7067 109.936 71.9961 109.777 72.2294 109.572L72.8734 110.258C72.4814 110.547 72.0707 110.767 71.6414 110.916C71.2214 111.056 70.7594 111.126 70.2554 111.126ZM67.6934 106.982H72.3834C72.3274 106.562 72.1874 106.189 71.9634 105.862C71.7487 105.526 71.4781 105.265 71.1514 105.078C70.8247 104.882 70.4654 104.784 70.0734 104.784C69.6721 104.784 69.3034 104.877 68.9674 105.064C68.6314 105.251 68.3514 105.512 68.1274 105.848C67.9034 106.175 67.7587 106.553 67.6934 106.982ZM74.5677 111V103.986H75.6037V104.812C76.1544 104.168 76.8917 103.846 77.8157 103.846C78.3477 103.846 78.8144 103.963 79.2157 104.196C79.6264 104.42 79.9437 104.737 80.1677 105.148C80.4011 105.549 80.5177 106.021 80.5177 106.562V111H79.4957V106.772C79.4957 106.147 79.3184 105.657 78.9637 105.302C78.6184 104.938 78.1424 104.756 77.5357 104.756C77.1157 104.756 76.7424 104.849 76.4157 105.036C76.0891 105.223 75.8184 105.489 75.6037 105.834V111H74.5677ZM84.5043 111.14C83.8976 111.14 83.4309 110.995 83.1043 110.706C82.7776 110.417 82.6143 109.997 82.6143 109.446V104.868H81.1023V103.986H82.6143V102.208L83.6363 101.942V103.986H85.7503V104.868H83.6363V109.18C83.6363 109.553 83.7203 109.824 83.8883 109.992C84.0563 110.151 84.3316 110.23 84.7143 110.23C84.9103 110.23 85.0829 110.216 85.2323 110.188C85.3909 110.16 85.5589 110.113 85.7363 110.048V110.958C85.5589 111.023 85.3583 111.07 85.1343 111.098C84.9196 111.126 84.7096 111.14 84.5043 111.14ZM86.5595 111V103.986H87.5955V111H86.5595ZM87.0775 102.642C86.8909 102.642 86.7275 102.572 86.5875 102.432C86.4475 102.292 86.3775 102.129 86.3775 101.942C86.3775 101.746 86.4475 101.583 86.5875 101.452C86.7275 101.312 86.8909 101.242 87.0775 101.242C87.2735 101.242 87.4369 101.312 87.5675 101.452C87.7075 101.583 87.7775 101.746 87.7775 101.942C87.7775 102.129 87.7075 102.292 87.5675 102.432C87.4369 102.572 87.2735 102.642 87.0775 102.642ZM92.2683 111.112C91.6149 111.112 91.0176 110.953 90.4763 110.636C89.9443 110.309 89.5196 109.875 89.2023 109.334C88.8943 108.783 88.7403 108.167 88.7403 107.486C88.7403 106.805 88.8943 106.193 89.2023 105.652C89.5196 105.111 89.9443 104.681 90.4763 104.364C91.0176 104.037 91.6196 103.874 92.2823 103.874C92.6929 103.874 93.0896 103.944 93.4723 104.084C93.8549 104.215 94.2049 104.411 94.5223 104.672V101.2L95.5583 100.962V111H94.5363V110.258C93.9203 110.827 93.1643 111.112 92.2683 111.112ZM92.3663 110.202C92.8049 110.202 93.2109 110.118 93.5843 109.95C93.9669 109.773 94.2796 109.53 94.5223 109.222V105.75C94.2796 105.451 93.9669 105.218 93.5843 105.05C93.2109 104.873 92.8049 104.784 92.3663 104.784C91.8809 104.784 91.4376 104.901 91.0363 105.134C90.6443 105.367 90.3316 105.689 90.0983 106.1C89.8743 106.501 89.7623 106.959 89.7623 107.472C89.7623 107.985 89.8743 108.447 90.0983 108.858C90.3316 109.269 90.6443 109.595 91.0363 109.838C91.4376 110.081 91.8809 110.202 92.3663 110.202ZM99.2321 111.126C98.7188 111.126 98.2661 111.037 97.8741 110.86C97.4914 110.683 97.1881 110.435 96.9641 110.118C96.7494 109.801 96.6421 109.432 96.6421 109.012C96.6421 108.349 96.8941 107.827 97.3981 107.444C97.9021 107.061 98.5834 106.87 99.4421 106.87C100.198 106.87 100.884 107.029 101.5 107.346V106.422C101.5 105.862 101.341 105.442 101.024 105.162C100.707 104.873 100.245 104.728 99.6381 104.728C99.2928 104.728 98.9428 104.779 98.5881 104.882C98.2428 104.975 97.8601 105.129 97.4401 105.344L97.0481 104.546C97.5521 104.303 98.0188 104.126 98.4481 104.014C98.8774 103.902 99.3068 103.846 99.7361 103.846C100.623 103.846 101.304 104.056 101.78 104.476C102.265 104.896 102.508 105.498 102.508 106.282V111H101.5V110.314C101.183 110.585 100.833 110.79 100.45 110.93C100.077 111.061 99.6708 111.126 99.2321 111.126ZM97.6361 108.984C97.6361 109.376 97.7994 109.698 98.1261 109.95C98.4621 110.193 98.8914 110.314 99.4141 110.314C99.8341 110.314 100.217 110.249 100.562 110.118C100.907 109.987 101.22 109.782 101.5 109.502V108.186C101.211 107.99 100.903 107.85 100.576 107.766C100.249 107.673 99.8808 107.626 99.4701 107.626C98.9101 107.626 98.4621 107.752 98.1261 108.004C97.7994 108.247 97.6361 108.573 97.6361 108.984ZM107.145 111.112C106.492 111.112 105.894 110.953 105.353 110.636C104.821 110.309 104.396 109.875 104.079 109.334C103.771 108.783 103.617 108.167 103.617 107.486C103.617 106.805 103.771 106.193 104.079 105.652C104.396 105.111 104.821 104.681 105.353 104.364C105.894 104.037 106.496 103.874 107.159 103.874C107.57 103.874 107.966 103.944 108.349 104.084C108.732 104.215 109.082 104.411 109.399 104.672V101.2L110.435 100.962V111H109.413V110.258C108.797 110.827 108.041 111.112 107.145 111.112ZM107.243 110.202C107.682 110.202 108.088 110.118 108.461 109.95C108.844 109.773 109.156 109.53 109.399 109.222V105.75C109.156 105.451 108.844 105.218 108.461 105.05C108.088 104.873 107.682 104.784 107.243 104.784C106.758 104.784 106.314 104.901 105.913 105.134C105.521 105.367 105.208 105.689 104.975 106.1C104.751 106.501 104.639 106.959 104.639 107.472C104.639 107.985 104.751 108.447 104.975 108.858C105.208 109.269 105.521 109.595 105.913 109.838C106.314 110.081 106.758 110.202 107.243 110.202ZM115.187 111.126C114.515 111.126 113.903 110.967 113.353 110.65C112.811 110.323 112.377 109.885 112.051 109.334C111.733 108.783 111.575 108.167 111.575 107.486C111.575 106.814 111.729 106.207 112.037 105.666C112.345 105.115 112.76 104.681 113.283 104.364C113.805 104.037 114.389 103.874 115.033 103.874C115.658 103.874 116.218 104.037 116.713 104.364C117.217 104.681 117.613 105.115 117.903 105.666C118.201 106.207 118.351 106.814 118.351 107.486V107.808H112.597C112.653 108.265 112.797 108.676 113.031 109.04C113.273 109.404 113.586 109.693 113.969 109.908C114.351 110.113 114.771 110.216 115.229 110.216C115.593 110.216 115.947 110.16 116.293 110.048C116.638 109.936 116.927 109.777 117.161 109.572L117.805 110.258C117.413 110.547 117.002 110.767 116.573 110.916C116.153 111.056 115.691 111.126 115.187 111.126ZM112.625 106.982H117.315C117.259 106.562 117.119 106.189 116.895 105.862C116.68 105.526 116.409 105.265 116.083 105.078C115.756 104.882 115.397 104.784 115.005 104.784C114.603 104.784 114.235 104.877 113.899 105.064C113.563 105.251 113.283 105.512 113.059 105.848C112.835 106.175 112.69 106.553 112.625 106.982ZM121.807 111.14C121.229 111.14 120.683 111.047 120.169 110.86C119.665 110.664 119.227 110.393 118.853 110.048L119.483 109.376C119.81 109.675 120.169 109.908 120.561 110.076C120.953 110.235 121.355 110.314 121.765 110.314C122.325 110.314 122.783 110.197 123.137 109.964C123.492 109.731 123.669 109.427 123.669 109.054C123.669 108.746 123.562 108.508 123.347 108.34C123.142 108.163 122.815 108.041 122.367 107.976L121.149 107.808C120.449 107.705 119.927 107.495 119.581 107.178C119.245 106.861 119.077 106.431 119.077 105.89C119.077 105.498 119.189 105.148 119.413 104.84C119.637 104.532 119.945 104.289 120.337 104.112C120.739 103.935 121.196 103.846 121.709 103.846C122.223 103.846 122.703 103.921 123.151 104.07C123.599 104.219 124.038 104.453 124.467 104.77L123.921 105.47C123.529 105.199 123.147 105.003 122.773 104.882C122.409 104.751 122.036 104.686 121.653 104.686C121.168 104.686 120.776 104.793 120.477 105.008C120.179 105.223 120.029 105.503 120.029 105.848C120.029 106.165 120.132 106.408 120.337 106.576C120.543 106.735 120.874 106.847 121.331 106.912L122.549 107.08C123.249 107.173 123.772 107.379 124.117 107.696C124.472 108.013 124.649 108.447 124.649 108.998C124.649 109.399 124.523 109.763 124.271 110.09C124.019 110.417 123.679 110.673 123.249 110.86C122.829 111.047 122.349 111.14 121.807 111.14Z" fill="#243A68"/>
</svg>
