<svg width="163" height="132" viewBox="0 0 163 132" fill="none" xmlns="http://www.w3.org/2000/svg">
<rect x="0.199219" width="162" height="132" rx="8" fill="white"/>
<path d="M71.8476 36.5294L58.1992 51.7059L62.8329 61L71.8476 50.0588L80.0197 59.5882L97.2908 35.9412L101.251 40.6471L104.199 19L88.7816 25.2353L92.9098 30.1765L80.0197 47.4706L71.8476 36.5294Z" stroke="#FE666F" stroke-width="1.6" stroke-linejoin="round"/>
<path d="M42.6087 89V77.8H44.2887V89H42.6087ZM46.0854 89V80.856H47.6854V81.688C48.3147 81.0267 49.1307 80.696 50.1334 80.696C50.7627 80.696 51.3121 80.8293 51.7814 81.096C52.2614 81.3627 52.6347 81.736 52.9014 82.216C53.1787 82.696 53.3174 83.2507 53.3174 83.88V89H51.7174V84.152C51.7174 83.512 51.5361 83.0107 51.1734 82.648C50.8214 82.2747 50.3254 82.088 49.6854 82.088C49.2587 82.088 48.8747 82.1787 48.5334 82.36C48.1921 82.5413 47.9094 82.8027 47.6854 83.144V89H46.0854ZM57.0657 89L53.5457 80.856H55.3057L57.8497 86.952L60.3937 80.856H62.0897L58.6017 89H57.0657ZM66.4519 89.144C65.6519 89.144 64.9266 88.9573 64.2759 88.584C63.6359 88.2107 63.1239 87.704 62.7399 87.064C62.3666 86.424 62.1799 85.7093 62.1799 84.92C62.1799 84.1413 62.3612 83.4373 62.7239 82.808C63.0866 82.168 63.5772 81.6613 64.1959 81.288C64.8146 80.904 65.5026 80.712 66.2599 80.712C67.0172 80.712 67.6892 80.904 68.2759 81.288C68.8626 81.6613 69.3266 82.1733 69.6679 82.824C70.0199 83.464 70.1959 84.1893 70.1959 85V85.448H63.7799C63.8652 85.896 64.0306 86.296 64.2759 86.648C64.5319 87 64.8519 87.2773 65.2359 87.48C65.6306 87.6827 66.0572 87.784 66.5159 87.784C66.9106 87.784 67.2892 87.7253 67.6519 87.608C68.0252 87.48 68.3346 87.2987 68.5799 87.064L69.6039 88.072C69.1239 88.4347 68.6279 88.7067 68.1159 88.888C67.6146 89.0587 67.0599 89.144 66.4519 89.144ZM63.7959 84.248H68.6119C68.5479 83.8213 68.3986 83.448 68.1639 83.128C67.9399 82.7973 67.6572 82.5413 67.3159 82.36C66.9852 82.168 66.6226 82.072 66.2279 82.072C65.8226 82.072 65.4492 82.1627 65.1079 82.344C64.7666 82.5253 64.4786 82.7813 64.2439 83.112C64.0199 83.432 63.8706 83.8107 63.7959 84.248ZM71.4198 89V80.856H73.0198V81.896C73.2758 81.512 73.5904 81.2133 73.9638 81C74.3478 80.776 74.7798 80.664 75.2598 80.664C75.5904 80.6747 75.8624 80.7227 76.0758 80.808V82.248C75.9264 82.184 75.7718 82.1413 75.6118 82.12C75.4518 82.088 75.2918 82.072 75.1318 82.072C74.6624 82.072 74.2464 82.2 73.8838 82.456C73.5211 82.7013 73.2331 83.064 73.0198 83.544V89H71.4198ZM79.8573 89.16C79.1533 89.16 78.4919 89.0587 77.8733 88.856C77.2653 88.6427 76.7373 88.344 76.2893 87.96L77.1693 86.904C77.5853 87.2347 78.0119 87.4907 78.4493 87.672C78.8973 87.8427 79.3506 87.928 79.8093 87.928C80.3853 87.928 80.8546 87.816 81.2173 87.592C81.5799 87.368 81.7613 87.0747 81.7613 86.712C81.7613 86.4133 81.6546 86.1787 81.4413 86.008C81.2279 85.8373 80.8973 85.72 80.4493 85.656L78.9773 85.448C78.1666 85.3307 77.5586 85.08 77.1533 84.696C76.7479 84.312 76.5453 83.8 76.5453 83.16C76.5453 82.6693 76.6786 82.2427 76.9453 81.88C77.2119 81.5067 77.5853 81.2187 78.0653 81.016C78.5453 80.8027 79.1053 80.696 79.7453 80.696C80.3319 80.696 80.8973 80.7813 81.4413 80.952C81.9853 81.1227 82.5079 81.3893 83.0093 81.752L82.1933 82.808C81.7453 82.5093 81.3079 82.2907 80.8813 82.152C80.4653 82.0133 80.0439 81.944 79.6173 81.944C79.1266 81.944 78.7319 82.0507 78.4333 82.264C78.1346 82.4667 77.9853 82.7333 77.9853 83.064C77.9853 83.3627 78.0866 83.5973 78.2893 83.768C78.5026 83.928 78.8493 84.04 79.3293 84.104L80.8013 84.312C81.6119 84.4293 82.2253 84.68 82.6413 85.064C83.0573 85.4373 83.2653 85.944 83.2653 86.584C83.2653 87.0747 83.1159 87.5173 82.8173 87.912C82.5186 88.296 82.1133 88.6 81.6013 88.824C81.0893 89.048 80.5079 89.16 79.8573 89.16ZM84.1948 89V80.856H85.7948V89H84.1948ZM84.9948 79.544C84.7281 79.544 84.4988 79.448 84.3068 79.256C84.1148 79.0533 84.0188 78.8187 84.0188 78.552C84.0188 78.2747 84.1148 78.0453 84.3068 77.864C84.4988 77.672 84.7281 77.576 84.9948 77.576C85.2721 77.576 85.5068 77.672 85.6988 77.864C85.8908 78.0453 85.9868 78.2747 85.9868 78.552C85.9868 78.8187 85.8908 79.0533 85.6988 79.256C85.5068 79.448 85.2721 79.544 84.9948 79.544ZM91.2512 89.16C90.4618 89.16 89.7418 88.9733 89.0912 88.6C88.4512 88.2267 87.9445 87.72 87.5712 87.08C87.1978 86.44 87.0112 85.7253 87.0112 84.936C87.0112 84.1467 87.1978 83.432 87.5712 82.792C87.9445 82.152 88.4512 81.6453 89.0912 81.272C89.7418 80.888 90.4618 80.696 91.2512 80.696C92.0512 80.696 92.7712 80.888 93.4112 81.272C94.0512 81.6453 94.5578 82.152 94.9312 82.792C95.3045 83.432 95.4912 84.1467 95.4912 84.936C95.4912 85.7253 95.3045 86.44 94.9312 87.08C94.5578 87.72 94.0512 88.2267 93.4112 88.6C92.7712 88.9733 92.0512 89.16 91.2512 89.16ZM91.2512 87.752C91.7525 87.752 92.2058 87.6293 92.6112 87.384C93.0165 87.128 93.3365 86.7867 93.5712 86.36C93.8058 85.9333 93.9232 85.4533 93.9232 84.92C93.9232 84.3973 93.8005 83.928 93.5552 83.512C93.3205 83.0853 93.0005 82.744 92.5952 82.488C92.2005 82.232 91.7525 82.104 91.2512 82.104C90.7498 82.104 90.2965 82.232 89.8912 82.488C89.4965 82.744 89.1765 83.0853 88.9312 83.512C88.6965 83.928 88.5792 84.3973 88.5792 84.92C88.5792 85.4533 88.6965 85.9333 88.9312 86.36C89.1658 86.7867 89.4858 87.128 89.8912 87.384C90.2965 87.6293 90.7498 87.752 91.2512 87.752ZM96.7042 89V80.856H98.3042V81.688C98.9335 81.0267 99.7495 80.696 100.752 80.696C101.381 80.696 101.931 80.8293 102.4 81.096C102.88 81.3627 103.253 81.736 103.52 82.216C103.797 82.696 103.936 83.2507 103.936 83.88V89H102.336V84.152C102.336 83.512 102.155 83.0107 101.792 82.648C101.44 82.2747 100.944 82.088 100.304 82.088C99.8775 82.088 99.4935 82.1787 99.1522 82.36C98.8108 82.5413 98.5282 82.8027 98.3042 83.144V89H96.7042ZM109.386 89.144C108.586 89.144 107.861 88.9573 107.21 88.584C106.57 88.2107 106.058 87.704 105.674 87.064C105.301 86.424 105.114 85.7093 105.114 84.92C105.114 84.1413 105.296 83.4373 105.658 82.808C106.021 82.168 106.512 81.6613 107.13 81.288C107.749 80.904 108.437 80.712 109.194 80.712C109.952 80.712 110.624 80.904 111.21 81.288C111.797 81.6613 112.261 82.1733 112.602 82.824C112.954 83.464 113.13 84.1893 113.13 85V85.448H106.714C106.8 85.896 106.965 86.296 107.21 86.648C107.466 87 107.786 87.2773 108.17 87.48C108.565 87.6827 108.992 87.784 109.45 87.784C109.845 87.784 110.224 87.7253 110.586 87.608C110.96 87.48 111.269 87.2987 111.514 87.064L112.538 88.072C112.058 88.4347 111.562 88.7067 111.05 88.888C110.549 89.0587 109.994 89.144 109.386 89.144ZM106.73 84.248H111.546C111.482 83.8213 111.333 83.448 111.098 83.128C110.874 82.7973 110.592 82.5413 110.25 82.36C109.92 82.168 109.557 82.072 109.162 82.072C108.757 82.072 108.384 82.1627 108.042 82.344C107.701 82.5253 107.413 82.7813 107.178 83.112C106.954 83.432 106.805 83.8107 106.73 84.248ZM117.232 89.16C116.528 89.16 115.867 89.0587 115.248 88.856C114.64 88.6427 114.112 88.344 113.664 87.96L114.544 86.904C114.96 87.2347 115.387 87.4907 115.824 87.672C116.272 87.8427 116.726 87.928 117.184 87.928C117.76 87.928 118.23 87.816 118.592 87.592C118.955 87.368 119.136 87.0747 119.136 86.712C119.136 86.4133 119.03 86.1787 118.816 86.008C118.603 85.8373 118.272 85.72 117.824 85.656L116.352 85.448C115.542 85.3307 114.934 85.08 114.528 84.696C114.123 84.312 113.92 83.8 113.92 83.16C113.92 82.6693 114.054 82.2427 114.32 81.88C114.587 81.5067 114.96 81.2187 115.44 81.016C115.92 80.8027 116.48 80.696 117.12 80.696C117.707 80.696 118.272 80.7813 118.816 80.952C119.36 81.1227 119.883 81.3893 120.384 81.752L119.568 82.808C119.12 82.5093 118.683 82.2907 118.256 82.152C117.84 82.0133 117.419 81.944 116.992 81.944C116.502 81.944 116.107 82.0507 115.808 82.264C115.51 82.4667 115.36 82.7333 115.36 83.064C115.36 83.3627 115.462 83.5973 115.664 83.768C115.878 83.928 116.224 84.04 116.704 84.104L118.176 84.312C118.987 84.4293 119.6 84.68 120.016 85.064C120.432 85.4373 120.64 85.944 120.64 86.584C120.64 87.0747 120.491 87.5173 120.192 87.912C119.894 88.296 119.488 88.6 118.976 88.824C118.464 89.048 117.883 89.16 117.232 89.16Z" fill="#243A68"/>
<path d="M25.279 111V101.2H26.357V111H25.279ZM28.0232 111V103.986H29.0592V104.812C29.6099 104.168 30.3472 103.846 31.2712 103.846C31.8032 103.846 32.2699 103.963 32.6712 104.196C33.0819 104.42 33.3992 104.737 33.6232 105.148C33.8565 105.549 33.9732 106.021 33.9732 106.562V111H32.9512V106.772C32.9512 106.147 32.7739 105.657 32.4192 105.302C32.0739 104.938 31.5979 104.756 30.9912 104.756C30.5712 104.756 30.1979 104.849 29.8712 105.036C29.5445 105.223 29.2739 105.489 29.0592 105.834V111H28.0232ZM37.291 111L34.253 103.986H35.401L37.795 109.656L40.189 103.986H41.295L38.271 111H37.291ZM41.9427 111V103.986H42.9787V111H41.9427ZM42.4607 102.642C42.2741 102.642 42.1107 102.572 41.9707 102.432C41.8307 102.292 41.7607 102.129 41.7607 101.942C41.7607 101.746 41.8307 101.583 41.9707 101.452C42.1107 101.312 42.2741 101.242 42.4607 101.242C42.6567 101.242 42.8201 101.312 42.9507 101.452C43.0907 101.583 43.1607 101.746 43.1607 101.942C43.1607 102.129 43.0907 102.292 42.9507 102.432C42.8201 102.572 42.6567 102.642 42.4607 102.642ZM47.7355 111.126C47.0635 111.126 46.4521 110.967 45.9015 110.65C45.3601 110.323 44.9261 109.885 44.5995 109.334C44.2821 108.783 44.1235 108.167 44.1235 107.486C44.1235 106.814 44.2775 106.207 44.5855 105.666C44.8935 105.115 45.3088 104.681 45.8315 104.364C46.3541 104.037 46.9375 103.874 47.5815 103.874C48.2068 103.874 48.7668 104.037 49.2615 104.364C49.7655 104.681 50.1621 105.115 50.4515 105.666C50.7501 106.207 50.8995 106.814 50.8995 107.486V107.808H45.1455C45.2015 108.265 45.3461 108.676 45.5795 109.04C45.8221 109.404 46.1348 109.693 46.5175 109.908C46.9001 110.113 47.3201 110.216 47.7775 110.216C48.1415 110.216 48.4961 110.16 48.8415 110.048C49.1868 109.936 49.4761 109.777 49.7095 109.572L50.3535 110.258C49.9615 110.547 49.5508 110.767 49.1215 110.916C48.7015 111.056 48.2395 111.126 47.7355 111.126ZM45.1735 106.982H49.8635C49.8075 106.562 49.6675 106.189 49.4435 105.862C49.2288 105.526 48.9581 105.265 48.6315 105.078C48.3048 104.882 47.9455 104.784 47.5535 104.784C47.1521 104.784 46.7835 104.877 46.4475 105.064C46.1115 105.251 45.8315 105.512 45.6075 105.848C45.3835 106.175 45.2388 106.553 45.1735 106.982ZM52.0478 111V103.986H53.0838V104.98C53.2985 104.616 53.5692 104.336 53.8958 104.14C54.2318 103.935 54.6145 103.832 55.0438 103.832C55.2865 103.832 55.5058 103.865 55.7018 103.93V104.882C55.5805 104.835 55.4592 104.803 55.3378 104.784C55.2165 104.765 55.0952 104.756 54.9738 104.756C54.5445 104.756 54.1665 104.882 53.8398 105.134C53.5225 105.377 53.2705 105.731 53.0838 106.198V111H52.0478ZM59.3457 111.14C58.739 111.14 58.2723 110.995 57.9457 110.706C57.619 110.417 57.4557 109.997 57.4557 109.446V104.868H55.9437V103.986H57.4557V102.208L58.4777 101.942V103.986H60.5917V104.868H58.4777V109.18C58.4777 109.553 58.5617 109.824 58.7297 109.992C58.8977 110.151 59.173 110.23 59.5557 110.23C59.7517 110.23 59.9243 110.216 60.0737 110.188C60.2323 110.16 60.4003 110.113 60.5777 110.048V110.958C60.4003 111.023 60.1997 111.07 59.9757 111.098C59.761 111.126 59.551 111.14 59.3457 111.14ZM64.5542 111.126C63.8822 111.126 63.2709 110.967 62.7202 110.65C62.1789 110.323 61.7449 109.885 61.4182 109.334C61.1009 108.783 60.9422 108.167 60.9422 107.486C60.9422 106.814 61.0962 106.207 61.4042 105.666C61.7122 105.115 62.1276 104.681 62.6502 104.364C63.1729 104.037 63.7562 103.874 64.4002 103.874C65.0256 103.874 65.5856 104.037 66.0802 104.364C66.5842 104.681 66.9809 105.115 67.2702 105.666C67.5689 106.207 67.7182 106.814 67.7182 107.486V107.808H61.9642C62.0202 108.265 62.1649 108.676 62.3982 109.04C62.6409 109.404 62.9536 109.693 63.3362 109.908C63.7189 110.113 64.1389 110.216 64.5962 110.216C64.9602 110.216 65.3149 110.16 65.6602 110.048C66.0056 109.936 66.2949 109.777 66.5282 109.572L67.1722 110.258C66.7802 110.547 66.3696 110.767 65.9402 110.916C65.5202 111.056 65.0582 111.126 64.5542 111.126ZM61.9922 106.982H66.6822C66.6262 106.562 66.4862 106.189 66.2622 105.862C66.0476 105.526 65.7769 105.265 65.4502 105.078C65.1236 104.882 64.7642 104.784 64.3722 104.784C63.9709 104.784 63.6022 104.877 63.2662 105.064C62.9302 105.251 62.6502 105.512 62.4262 105.848C62.2022 106.175 62.0576 106.553 61.9922 106.982ZM74.8224 111.126C74.1597 111.126 73.5577 110.967 73.0164 110.65C72.475 110.323 72.0457 109.885 71.7284 109.334C71.411 108.783 71.2524 108.167 71.2524 107.486C71.2524 106.805 71.411 106.193 71.7284 105.652C72.0457 105.101 72.475 104.663 73.0164 104.336C73.5577 104.009 74.1597 103.846 74.8224 103.846C75.3357 103.846 75.8304 103.944 76.3064 104.14C76.7824 104.327 77.2024 104.597 77.5664 104.952L76.9084 105.708C76.6284 105.409 76.3064 105.185 75.9424 105.036C75.5877 104.877 75.219 104.798 74.8364 104.798C74.3604 104.798 73.9264 104.919 73.5344 105.162C73.1517 105.395 72.8437 105.717 72.6104 106.128C72.3864 106.529 72.2744 106.982 72.2744 107.486C72.2744 107.99 72.3864 108.447 72.6104 108.858C72.8437 109.269 73.1564 109.595 73.5484 109.838C73.9404 110.071 74.3744 110.188 74.8504 110.188C75.233 110.188 75.5924 110.113 75.9284 109.964C76.2737 109.815 76.5957 109.595 76.8944 109.306L77.5384 110.006C77.165 110.361 76.745 110.636 76.2784 110.832C75.8117 111.028 75.3264 111.126 74.8224 111.126ZM81.509 111.14C80.8464 111.14 80.2397 110.981 79.689 110.664C79.1477 110.337 78.7184 109.899 78.401 109.348C78.0837 108.797 77.925 108.181 77.925 107.5C77.925 106.819 78.0837 106.203 78.401 105.652C78.7184 105.101 79.1477 104.667 79.689 104.35C80.2397 104.023 80.8464 103.86 81.509 103.86C82.181 103.86 82.7877 104.023 83.329 104.35C83.8704 104.667 84.2997 105.101 84.617 105.652C84.9344 106.203 85.093 106.819 85.093 107.5C85.093 108.181 84.9344 108.797 84.617 109.348C84.2997 109.899 83.8704 110.337 83.329 110.664C82.7877 110.981 82.181 111.14 81.509 111.14ZM81.509 110.216C81.985 110.216 82.4144 110.095 82.797 109.852C83.189 109.609 83.497 109.283 83.721 108.872C83.9544 108.461 84.071 108.004 84.071 107.5C84.071 106.987 83.9544 106.529 83.721 106.128C83.497 105.717 83.189 105.391 82.797 105.148C82.4144 104.905 81.985 104.784 81.509 104.784C81.033 104.784 80.599 104.905 80.207 105.148C79.8244 105.391 79.5164 105.717 79.283 106.128C79.059 106.529 78.947 106.987 78.947 107.5C78.947 108.004 79.059 108.461 79.283 108.872C79.5164 109.283 79.8244 109.609 80.207 109.852C80.599 110.095 81.033 110.216 81.509 110.216ZM86.2322 111V103.986H87.2682V104.812C87.8189 104.168 88.5562 103.846 89.4802 103.846C90.0122 103.846 90.4789 103.963 90.8802 104.196C91.2909 104.42 91.6082 104.737 91.8322 105.148C92.0655 105.549 92.1822 106.021 92.1822 106.562V111H91.1602V106.772C91.1602 106.147 90.9829 105.657 90.6282 105.302C90.2829 104.938 89.8069 104.756 89.2002 104.756C88.7802 104.756 88.4069 104.849 88.0802 105.036C87.7535 105.223 87.4829 105.489 87.2682 105.834V111H86.2322ZM99.5716 111.126C98.9089 111.126 98.3069 110.967 97.7656 110.65C97.2243 110.323 96.7949 109.885 96.4776 109.334C96.1603 108.783 96.0016 108.167 96.0016 107.486C96.0016 106.805 96.1603 106.193 96.4776 105.652C96.7949 105.101 97.2243 104.663 97.7656 104.336C98.3069 104.009 98.9089 103.846 99.5716 103.846C100.085 103.846 100.58 103.944 101.056 104.14C101.532 104.327 101.952 104.597 102.316 104.952L101.658 105.708C101.378 105.409 101.056 105.185 100.692 105.036C100.337 104.877 99.9683 104.798 99.5856 104.798C99.1096 104.798 98.6756 104.919 98.2836 105.162C97.9009 105.395 97.5929 105.717 97.3596 106.128C97.1356 106.529 97.0236 106.982 97.0236 107.486C97.0236 107.99 97.1356 108.447 97.3596 108.858C97.5929 109.269 97.9056 109.595 98.2976 109.838C98.6896 110.071 99.1236 110.188 99.5996 110.188C99.9823 110.188 100.342 110.113 100.678 109.964C101.023 109.815 101.345 109.595 101.644 109.306L102.288 110.006C101.914 110.361 101.494 110.636 101.028 110.832C100.561 111.028 100.076 111.126 99.5716 111.126ZM105.413 111.126C104.9 111.126 104.447 111.037 104.055 110.86C103.673 110.683 103.369 110.435 103.145 110.118C102.931 109.801 102.823 109.432 102.823 109.012C102.823 108.349 103.075 107.827 103.579 107.444C104.083 107.061 104.765 106.87 105.623 106.87C106.379 106.87 107.065 107.029 107.681 107.346V106.422C107.681 105.862 107.523 105.442 107.205 105.162C106.888 104.873 106.426 104.728 105.819 104.728C105.474 104.728 105.124 104.779 104.769 104.882C104.424 104.975 104.041 105.129 103.621 105.344L103.229 104.546C103.733 104.303 104.2 104.126 104.629 104.014C105.059 103.902 105.488 103.846 105.917 103.846C106.804 103.846 107.485 104.056 107.961 104.476C108.447 104.896 108.689 105.498 108.689 106.282V111H107.681V110.314C107.364 110.585 107.014 110.79 106.631 110.93C106.258 111.061 105.852 111.126 105.413 111.126ZM103.817 108.984C103.817 109.376 103.981 109.698 104.307 109.95C104.643 110.193 105.073 110.314 105.595 110.314C106.015 110.314 106.398 110.249 106.743 110.118C107.089 109.987 107.401 109.782 107.681 109.502V108.186C107.392 107.99 107.084 107.85 106.757 107.766C106.431 107.673 106.062 107.626 105.651 107.626C105.091 107.626 104.643 107.752 104.307 108.004C103.981 108.247 103.817 108.573 103.817 108.984ZM110.12 111V101.2L111.156 100.962V104.728C111.753 104.159 112.505 103.874 113.41 103.874C114.073 103.874 114.67 104.037 115.202 104.364C115.734 104.681 116.154 105.111 116.462 105.652C116.779 106.193 116.938 106.805 116.938 107.486C116.938 108.167 116.779 108.783 116.462 109.334C116.154 109.875 115.734 110.309 115.202 110.636C114.67 110.953 114.068 111.112 113.396 111.112C112.985 111.112 112.584 111.042 112.192 110.902C111.809 110.762 111.459 110.561 111.142 110.3V111H110.12ZM113.312 110.202C113.807 110.202 114.25 110.085 114.642 109.852C115.034 109.609 115.342 109.287 115.566 108.886C115.799 108.475 115.916 108.013 115.916 107.5C115.916 106.987 115.799 106.525 115.566 106.114C115.342 105.703 115.034 105.381 114.642 105.148C114.25 104.905 113.807 104.784 113.312 104.784C112.873 104.784 112.463 104.873 112.08 105.05C111.707 105.218 111.399 105.456 111.156 105.764V109.236C111.399 109.535 111.711 109.773 112.094 109.95C112.477 110.118 112.883 110.202 113.312 110.202ZM121.368 111.126C120.696 111.126 120.085 110.967 119.534 110.65C118.993 110.323 118.559 109.885 118.232 109.334C117.915 108.783 117.756 108.167 117.756 107.486C117.756 106.814 117.91 106.207 118.218 105.666C118.526 105.115 118.941 104.681 119.464 104.364C119.987 104.037 120.57 103.874 121.214 103.874C121.839 103.874 122.399 104.037 122.894 104.364C123.398 104.681 123.795 105.115 124.084 105.666C124.383 106.207 124.532 106.814 124.532 107.486V107.808H118.778C118.834 108.265 118.979 108.676 119.212 109.04C119.455 109.404 119.767 109.693 120.15 109.908C120.533 110.113 120.953 110.216 121.41 110.216C121.774 110.216 122.129 110.16 122.474 110.048C122.819 109.936 123.109 109.777 123.342 109.572L123.986 110.258C123.594 110.547 123.183 110.767 122.754 110.916C122.334 111.056 121.872 111.126 121.368 111.126ZM118.806 106.982H123.496C123.44 106.562 123.3 106.189 123.076 105.862C122.861 105.526 122.591 105.265 122.264 105.078C121.937 104.882 121.578 104.784 121.186 104.784C120.785 104.784 120.416 104.877 120.08 105.064C119.744 105.251 119.464 105.512 119.24 105.848C119.016 106.175 118.871 106.553 118.806 106.982ZM125.232 111V110.188L129.46 104.91H125.274V103.986H130.72V104.784L126.478 110.076H130.762V111H125.232ZM134.073 111.126C133.559 111.126 133.107 111.037 132.715 110.86C132.332 110.683 132.029 110.435 131.805 110.118C131.59 109.801 131.483 109.432 131.483 109.012C131.483 108.349 131.735 107.827 132.239 107.444C132.743 107.061 133.424 106.87 134.283 106.87C135.039 106.87 135.725 107.029 136.341 107.346V106.422C136.341 105.862 136.182 105.442 135.865 105.162C135.547 104.873 135.085 104.728 134.479 104.728C134.133 104.728 133.783 104.779 133.429 104.882C133.083 104.975 132.701 105.129 132.281 105.344L131.889 104.546C132.393 104.303 132.859 104.126 133.289 104.014C133.718 103.902 134.147 103.846 134.577 103.846C135.463 103.846 136.145 104.056 136.621 104.476C137.106 104.896 137.349 105.498 137.349 106.282V111H136.341V110.314C136.023 110.585 135.673 110.79 135.291 110.93C134.917 111.061 134.511 111.126 134.073 111.126ZM132.477 108.984C132.477 109.376 132.64 109.698 132.967 109.95C133.303 110.193 133.732 110.314 134.255 110.314C134.675 110.314 135.057 110.249 135.403 110.118C135.748 109.987 136.061 109.782 136.341 109.502V108.186C136.051 107.99 135.743 107.85 135.417 107.766C135.09 107.673 134.721 107.626 134.311 107.626C133.751 107.626 133.303 107.752 132.967 108.004C132.64 108.247 132.477 108.573 132.477 108.984Z" fill="#243A68"/>
</svg>
