<svg height="406" viewBox="0 0 222 406" width="222" xmlns="http://www.w3.org/2000/svg"><path d="m441.644562 189c-61.958151 0-108.863323 15.554782-154.265408 33.751372-67.683146 29.743111-142.152291 46.25441-220.379154 46.25441-78.0500295 0-152.3865487-16.420202-219.93707-46.049442-45.556814-18.287687-92.572507-33.95634-154.707492-33.95634-103.469892 0-187.355438 86.405334-187.355438 193.011387 0 106.583279 83.885546 192.988613 187.355438 192.988613 62.134985 0 109.150678-15.668653 154.707492-33.95634 67.5505213-29.62924 141.8870405-46.049442 219.93707-46.049442 78.226863 0 152.696008 16.511299 220.379154 46.25441 45.402085 18.219364 92.307257 33.751372 154.265408 33.751372 103.469892 0 187.355438-86.405334 187.355438-192.988613 0-106.606053-83.885546-193.011387-187.355438-193.011387" fill="none" stroke="#3d7aff" stroke-width="2" transform="matrix(.8660254 -.5 .5 .8660254 -542.023702 82.678296)"/></svg>