<svg height="35" viewBox="0 0 267 35" width="267" xmlns="http://www.w3.org/2000/svg"><g fill="#fff" fill-rule="evenodd"><path d="m26.7425278 0c-1.2624938 0-2.2182597.29628587-3.1433978.64289261-1.3791495.56697749-2.8965742.88104919-4.4905683.88104919-1.5903908 0-3.1051131-.3127703-4.4815601-.87714498-.928291-.34834195-1.886309-.64679682-3.152406-.64679682-2.10836012 0-3.81765868 1.64583979-3.81765868 3.67646078s1.70929856 3.67646078 3.81765868 3.67646078c1.266097 0 2.224115-.29845487 3.152406-.64679682 1.376447-.56437468 2.8911693-.87714497 4.4815601-.87714497 1.5939941 0 3.1114188.31407169 4.4905683.88104918.9251381.34660675 1.880904.64289261 3.1433978.64289261 2.1083601 0 3.8176587-1.64583979 3.8176587-3.67646078s-1.7092986-3.67646078-3.8176587-3.67646078"/><path d="m15.2913534 26.2340962c0-2.0306209-1.7088481-3.6764607-3.8172082-3.6764607-2.10790972 0-3.81720828 1.6458398-3.81720828 3.6764607 0 2.030621 1.70929856 3.6764608 3.81720828 3.6764608 2.1083601 0 3.8172082-1.6458398 3.8172082-3.6764608"/><path d="m19.0855909 11.2788177c-1.2624938 0-2.2182597.2962859-3.1438482.6428926-1.3786991.5669775-2.8965742.8810492-4.4901179.8810492-1.59039087 0-3.10556356-.3127703-4.48156016-.8771449-.92874141-.348342-1.88630893-.6467969-3.15285638-.6467969-2.1083601 0-3.81720826 1.6458398-3.81720826 3.6764608 0 2.0301872 1.70884816 3.6764608 3.81720826 3.6764608 1.26654745 0 2.22411497-.2988887 3.15285638-.6472306 1.3759966-.5643747 2.89116929-.8767112 4.48156016-.8767112 1.5935437 0 3.1114188.3140717 4.4901179.8806154.9255885.3470405 1.8813544.6428926 3.1438482.6433264 2.1083601 0 3.8172082-1.6462736 3.8172082-3.6764608 0-2.030621-1.7088481-3.6764608-3.8172082-3.6764608"/><path d="m49.9501824 7.89300341v2.73728229c-.3522191-.0277632-.6742609-.0559603-.9382-.0559603-1.6705635 0-2.8123479 1.0441583-2.8123479 2.7377161v2.0883165h3.691094v2.7377161h-3.691094v11.7403817h-3.2816731v-11.7403817h-2.8429756v-2.7377161h2.8429756v-2.0041591c0-3.47127309 2.226367-5.58778662 5.7422523-5.58778662.4693252 0 .908473.02863084 1.2899687.08459113"/><path d="m55.759095 9.70227761c.8206435.76218779.8206435 2.00415919 0 2.79324259-.820193.7621878-2.1092609.7621878-2.9299044 0-.7909165-.7890834-.7909165-2.0310548 0-2.79324259.8206435-.78995105 2.1097114-.78995105 2.9299044 0"/><path d="m52.6864113 29.6611216h3.2821235v-14.4780977h-3.2821235z"/><path d="m71.1635009 16.8201876c1.0836818 1.0723553 1.6408365 2.539903 1.6408365 4.3748799v8.7202613h-3.3114v-8.2973056c0-2.1451444-1.2899686-3.4999039-3.2816731-3.4999039-2.0799844 0-3.4870591 1.4961785-3.4870591 3.5281009v8.2691086h-3.2816731v-14.4780977h3.1055635v1.9187004c.84992-1.4389169 2.3155478-2.1729076 4.3955322-2.1729076 1.7291166 0 3.1352905.5366114 4.2198731 1.6371637"/><path d="m83.7888891 27.0344585v2.8223072c-.7323635.1127882-1.4651774.1691823-2.1979913.1691823-3.0767375 0-5.0107896-1.5239418-4.9806123-4.6846136l.0283757-7.2813444h-2.7830714v-2.7381499h2.7830714l.0292765-4.9106237h3.3118504l-.0297269 4.9106237h3.8095513v2.7381499h-3.8388278l-.0283757 6.6323786c0 1.6644932.820193 2.4830751 2.4903061 2.4830751.3513183 0 .8206435-.0563941 1.406174-.1409852"/><path d="m98.1141172 17.2431433c1.4949043 1.3829566 2.2277178 3.1893026 2.2277178 5.447669 0 2.2574987-.7328135 4.063411-2.2277178 5.4459337-1.464727 1.3833904-3.3406765 2.0601195-5.5963201 2.0601195-2.2858208 0-4.16132-.6767291-5.6557739-2.0601195-1.4642766-1.3825227-2.1966401-3.188435-2.1966401-5.4459337 0-2.2583664.7323635-4.0647124 2.1966401-5.447669 1.4944539-1.3825228 3.3699531-2.0601194 5.6557739-2.0601194 2.2556436 0 4.1315931.6775966 5.5963201 2.0601194m-5.5963201 10.2164399c2.6664157 0 4.5121879-1.8349769 4.5121879-4.7687709 0-2.9641601-1.8457722-4.7982694-4.5121879-4.7982694-2.6673165 0-4.5126382 1.8341093-4.5126382 4.7982694 0 2.933794 1.8453217 4.7687709 4.5126382 4.7687709"/><path d="m114.403124 16.8201876c1.084133 1.0723553 1.641287 2.539903 1.641287 4.3748799v8.7202613h-3.31185v-8.2973056c0-2.1451444-1.289068-3.4999039-3.281223-3.4999039-2.080434 0-3.48796 1.4961785-3.48796 3.5281009v8.2691086h-3.281673v-14.4780977h3.106465v1.9187004c.84992-1.4389169 2.315097-2.1729076 4.395081-2.1729076 1.729117 0 3.135741.5366114 4.219873 1.6371637"/><path d="m122.420388 9.70227761c.820193.76218779.820193 2.00415919 0 2.79324259-.820193.7621878-2.110612.7621878-2.930805 0-.790917-.7890834-.790917-2.0310548 0-2.79324259.820193-.78995105 2.110612-.78995105 2.930805 0zm-3.106014 19.94355259h3.281673v-14.4780978h-3.281673z"/><path d="m139.648046 20.6584561-3.22267.2824042c-.235113-1.8909371-1.69984-3.0478836-3.692445-3.0478836-2.490757 0-4.190597 1.7777152-4.190597 4.7978356 0 2.9632924 1.729567 4.7696385 4.190597 4.7696385 2.022332 0 3.399229-1.0723553 3.720821-2.8791352l3.22402.2819705c-.58598 3.2743275-3.281673 5.334447-6.944841 5.334447-2.197541 0-4.014938-.6771629-5.421112-2.0037254-1.406624-1.3547595-2.109711-3.1893026-2.109711-5.5031954 0-2.3429575.703087-4.1770668 2.080435-5.5036293 1.407075-1.3265625 3.22357-2.0041591 5.450388-2.0041591 3.663168 0 6.417864 2.0887503 6.915115 5.4754322"/><path d="m151.737705 34.8878412v-18.7593052h.727563l.111933 1.6615384h.055966c1.343193-1.0183622 2.966218-1.9831265 4.645209-1.9831265 3.637814 0 5.372772 2.5727047 5.372772 6.5389578 0 4.3414392-2.742353 6.9141439-5.932436 6.9141439-1.287227 0-2.686386-.5895781-4.141511-1.6079404v7.235732zm5.036973-6.3781638c2.910252 0 4.981008-2.5727047 4.981008-6.1637717 0-3.2694789-1.231261-5.7885856-4.533277-5.7885856-1.399159 0-2.910251.8039702-4.645208 2.2511166v7.9325062c1.623024 1.2863524 3.134116 1.7687345 4.197477 1.7687345zm10.073947.4287841v-12.8099255h.727563l.111933 2.4119107h.055966c.895462-1.5543425 2.182689-2.7334988 3.805714-2.7334988.447731 0 .839495.053598 1.287226.2679901l-.223865.7503722c-.447731-.1607941-.671597-.2143921-1.175294-.2143921-1.23126 0-2.686386.9111663-3.749747 3.430273v8.8972704zm13.487896.3215881c-3.357982 0-6.100334-2.5191067-6.100334-6.6997518 0-4.1806452 2.798318-6.7533499 5.764536-6.7533499 3.07815 0 5.036974 2.0903226 5.036974 5.8957816 0 .2679901 0 .5359802-.055967.8575683h-9.850081c0 3.4302729 2.070755 5.9493796 5.260839 5.9493796 1.511092 0 2.686385-.4823821 3.69378-1.1791563l.391765.6967742c-1.007395.5895781-2.126722 1.2327543-4.141512 1.2327543zm-5.204872-7.450124h9.066552c0-3.537469-1.678991-5.2526055-4.197478-5.2526055-2.406554 0-4.589243 1.9831266-4.869074 5.2526055zm3.917646-8.2540943-.503698-.4287842 3.693781-4.1270471.671596.53598015zm12.872265 15.7042183c-2.014789 0-3.69378-.8039702-4.869074-1.7687345l.559664-.6431761c1.119327.9111662 2.350587 1.6615384 4.365377 1.6615384 2.238655 0 3.413948-1.2863523 3.413948-2.7334987 0-1.7151365-1.790924-2.4655087-3.357982-3.0014889-2.070756-.6967742-4.365377-1.4471464-4.365377-3.644665 0-1.7687345 1.455126-3.3230769 4.197478-3.3230769 1.343193 0 2.742352.5359801 3.693781 1.2863523l-.503698.6431762c-.895462-.6431762-1.84689-1.1791563-3.246049-1.1791563-2.238655 0-3.24605 1.2595533-3.24605 2.5191067 0 1.5543424 1.623025 2.1439206 3.24605 2.7334988 2.126722.7771712 4.477309 1.3935483 4.477309 3.912655 0 1.8759306-1.567058 3.537469-4.365377 3.537469zm11.473107 0c-2.462521 0-3.134117-1.5007444-3.134117-3.698263v-8.6828784h-2.126722v-.6431762l2.126722-.107196.111933-3.7518611h.727562v3.7518611h3.973613v.7503722h-3.973613v8.7900744c0 1.6615385.391765 2.8406948 2.350588 2.8406948.503697 0 1.23126-.214392 1.734958-.4287841l.279831.6967742c-.783529.2679901-1.623024.4823821-2.070755.4823821zm7.891258 0c-2.070756 0-3.86168-1.0183623-3.86168-3.4570719 0-2.8674938 2.742353-4.2074442 8.786721-4.8506204.055966-2.0903226-.503697-4.3950372-3.302016-4.3950372-1.902857 0-3.525881.9111663-4.365377 1.5543424l-.447731-.6431761c.839496-.5895782 2.686386-1.6615385 4.869074-1.6615385 3.134117 0 4.085546 2.2511166 4.085546 4.8238213v8.3076923h-.727563l-.111933-1.7151364h-.055966c-1.39916 1.0719603-3.078151 2.0367245-4.869075 2.0367245zm.055967-.7503722c1.623024 0 3.07815-.7503722 4.869074-2.1975186v-4.6630273c-5.876469.6431762-7.891259 1.9295285-7.891259 4.1270472 0 1.9831265 1.39916 2.7334987 3.022185 2.7334987zm10.689577.4287841v-12.8099255h.727563l.111932 2.0367245h.055967c1.23126-1.3399503 2.798318-2.3583126 4.253444-2.3583126 2.182688 0 3.24605 1.0719603 3.693781 2.6799007 1.567058-1.6615384 3.07815-2.6799007 4.589242-2.6799007 2.63042 0 3.973613 1.5543424 3.973613 4.8774193v8.2540943h-.839496v-8.1468982c0-2.8406948-1.007395-4.2342432-3.190083-4.2342432-1.343193 0-2.686386.8575682-4.253445 2.5727047v9.8084367h-.839495v-8.1468982c0-2.8406948-1.007395-4.2342432-3.190083-4.2342432-1.287227 0-2.686386.8575682-4.253445 2.5727047v9.8084367zm27.311589.3215881c-3.190083 0-5.932435-2.4655087-5.932435-6.6997518 0-4.2878412 2.742352-6.7533499 5.932435-6.7533499 3.190084 0 5.932436 2.4655087 5.932436 6.7533499 0 4.2342431-2.742352 6.6997518-5.932436 6.6997518zm0-.7503722c2.854285 0 5.036974-2.4119107 5.036974-5.9493796 0-3.537469-2.182689-6.0029777-5.036974-6.0029777s-5.036973 2.4655087-5.036973 6.0029777c0 3.5374689 2.182688 5.9493796 5.036973 5.9493796zm13.264031.7503722c-2.01479 0-3.693781-.8039702-4.869075-1.7687345l.559664-.6431761c1.119327.9111662 2.350588 1.6615384 4.365377 1.6615384 2.238655 0 3.413949-1.2863523 3.413949-2.7334987 0-1.7151365-1.790924-2.4655087-3.357983-3.0014889-2.070755-.6967742-4.365377-1.4471464-4.365377-3.644665 0-1.7687345 1.455126-3.3230769 4.197478-3.3230769 1.343193 0 2.742353.5359801 3.693781 1.2863523l-.503697.6431762c-.895462-.6431762-1.846891-1.1791563-3.24605-1.1791563-2.238655 0-3.24605 1.2595533-3.24605 2.5191067 0 1.5543424 1.623025 2.1439206 3.24605 2.7334988 2.126722.7771712 4.47731 1.3935483 4.47731 3.912655 0 1.8759306-1.567059 3.537469-4.365377 3.537469z"/></g></svg>