<svg height="39" viewBox="0 0 292 39" width="292" xmlns="http://www.w3.org/2000/svg"><g fill="none" fill-rule="evenodd" transform="translate(0 .7)"><path d="m143.52841 35.6865812v-9.9058962c.919833 1.9104228 2.816105 3.2123406 5.037856 3.2123406 3.481214 0 6.325622-2.7736509 6.325622-7.1322453 0-4.3444431-2.844408-7.1039427-6.325622-7.1039427-2.221751 0-4.132174 1.2736152-5.052008 3.2123406l-.028302-2.9576176h-1.867969v20.6750206zm4.698225-8.3917092c-2.702895 0-4.839738-2.3774151-4.839738-5.4340917 0-3.0425253 2.136843-5.4057891 4.839738-5.4057891 2.575533 0 4.75483 2.0660869 4.75483 5.4057891 0 3.3538534-2.179297 5.4340917-4.75483 5.4340917zm11.843698 1.415128v-7.5426324c0-3.1415843 1.684003-4.4293508 4.273687-4.4293508v-1.867969c-1.938725.0283026-3.608577 1.0330435-4.287838 2.6604407v-2.5189279h-1.88212v13.6984394zm12.367296-16.2739724 3.169887-3.6227278-1.075497-.80662298-3.509518 4.42935078zm-.608505 16.5428467c2.603836 0 4.797284-1.5000357 5.830328-3.8916021l-1.698154-.4386897c-.806623 1.6415486-2.363264 2.6887433-4.160477 2.6887433-2.518927 0-4.698225-1.7123049-4.75483-5.2076712h10.896486l.042454-.5802025c-.014151-4.4859558-2.589684-6.8067658-6.198261-6.8067658-3.721787 0-6.580345 2.6462894-6.580345 7.118094s2.816105 7.118094 6.622799 7.118094zm4.231233-8.3634067h-8.943609c.396236-2.8727099 2.278356-4.3302918 4.669922-4.3302918 2.363264 0 4.08972 1.4009768 4.273687 4.3302918zm9.32477 8.3634067c2.547231 0 4.839738-1.1321024 4.839738-3.9482072 0-2.600601-1.987325-3.3794875-3.982761-3.9048886l-.373756-.0959251c-.062148-.01562-.124182-.0310882-.186044-.0464525-1.783061-.452841-3.410458-.8349255-3.410458-2.5047766 0-1.6273972 1.500035-2.2359023 2.858558-2.2359023 1.514187 0 2.929315.7783204 3.212341 2.5330792l1.627397-.4386897c-.396236-2.4481715-2.419869-3.5661227-4.86804-3.5661227-2.476474 0-4.64162 1.160405-4.64162 3.7925432 0 2.5330792 1.981179 3.2264919 3.97651 3.7925431 2.221751.6368076 3.891602.9764384 3.934056 2.7170458.056605 1.7830614-1.528339 2.3774151-3.014223 2.3774151-1.938726 0-3.3114-1.0471947-3.594425-2.7736509l-1.698154.4952948c.410387 2.4340202 2.490625 3.8066944 5.320881 3.8066944zm13.966391-.2688743v-1.5707921h-1.259464c-1.146254 0-2.009482-.7641692-2.009482-2.1368434v-8.4341631h3.268946v-1.5566408h-3.268946v-4.6133174h-1.811364v2.7028946c0 1.316069-.424538 1.9104228-1.839666 1.9104228h-1.089649v1.5566408h2.844408v8.6181298c0 2.2500536 1.372674 3.5236688 3.467063 3.5236688zm5.702043.2688743c1.712305 0 3.368004-.6226563 4.514258-2.1509946h.084908c.240572 1.2877665 1.160405 1.8821203 2.462323 1.8821203h.990589v-1.4575819h-.22642c-.948136 0-1.457582-.2971769-1.457582-1.9104228v-5.9010839c0-3.3963073-2.334961-4.6699226-5.066158-4.6699226-2.787803 0-4.768982 1.2453127-5.151067 3.7642406l1.740608.4245384c.22642-1.867969 1.669851-2.6462894 3.353853-2.6462894 1.726457 0 3.254795.806623 3.254795 3.0000714 0 .7217153-.396236 1.1462537-1.188708 1.2877665l-2.306658.3537821c-3.056677.4952948-5.136915 1.4858844-5.136915 4.2595353 0 2.5896844 1.839666 3.7642406 4.132174 3.7642406zm.438689-1.5849434c-1.500035 0-2.688743-.6651102-2.688743-2.32081 0-1.5707921 1.117951-2.2500535 3.212341-2.575533l3.707635-.6509589c0 3.5236688-1.6557 5.5473019-4.231233 5.5473019zm12.324842 1.3160691v-8.6888861c0-2.4481715 1.301918-3.6227278 3.000072-3.6227278 1.584943 0 2.886861 1.061346 2.886861 3.4104585v8.9011554h1.924574v-8.73134c0-2.4057176 1.259464-3.5802739 3.014223-3.5802739 1.514187 0 2.816105 1.0188922 2.816105 3.283097v9.0285169h1.910423v-9.4955091c0-2.8868612-1.811364-4.4576533-4.245385-4.4576533-1.740607 0-3.127433.8349255-3.905753 2.3349612-.66511-1.5424895-2.080238-2.3349612-3.735938-2.3349612-1.613246 0-2.915164.7641691-3.665182 2.1085407v-1.8538177h-1.910422v13.6984394zm25.273264.2688743c3.778392 0 6.665253-2.7736509 6.665253-7.1322453 0-4.3302918-2.87271-7.0897914-6.665253-7.0897914s-6.693556 2.7594996-6.693556 7.0897914c0 4.3585944 2.929315 7.1322453 6.693556 7.1322453zm-.014151-1.6415485c-2.674592 0-4.783133-2.1368433-4.783133-5.4906968 0-3.3255509 2.108541-5.4482429 4.783133-5.4482429s4.811435 2.122692 4.811435 5.4482429c0 3.3538535-2.136843 5.4906968-4.811435 5.4906968zm14.093752 1.6415485c2.54723 0 4.839738-1.1321024 4.839738-3.9482072 0-2.8444073-2.377415-3.5095175-4.542561-4.0472662-1.783062-.452841-3.410459-.8349255-3.410459-2.5047766 0-1.6273972 1.500036-2.2359023 2.858559-2.2359023 1.514187 0 2.929315.7783204 3.21234 2.5330792l1.627398-.4386897c-.396236-2.4481715-2.419869-3.5661227-4.868041-3.5661227-2.476474 0-4.64162 1.160405-4.64162 3.7925432 0 2.5330792 1.981179 3.2264919 3.97651 3.7925431 2.221751.6368076 3.891602.9764384 3.934056 2.7170458.056605 1.7830614-1.528338 2.3774151-3.014223 2.3774151-1.938725 0-3.311399-1.0471947-3.594425-2.7736509l-1.698154.4952948c.410387 2.4340202 2.490626 3.8066944 5.320882 3.8066944z" fill="#929fad" fill-rule="nonzero"/><g fill="#fe666f"><g transform="translate(34.304297 7.408006)"><path d="m9.49099256.18542435v2.6328652c-.32934401-.02675676-.63007289-.05404865-.87681094-.05404865-1.56195448 0-2.62881311 1.00444878-2.62881311 2.63340034v2.00836242h3.4494736v2.63340034h-3.4494736v11.2924231h-3.06775849v-11.2924231h-2.65688834v-2.63340034h2.65688834v-1.92755701c0-3.33870854 2.08188608-5.37436285 5.36776749-5.37436285.43786557 0 .84927563.02729189 1.20561505.08134055"/><path d="m15.1020427 2.14931703c.7672096.7326001.7672096 1.92755701 0 2.68691387-.7666697.73313523-1.9712049.73313523-2.7384145 0-.7391343-.75935686-.7391343-1.95431377 0-2.68691387.7672096-.76042712 1.9717448-.76042712 2.7384145 0"/><path d="m12.1997661 21.3314525h3.0677585v-13.9252883h-3.0677585z"/><path d="m29.4549628 8.73661735c1.0128678 1.03120553 1.5333393 2.44235705 1.5333393 4.20723295v8.3877092h-3.0952938v-7.9804713c0-2.0629462-1.2050752-3.36600042-3.0666787-3.36600042-1.9447494 0-3.2594259 1.43844342-3.2594259 3.39329232v7.9531794h-3.0672186v-13.92528827h2.9030865v1.84568132c.794205-1.38385964 2.1639521-2.09023811 4.1076217-2.09023811 1.6164852 0 2.9306218.51587034 3.9445695 1.57490291"/><path d="m41.3133989 18.6716165v2.7142057c-.6846037.1080973-1.3697472.1632163-2.0543508.1632163-2.8755512 0-4.6831639-1.4657354-4.6550887-4.5058385l.0264555-7.0043846h-2.6012778v-2.63340039h2.6012778l.0275354-4.72310331h3.0952938l-.0280753 4.72310331h3.5606947v2.63340039h-3.5876901l-.0269954 6.3798819c0 1.6005894.7666697 2.3883084 2.3275443 2.3883084.3288042 0 .7672096-.0545838 1.3146766-.1353892"/><path d="m54.8269236 9.14321307c1.3972825 1.33034613 2.0813462 3.06739503 2.0813462 5.23950883s-.6840637 3.9091626-2.0813462 5.2384385c-1.3692072 1.3303461-3.1222892 1.9816056-5.2306308 1.9816056-2.1369567 0-3.8900387-.6512595-5.2862414-1.9816056-1.3692072-1.3292759-2.0532709-3.0663247-2.0532709-5.2384385s.6840637-3.9091627 2.0532709-5.23950883c1.3962027-1.32927584 3.1492847-1.98160566 5.2862414-1.98160566 2.1083416 0 3.8614236.65232982 5.2306308 1.98160566m-5.2306308 9.82668773c2.4922163 0 4.2172231-1.7648759 4.2172231-4.5871789 0-2.8506653-1.7250068-4.61500604-4.2172231-4.61500604-2.4932962 0-4.217763 1.76434074-4.217763 4.61500604 0 2.822303 1.7244668 4.5871789 4.217763 4.5871789"/><path d="m70.0656171 8.73661735c1.0134077 1.03120553 1.5338792 2.44235705 1.5338792 4.20723295v8.3877092h-3.0952938v-7.9804713c0-2.0629462-1.2050751-3.36600042-3.0666787-3.36600042-1.9447494 0-3.2599658 1.43844342-3.2599658 3.39329232v7.9531794h-3.0672186v-13.92528827h2.9036264v1.84568132c.794205-1.38385964 2.1634123-2.09023811 4.1076217-2.09023811 1.6159453 0 2.9306218.51587034 3.9440296 1.57490291"/><path d="m77.5985245 2.14931703c.7666697.7326001.7666697 1.92755701 0 2.68691387-.7666697.73313523-1.9722847.73313523-2.7389544 0-.7385944-.75935686-.7385944-1.95431377 0-2.68691387.7666697-.76042712 1.9722847-.76042712 2.7389544 0zm-2.9030865 19.18245657h3.0672186v-13.92582345h-3.0672186z"/><path d="m93.4556828 12.4277124-3.0121479.2723838c-.2192027-1.8194597-1.58841-2.93254088-3.4510933-2.93254088-2.3275444 0-3.9170342 1.71082728-3.9170342 4.61500598 0 2.8501301 1.6170252 4.5882493 3.9170342 4.5882493 1.8896787 0 3.1773598-1.0322758 3.4780887-2.7693247l3.0132278.2713135c-.5485468 3.1487356-3.0677585 5.1303412-6.4913165 5.1303412-2.0538109 0-3.7518222-.6507244-5.0664987-1.927557-1.3146766-1.3030542-1.9722848-3.067395-1.9722848-5.2930223 0-2.2534543.6576082-4.01726 1.9447494-5.29302229 1.3146765-1.27629746 3.0132278-1.92809214 5.0940341-1.92809214 3.423558 0 5.9983803 2.00889756 6.4632412 5.26626553"/></g><path d="m14.3154059 25.0637958c0-1.9768159-1.6020706-3.5792882-3.5789327-3.5792882-1.97686204 0-3.57893271 1.6024723-3.57893271 3.5792882 0 1.9768158 1.60207067 3.5792881 3.57893271 3.5792881 1.9768621 0 3.5789327-1.6024723 3.5789327-3.5792881"/><path d="m17.8940679 10.7446929c-1.1839508 0-2.0797672.2887484-2.9474201.6262535-1.2928136.5520349-2.7156127.8575773-4.2104454.8575773-1.49104143 0-2.91113247-.3039171-4.20177966-.8537851-.86981931-.3391303-1.76780213-.6300457-2.95554418-.6300457-1.97632044 0-3.57893272 1.603014-3.57893272 3.5798299 0 1.9773576 1.60261228 3.5798299 3.57893272 3.5798299 1.18774205 0 2.08572487-.2903736 2.95554418-.629504 1.29064719-.5498679 2.71073823-.8543268 4.20177966-.8543268 1.4948327 0 2.9176318.3060841 4.2104454.858119.8676529.3375051 1.7634693.6257118 2.9474201.6257118 1.9763204 0 3.5789327-1.6024723 3.5789327-3.5798299 0-1.9768159-1.6026123-3.5798299-3.5789327-3.5798299"/><path d="m25.051825.00558244c-1.1839508 0-2.0797672.28820665-2.9474201.62625354-1.2928136.55203491-2.7156127.85757729-4.2104454.85757729-1.4910414 0-2.9111324-.3044589-4.2017796-.8537851-.8698193-.33913037-1.7678022-.63004573-2.9560858-.63004573-1.97632046 0-3.57839113 1.60247228-3.57839113 3.5798299 0 1.97735761 1.60207067 3.57982989 3.57839113 3.57982989 1.1882836 0 2.0862665-.29091535 2.9560858-.63004573 1.2906472-.5493262 2.7107382-.85378509 4.2017796-.85378509 1.4948327 0 2.9176318.30608412 4.2104454.85811903.8676529.33750514 1.7634693.62571179 2.9474201.62571179 1.9763204 0 3.5789327-1.60247228 3.5789327-3.57982989 0-1.97735762-1.6026123-3.5798299-3.5789327-3.5798299"/></g></g></svg>