<svg height="32" viewBox="0 0 397 90" width="143" xmlns="http://www.w3.org/2000/svg"><g fill="#fe666f" fill-rule="evenodd"><g transform="translate(106.34332 22.96482)"><path d="m29.4220769.57481548v8.16188214c-1.0209664-.08294596-1.9532259-.16755084-2.7181139-.16755084-4.8420589 0-8.1493206 3.11379122-8.1493206 8.16354102v6.2259235h10.6933681v8.1635411h-10.6933681v35.0065116h-9.51005135v-35.0065116h-8.23635385v-8.1635411h8.23635385v-5.9754267c0-10.34999645 6.45384685-16.66052483 16.64007925-16.66052483 1.3573832 0 2.6327544.08460488 3.7374066.25215571"/><path d="m46.8163324 6.66288281c2.3783497 2.27106029 2.3783497 5.97542669 0 8.32943299-2.376676 2.2727192-6.1107352 2.2727192-8.4890849 0-2.2913165-2.3540063-2.2913165-6.0583727 0-8.32943299 2.3783497-2.35732409 6.1124089-2.35732409 8.4890849 0"/><path d="m37.8192748 66.1275027h9.5100514v-43.1683937h-9.5100514z"/><path d="m91.3103845 27.0835138c3.1398903 3.1967371 4.753352 7.5713069 4.753352 13.0424222v26.0018985h-9.5954108v-24.739461c0-6.3951333-3.735733-10.4346014-9.5067039-10.4346014-6.0287232 0-10.1042203 4.4591746-10.1042203 10.5192062v24.6548562h-9.5083776v-43.1683937h8.9995681v5.7216121c2.4620354-4.2899649 6.7082516-6.4797381 12.7336273-6.4797381 5.0111041 0 9.0849276 1.599198 12.2281652 4.882199"/><path d="m128.071536 57.882011v8.4140379c-2.122271.3351017-4.246216.5059703-6.368487.5059703-8.914209 0-14.517808-4.5437795-14.430775-13.9680991l.082012-21.7135925h-8.0639608v-8.1635411h8.0639608l.08536-14.64162024h9.595411l-.087034 14.64162024h11.038154v8.1635411h-11.121839l-.083686 19.7776339c0 4.9618271 2.376676 7.4037561 7.215387 7.4037561 1.019293 0 2.37835-.1692098 4.075497-.4197066"/><path d="m169.963463 28.3439605c4.331576 4.124073 6.452173 9.5089245 6.452173 16.2424773 0 6.7335527-2.120597 12.1184042-6.452173 16.2391594-4.244542 4.1240729-9.679096 6.1429775-16.214955 6.1429775-6.624566 0-12.05912-2.0189046-16.387349-6.1429775-4.244542-4.1207552-6.36514-9.5056067-6.36514-16.2391594 0-6.7335528 2.120598-12.1184043 6.36514-16.2424773 4.328229-4.1207551 9.762783-6.1429775 16.387349-6.1429775 6.535859 0 11.970413 2.0222224 16.214955 6.1429775m-16.214955 30.4627321c7.72587 0 13.073391-5.4711153 13.073391-14.2202548 0-8.8370623-5.347521-14.3065186-13.073391-14.3065186-7.729218 0-13.075066 5.4694563-13.075066 14.3065186 0 8.7491395 5.345848 14.2202548 13.075066 14.2202548"/><path d="m217.203413 27.0835138c3.141564 3.1967371 4.755026 7.5713069 4.755026 13.0424222v26.0018985h-9.595411v-24.739461c0-6.3951333-3.735733-10.4346014-9.506704-10.4346014-6.028723 0-10.105894 4.4591746-10.105894 10.5192062v24.6548562h-9.508378v-43.1683937h9.001242v5.7216121c2.462036-4.2899649 6.706578-6.4797381 12.733627-6.4797381 5.009431 0 9.084928 1.599198 12.226492 4.882199"/><path d="m240.555426 6.66288281c2.376676 2.27106029 2.376676 5.97542669 0 8.32943299-2.376676 2.2727192-6.114083 2.2727192-8.490759 0-2.289642-2.3540063-2.289642-6.0583727 0-8.32943299 2.376676-2.35732409 6.114083-2.35732409 8.490759 0zm-8.999568 59.46561529h9.508377v-43.1700526h-9.508377z"/><path d="m289.712617 38.5259085-9.337659.8443898c-.679528-5.640325-4.924071-9.0908768-10.698389-9.0908768-7.215388 0-12.142806 5.3035644-12.142806 14.3065186 0 8.8354033 5.012778 14.2235726 12.142806 14.2235726 5.858004 0 9.849815-3.200055 10.782075-8.5849065l9.341006.841072c-1.700495 9.7610802-9.510051 15.9040578-20.123081 15.9040578-6.366814 0-11.630649-2.0172457-15.706146-5.9754268-4.075497-4.0394681-6.114083-9.5089244-6.114083-16.4083691 0-6.9857085 2.038586-12.4535059 6.028723-16.4083692 4.075498-3.9565221 9.341006-5.9770856 15.791506-5.9770856 10.61303 0 18.594979 6.2275824 20.036048 16.3254232"/></g><path d="m44.3777584 77.6977669c0-6.1281292-4.9664191-11.0957933-11.0946914-11.0957933-6.1282724 0-11.0946915 4.9676641-11.0946915 11.0957933s4.9664191 11.0957933 11.0946915 11.0957933c6.1282723 0 11.0946914-4.9676641 11.0946914-11.0957933"/><path d="m55.4716104 33.308548c-3.6702475 0-6.4472784.89512-9.1370023 1.941386-4.0077222 1.7113082-8.4183993 2.6584895-13.0523806 2.6584895-4.6222285 0-9.0245107-.9421431-13.025517-2.6467338-2.6964399-1.0513041-5.4801866-1.9531417-9.162187-1.9531417-6.12659334 0-11.0946914 4.9693435-11.0946914 11.0974727 0 6.1298086 4.96809806 11.0974726 11.0946914 11.0974726 3.6820004 0 6.4657471-.9001582 9.162187-1.9514623 4.0010063-1.7045906 8.4032885-2.6484132 13.025517-2.6484132 4.6339813 0 9.0446584.9488608 13.0523806 2.660169 2.6897239 1.0462659 5.4667548 1.9397065 9.1370023 1.9397065 6.1265933 0 11.0946914-4.967664 11.0946914-11.0974726 0-6.1281292-4.9680981-11.0974727-11.0946914-11.0974727"/><path d="m77.6606575.01730558c-3.6702475 0-6.4472784.89344059-9.1370023 1.94138595-4.0077222 1.71130821-8.4183993 2.6584896-13.0523806 2.6584896-4.6222285 0-9.0245107-.94382259-13.025517-2.6467338-2.6964399-1.05130416-5.4801866-1.95314175-9.1638659-1.95314175-6.1265934 0-11.0930125 4.96766406-11.0930125 11.09747262 0 6.1298086 4.9664191 11.0974727 11.0930125 11.0974727 3.6836793 0 6.467426-.9018376 9.1638659-1.9531417 4.0010063-1.7029113 8.4032885-2.6467338 13.025517-2.6467338 4.6339813 0 9.0446584.9488607 13.0523806 2.660169 2.6897239 1.0462659 5.4667548 1.9397065 9.1370023 1.9397065 6.1265933 0 11.0946914-4.9676641 11.0946914-11.0974727 0-6.12980856-4.9680981-11.09747262-11.0946914-11.09747262"/></g></svg>