<svg width="16" height="16" viewBox="0 0 16 16" fill="none" xmlns="http://www.w3.org/2000/svg">
<ellipse cx="8.04656" cy="10.1365" rx="3.01604" ry="3.23191" fill="#243A68"/>
<path d="M8.28138 1.44851C9.04993 1.25759 9.80105 1.071 10.5783 1.15277L10.0244 3.95296H6.00927L5.53113 1.54291C6.3436 1.89053 7.21362 1.71001 8.03129 1.51029C8.11489 1.48987 8.19824 1.46917 8.28138 1.44851Z" fill="white" stroke="#243A68" stroke-width="0.6" stroke-linejoin="round"/>
<path d="M7.0603 8.89359C7.0603 9.29058 7.35218 9.44315 7.83864 9.56536V8.25244C7.41695 8.28306 7.0603 8.4966 7.0603 8.89359Z" fill="white"/>
<path d="M8.32495 10.6338V12.0077C8.77889 11.9771 9.16805 11.7635 9.16805 11.3665C9.16805 10.9392 8.87618 10.7864 8.32495 10.6338Z" fill="white"/>
<path d="M13.7734 10.2981L10.2384 4.95508H5.76294L2.22791 10.2981C0.80106 12.4963 2.26044 15.4882 4.7575 15.4882H11.2113C13.7409 15.4882 15.2002 12.4963 13.7734 10.2981ZM8.32505 12.8014V13.351H7.80606V12.8014C7.06025 12.7405 6.41146 12.4657 5.82771 11.9771L6.41146 11.3056C6.86567 11.672 7.31961 11.8855 7.80606 11.9771V10.5116C6.31416 10.1759 6.05481 9.65692 6.05481 8.98515C6.05481 8.06923 6.83315 7.51967 7.80606 7.4587V7.09233H8.32505V7.48932C8.9088 7.51993 9.46002 7.70312 10.0115 8.06949L9.49255 8.77161C9.1359 8.52719 8.74674 8.37462 8.35757 8.34401V9.77887H8.38981C9.91396 10.1146 10.1733 10.6642 10.1733 11.3359C10.1736 12.2215 9.36273 12.7711 8.32505 12.8014Z" fill="white"/>
<path d="M5.92417 5.26655H10.0771L13.5217 10.4729C13.522 10.4732 13.5222 10.4736 13.5224 10.4739C14.8373 12.5014 13.4688 15.1997 11.2113 15.1997H4.7575C2.53512 15.1997 1.16245 12.5037 2.47886 10.4739L5.92417 5.26655Z" stroke="#243A68" stroke-width="0.6"/>
</svg>
